<svg width="80" height="80" viewBox="0 0 80 80" fill="none" xmlns="http://www.w3.org/2000/svg"><path d="M32.5484 19.15C37.7484 19.15 41.9484 20.95 41.9484 23.2C41.9484 25.4 37.7484 27.2501 32.5484 27.2501C27.3484 27.2501 23.1484 25.45 23.1484 23.2C23.1484 20.95 27.3484 19.15 32.5484 19.15Z" fill="#EC268F"></path><path d="M16 19C18.3 19 20.15 20.85 20.15 23.15C20.15 25.45 18.3 27.3 16 27.3" fill="#EC268F"></path><path d="M54.9996 30.2999C60.1996 30.2999 64.3996 32.0999 64.3996 34.3499C64.3996 36.5999 60.1996 38.3999 54.9996 38.3999C49.7996 38.3999 45.5996 36.5999 45.5996 34.3499C45.5996 32.0999 49.7996 30.2999 54.9996 30.2999Z" fill="#EC268F"></path><path d="M38.5992 30.2C40.8992 30.2 42.7492 32.05 42.7492 34.35C42.7492 36.65 40.8992 38.5 38.5992 38.5C36.2992 38.5 34.4492 36.65 34.4492 34.35C34.4492 32.05 36.2992 30.2 38.5992 30.2Z" fill="#EC268F"></path><path d="M27.2984 30.2C29.5984 30.2 31.4484 32.05 31.4484 34.35C31.4484 36.65 29.5984 38.5 27.2984 38.5C24.9984 38.5 23.1484 36.65 23.1484 34.35C23.1484 32.05 24.9984 30.2 27.2984 30.2Z" fill="#EC268F"></path><path d="M16 30.2C18.3 30.2 20.15 32.05 20.15 34.35C20.15 36.65 18.3 38.5 16 38.5" fill="#EC268F"></path><path d="M32.5484 41.5C37.7484 41.5 41.9484 43.3 41.9484 45.55C41.9484 47.75 37.7484 49.6 32.5484 49.6C27.3484 49.6 23.1484 47.8 23.1484 45.55C23.1484 43.3 27.3484 41.5 32.5484 41.5Z" fill="#EC268F"></path><path d="M16 41.35C18.3 41.35 20.15 43.2 20.15 45.5C20.15 47.8 18.3 49.65 16 49.65" fill="#EC268F"></path><path d="M54.9996 52.65C60.1996 52.65 64.3996 54.45 64.3996 56.7C64.3996 58.95 60.1996 60.7501 54.9996 60.7501C49.7996 60.7501 45.5996 58.95 45.5996 56.7C45.5996 54.5 49.7996 52.65 54.9996 52.65Z" fill="#EC268F"></path><path d="M38.5992 52.5499C40.8992 52.5499 42.7492 54.3999 42.7492 56.6999C42.7492 58.9999 40.8992 60.8499 38.5992 60.8499C36.2992 60.8499 34.4492 58.9999 34.4492 56.6999C34.4492 54.3999 36.2992 52.5499 38.5992 52.5499Z" fill="#EC268F"></path><path d="M27.2984 52.5499C29.5984 52.5499 31.4484 54.3999 31.4484 56.6999C31.4484 58.9999 29.5984 60.8499 27.2984 60.8499C24.9984 60.8499 23.1484 58.9999 23.1484 56.6999C23.1484 54.3999 24.9984 52.5499 27.2984 52.5499Z" fill="#EC268F"></path><path d="M16 52.5499C18.3 52.5499 20.15 54.3999 20.15 56.6999C20.15 58.9999 18.3 60.8499 16 60.8499" fill="#EC268F"></path></svg>