<svg width="80" height="80" viewBox="0 0 80 80" fill="none" xmlns="http://www.w3.org/2000/svg"><g clip-path="url(#clip0_7706_50222)"><path d="M47.97 53.035C47.97 44.68 49.78 37.905 52.015 37.905C54.25 37.905 56.065 44.68 56.065 53.035" fill="#EE4023"></path><path d="M47.835 30.685C47.835 29.8565 48.0809 29.0465 48.5417 28.3579C49.0024 27.6692 49.6572 27.1329 50.4231 26.8167C51.189 26.5005 52.0315 26.4188 52.8438 26.582C53.6562 26.7451 54.4018 27.1456 54.9863 27.7329C55.5708 28.3202 55.9678 29.0678 56.127 29.8809C56.2862 30.694 56.2005 31.5361 55.8806 32.3005C55.5608 33.0648 55.0213 33.717 54.3305 34.1745C53.6396 34.6319 52.8285 34.874 52 34.87C50.8931 34.866 49.833 34.4232 49.0522 33.6387C48.2714 32.8541 47.8336 31.7919 47.835 30.685Z" fill="#EE4023"></path><path d="M36.355 49.915C36.355 44.7 38.175 40.47 40.405 40.47C42.635 40.47 44.455 44.7 44.455 49.915" fill="#EE4023"></path><path d="M44.59 33.45C44.589 34.2775 44.3427 35.0861 43.8822 35.7737C43.4218 36.4613 42.7678 36.9969 42.003 37.3129C41.2382 37.6289 40.3969 37.711 39.5855 37.549C38.774 37.3869 38.0287 36.988 37.444 36.4025C36.8592 35.817 36.4611 35.0713 36.3 34.2596C36.1389 33.448 36.2221 32.6067 36.539 31.8423C36.8559 31.0779 37.3923 30.4246 38.0804 29.965C38.7685 29.5053 39.5775 29.26 40.405 29.26C40.955 29.26 41.4996 29.3684 42.0077 29.5791C42.5157 29.7897 42.9773 30.0984 43.366 30.4875C43.7547 30.8767 44.0628 31.3386 44.2728 31.8469C44.4829 32.3553 44.5906 32.9 44.59 33.45Z" fill="#EE4023"></path><path d="M59.58 49.915C59.58 44.7 61.395 40.47 63.63 40.47C65.865 40.47 67.675 44.7 67.675 49.915" fill="#EE4023"></path><path d="M67.815 33.45C67.814 34.2775 67.5677 35.0861 67.1073 35.7737C66.6468 36.4613 65.9929 36.9969 65.2281 37.3129C64.4633 37.6289 63.622 37.711 62.8105 37.549C61.999 37.3869 61.2538 36.988 60.669 36.4025C60.0842 35.817 59.6861 35.0713 59.5251 34.2596C59.364 33.448 59.4472 32.6067 59.7641 31.8423C60.081 31.0779 60.6174 30.4246 61.3055 29.965C61.9936 29.5053 62.8025 29.26 63.63 29.26C64.7404 29.2613 65.8049 29.7034 66.5896 30.489C67.3743 31.2746 67.815 32.3396 67.815 33.45Z" fill="#EE4023"></path><path d="M24.745 49.915C24.745 44.7 26.56 40.47 28.8 40.47C31.04 40.47 32.845 44.7 32.845 49.915" fill="#EE4023"></path><path d="M33 33.45C32.999 34.2775 32.7527 35.0861 32.2923 35.7737C31.8318 36.4613 31.1779 36.9969 30.4131 37.3129C29.6483 37.6289 28.807 37.711 27.9955 37.549C27.184 37.3869 26.4388 36.988 25.854 36.4025C25.2692 35.817 24.8711 35.0713 24.7101 34.2596C24.549 33.448 24.6321 32.6067 24.949 31.8423C25.2659 31.0779 25.8024 30.4246 26.4905 29.965C27.1786 29.5053 27.9875 29.26 28.815 29.26C29.365 29.26 29.9096 29.3684 30.4177 29.5791C30.9258 29.7897 31.3873 30.0984 31.776 30.4875C32.1647 30.8767 32.4729 31.3386 32.6829 31.8469C32.8929 32.3553 33.0007 32.9 33 33.45Z" fill="#EE4023"></path><path d="M13.135 49.915C13.135 44.7 14.95 40.47 17.185 40.47C19.42 40.47 21.23 44.7 21.23 49.915" fill="#EE4023"></path><path d="M21.365 33.45C21.364 34.2777 21.1176 35.0866 20.6569 35.7742C20.1962 36.4619 19.542 36.9975 18.7769 37.3134C18.0118 37.6292 17.1703 37.7111 16.3586 37.5486C15.547 37.3862 14.8018 36.9867 14.2172 36.4007C13.6326 35.8147 13.2349 35.0686 13.0744 34.2566C12.9139 33.4446 12.9978 32.6032 13.3155 31.8389C13.6331 31.0745 14.1703 30.4216 14.8591 29.9625C15.5479 29.5035 16.3573 29.259 17.185 29.26C17.7348 29.26 18.2791 29.3685 18.7869 29.5792C19.2947 29.7898 19.756 30.0986 20.1442 30.4878C20.5325 30.877 20.8402 31.339 21.0497 31.8473C21.2592 32.3556 21.3663 32.9002 21.365 33.45Z" fill="#EE4023"></path></g><defs><clipPath id="clip0_7706_50222"><rect width="54.815" height="26.535" fill="white" transform="translate(13 26.5)"></rect></clipPath></defs></svg>