<svg width="80" height="80" viewBox="0 0 80 80" fill="none" xmlns="http://www.w3.org/2000/svg"><path d="M47.9504 25.95C49.6004 24.3 52.2004 24.35 53.8504 25.95C55.5004 27.6 55.4504 30.2 53.8504 31.85C52.2504 33.45 49.6004 33.5 47.9504 31.85C46.3004 30.25 46.3004 27.6 47.9504 25.95Z" fill="#EE4023"></path><path d="M25.6004 48.3C27.2504 46.65 29.8504 46.7 31.5004 48.3C33.1504 49.95 33.1004 52.55 31.5004 54.2C29.9004 55.8 27.2504 55.85 25.6004 54.2C24.0004 52.55 24.0004 49.9 25.6004 48.3Z" fill="#EE4023"></path><path d="M40.5 26.4C40.5 26.4 40.1 26.45 39.35 26.55C39.2 26.6 38.95 26.6 38.8 26.6C38.65 26.65 38.45 26.7 38.25 26.75C38.05 26.8 37.85 26.85 37.65 26.9C37.45 27 37.2 27.05 36.95 27.1C36.45 27.2 35.95 27.45 35.4 27.65L35.2 27.75H35.15C35.2 27.7 35 27.8 35.3 27.7H35.25L35.15 27.75C35 27.85 34.8 27.9 34.65 28C34.5 28.1 34.3 28.15 34.15 28.25C34 28.35 33.8 28.4 33.7 28.5C33.45 28.65 33.25 28.8 33 28.95C32.75 29.1 32.5 29.35 32.2 29.5C31.65 29.85 31.2 30.4 30.65 30.8L29.9 31.6C29.8 31.75 29.6 31.9 29.5 32.05L29.25 32.4C29.1 32.65 28.9 32.85 28.7 33.15C28.55 33.45 28.35 33.7 28.2 34C28 34.25 27.9 34.55 27.75 34.85C27.7 35 27.6 35.15 27.55 35.25L27.5 35.35V35.4C27.6 35.1 27.55 35.35 27.55 35.25L27.5 35.3L27.4 35.55C27.25 35.9 27.15 36.2 27 36.55L26.9 36.8L26.85 37C26.8 37.1 26.8 37.25 26.75 37.35C26.7 37.55 26.6 37.8 26.55 38C26.5 38.25 26.45 38.45 26.4 38.65C26.3 39.05 26.25 39.45 26.2 39.75C26.15 40.35 26.05 40.7 26.05 40.7L26 41.05C25.75 42.55 24.35 43.6 22.85 43.35C21.55 43.15 20.6 42.05 20.55 40.75C20.55 40.75 20.55 40.25 20.5 39.4C20.5 38.95 20.5 38.45 20.6 37.85C20.65 37.55 20.65 37.25 20.7 36.9C20.75 36.55 20.85 36.2 20.95 35.8C21 35.6 21.05 35.4 21.1 35.2L21.15 34.9L21.2 34.65C21.3 34.35 21.4 34 21.5 33.65L21.6 33.4V33.35L21.7 33.15L21.75 33C21.85 32.8 21.9 32.6 22 32.4C22.2 32 22.35 31.55 22.6 31.15C22.85 30.75 23.05 30.35 23.3 29.9C23.5 29.5 23.9 29.05 24.2 28.65L24.7 28C24.85 27.75 25 27.65 25.15 27.5L26.1 26.45C26.85 25.8 27.55 25.1 28.35 24.55C28.75 24.25 29.1 23.95 29.55 23.7C30 23.45 30.45 23.2 30.9 22.95C31.15 22.8 31.3 22.75 31.5 22.65C31.7 22.55 31.85 22.5 32.05 22.45C32.2 22.4 32.4 22.3 32.55 22.25L32.65 22.2H32.7L32.85 22.15L32.95 22.1L33.25 22C34.05 21.75 34.8 21.5 35.55 21.35C35.9 21.25 36.25 21.2 36.6 21.15C36.95 21.1 37.3 21.1 37.6 21.05C37.9 21 38.2 21 38.5 21C38.8 21 38.95 21 39.15 21C39.9 21 40.3 21.05 40.3 21.05C41.85 21.1 43 22.4 42.95 23.95C42.8 25.15 41.8 26.2 40.5 26.4Z" fill="#EE4023"></path><path d="M39.0504 53.7C39.0504 53.7 39.4504 53.65 40.2004 53.55C40.3504 53.5 40.6004 53.5 40.7504 53.5C40.9004 53.45 41.1004 53.4 41.2504 53.35C41.4504 53.3 41.6504 53.25 41.8504 53.25C42.1004 53.15 42.3004 53.1 42.5504 53.05C43.0504 52.95 43.5504 52.7 44.1004 52.5L44.3004 52.4H44.3504C44.3004 52.45 44.5004 52.35 44.2004 52.45H44.2504L44.3504 52.4C44.5004 52.3 44.7004 52.25 44.8504 52.15C45.0004 52.05 45.2004 52 45.3504 51.9C45.5004 51.8 45.7004 51.75 45.8004 51.65C46.0504 51.5 46.3004 51.35 46.5004 51.2C46.7504 51.05 47.0004 50.8 47.3004 50.65C47.8504 50.3 48.3004 49.75 48.8504 49.35L49.6004 48.55C49.7504 48.4 49.9004 48.2 50.0004 48.1L50.2504 47.75C50.4004 47.5 50.6004 47.3 50.7504 47C50.9504 46.7 51.1004 46.45 51.2504 46.2C51.4504 45.95 51.5504 45.65 51.7004 45.35C51.7504 45.2 51.8504 45.1 51.9004 44.95L51.9504 44.85C51.8504 45.15 51.9004 44.9 51.9004 45L51.9504 44.95L52.0504 44.7C52.2004 44.35 52.3004 44.05 52.4504 43.7L52.5504 43.45L52.6004 43.3C52.6504 43.2 52.6504 43.05 52.7004 42.95C52.7504 42.75 52.8004 42.5 52.9004 42.3C52.9504 42.05 53.0004 41.85 53.0504 41.65C53.1504 41.25 53.2004 40.85 53.2504 40.55C53.3004 39.95 53.4004 39.6 53.4004 39.6L53.4504 39.25C53.7004 37.75 55.1004 36.75 56.6504 37C57.9504 37.2 58.9004 38.3 58.9504 39.6C58.9504 39.6 58.9504 40.1 59.0004 40.95C59.0004 41.4 59.0004 41.9 58.9004 42.5C58.8504 42.8 58.8504 43.1 58.8004 43.45C58.7504 43.8 58.6504 44.2 58.5504 44.55C58.5004 44.75 58.4504 44.95 58.4004 45.15L58.3504 45.45L58.3004 45.7C58.2004 46 58.1004 46.35 58.0004 46.7L57.9004 46.95V47L57.8004 47.2L57.7504 47.35C57.6504 47.55 57.6004 47.75 57.5004 47.95C57.3004 48.35 57.1504 48.8 56.9004 49.2C56.6504 49.6 56.4504 50 56.2004 50.45C56.0004 50.85 55.6504 51.3 55.3004 51.7L54.8504 52.35C54.7004 52.55 54.5504 52.7 54.4004 52.85L53.4504 53.9C52.7004 54.55 52.0004 55.25 51.2004 55.8C50.8004 56.1 50.4504 56.4 50.0004 56.65C49.5504 56.9 49.1004 57.15 48.6504 57.4C48.4004 57.55 48.2504 57.6 48.0504 57.7C47.8504 57.8 47.7004 57.85 47.5004 57.9C47.3504 58 47.1504 58.05 47.0004 58.1L46.8504 58.15H46.8004L46.6504 58.2L46.5504 58.25L46.2504 58.35C45.4504 58.6 44.7004 58.85 43.9504 59C43.6004 59.05 43.2504 59.15 42.9004 59.2C42.5504 59.25 42.2004 59.25 41.9004 59.3C41.6004 59.3 41.3004 59.35 41.0004 59.35C40.7004 59.35 40.5504 59.35 40.3504 59.35C39.6004 59.35 39.2004 59.3 39.2004 59.3C37.6504 59.2 36.5004 57.9 36.5504 56.4C36.7004 54.95 37.7504 53.9 39.0504 53.7Z" fill="#EE4023"></path></svg>