<svg width="80" height="80" viewBox="0 0 80 80" fill="none" xmlns="http://www.w3.org/2000/svg"><path d="M32.6016 43.5001C32.6016 38.3001 34.1016 34.1001 36.0016 34.1001C37.8516 34.1001 39.4016 38.3001 39.4016 43.5001C39.4016 48.7001 37.9016 52.9001 36.0016 52.9001C34.1516 52.9001 32.6016 48.7001 32.6016 43.5001Z" fill="#EC268F"></path><path d="M23.5504 45.8001C21.3004 41.1501 20.8504 36.7 22.5504 35.9C24.2504 35.1 27.4504 38.2 29.7004 42.85C31.9504 47.5 32.4004 51.95 30.7004 52.75C29.0004 53.55 25.8004 50.4501 23.5504 45.8001Z" fill="#EC268F"></path><path d="M13 40.2C13 33.2 14.5 27.5 16.4 27.5C18.3 27.5 19.8 33.2 19.8 40.2C19.8 47.2 18.3 52.9 16.4 52.9C14.55 52.9 13.05 47.2 13 40.2Z" fill="#EC268F"></path><path d="M53.9012 52.9001C60.9012 52.9001 66.6012 51.4001 66.6012 49.5001C66.6012 47.6501 60.9012 46.1001 53.9012 46.1001C46.9012 46.1001 41.2012 47.6001 41.2012 49.5001C41.2012 51.3501 46.9012 52.8501 53.9012 52.9001Z" fill="#EC268F"></path><path d="M50.6012 44.3C55.8012 44.3 60.0012 42.8 60.0012 40.9C60.0012 39.05 55.8012 37.5 50.6012 37.5C45.4012 37.5 41.2012 39 41.2012 40.9C41.2012 42.8 45.4012 44.3 50.6012 44.3Z" fill="#EC268F"></path><path d="M50.6012 35.7501C55.8012 35.7501 60.0012 34.2501 60.0012 32.3501C60.0012 30.4501 55.8012 28.9501 50.6012 28.9501C45.4012 28.9501 41.2012 30.4501 41.2012 32.3501C41.2012 34.2001 45.4012 35.7501 50.6012 35.7501Z" fill="#EC268F"></path></svg>