<svg width="80" height="80" viewBox="0 0 80 80" fill="none" xmlns="http://www.w3.org/2000/svg"><path d="M20.85 34.5999C20.85 39.7999 19.05 44.0499 16.8 44.0499C14.55 44.0499 12.75 39.7999 12.75 34.5999C12.75 29.3999 14.55 25.1499 16.8 25.1499C19.05 25.1499 20.85 29.3499 20.85 34.5999Z" fill="#EC268F"></path><path d="M24.1504 29.1C24.1504 20.75 25.9504 14 28.2004 14C30.4504 14 32.2504 20.75 32.2504 29.1C32.2504 37.45 30.4504 44.25 28.2004 44.25C25.9504 44.25 24.1504 37.45 24.1504 29.1Z" fill="#EC268F"></path><path d="M5 35.85C7.3 35.85 9.20001 37.6999 9.20001 40.0499C9.20001 42.3499 7.35 44.2499 5 44.2499" fill="#EC268F"></path><path d="M36.0996 40.0499C36.0996 45.2499 37.8996 49.4999 40.1496 49.4999C42.3996 49.4999 44.1996 45.2499 44.1996 40.0499C44.1996 34.8499 42.3996 30.6 40.1496 30.6C37.8996 30.6 36.0996 34.8499 36.0996 40.0499Z" fill="#EC268F"></path><path d="M58.9004 45.4999C58.9004 40.2999 60.7004 36.0499 62.9504 36.0499C65.2004 36.0499 67.0004 40.2999 67.0004 45.4999C67.0004 50.6999 65.2004 54.95 62.9504 54.95C60.7004 54.95 58.9004 50.7499 58.9004 45.4999Z" fill="#EC268F"></path><path d="M55.6 50.9999C55.6 59.3499 53.8 66.15 51.55 66.15C49.3 66.15 47.5 59.3999 47.5 50.9999C47.5 42.6499 49.3 35.85 51.55 35.85C53.75 35.85 55.6 42.6499 55.6 50.9999Z" fill="#EC268F"></path><path d="M74.7488 44.2499C72.4488 44.2499 70.5488 42.3999 70.5488 40.0499C70.5488 37.7499 72.3988 35.85 74.7488 35.85" fill="#EC268F"></path></svg>