<svg width="80" height="80" viewBox="0 0 80 80" fill="none" xmlns="http://www.w3.org/2000/svg"><path d="M42.1012 44.5499C33.7512 44.5499 26.9512 42.7499 26.9512 40.4999C26.9512 38.2499 33.7012 36.45 42.1012 36.45C50.4512 36.45 57.2512 38.2499 57.2512 40.4999C57.2512 42.7499 50.4512 44.5499 42.1012 44.5499Z" fill="#EC268F"></path><path d="M64.2 36.2999C66.5 36.2999 68.4 38.1999 68.4 40.4999C68.4 42.7999 66.5 44.7 64.2 44.7C61.9 44.7 60 42.7999 60 40.4999C60 38.1999 61.9 36.2999 64.2 36.2999Z" fill="#EC268F"></path><path d="M47.8016 47.7999C53.0016 47.7999 57.2515 49.6 57.2515 51.85C57.2515 54.1 53.0016 55.9 47.8016 55.9C42.6016 55.9 38.3516 54.1 38.3516 51.85C38.3516 49.6 42.6016 47.7999 47.8016 47.7999Z" fill="#EC268F"></path><path d="M20.1 55.9C11.75 55.9 5 54.1 5 51.85C5 49.6 11.75 47.7999 20.15 47.7999C28.5 47.7999 35.25 49.6 35.25 51.85C35.2 54.05 28.45 55.9 20.1 55.9Z" fill="#EC268F"></path><path d="M25.8504 24.7C31.0504 24.7 35.3004 26.4999 35.3004 28.7499C35.3004 30.9999 31.0504 32.8 25.8504 32.8C20.6504 32.8 16.4004 30.9999 16.4004 28.7499C16.4004 26.4999 20.6504 24.7 25.8504 24.7Z" fill="#EC268F"></path><path d="M42.2507 24.5499C44.5507 24.5499 46.4507 26.3999 46.4507 28.7499C46.4507 31.0499 44.5507 32.9499 42.2507 32.9499C39.9507 32.9499 38.0508 31.0999 38.0508 28.7499C38.1008 26.3999 39.9507 24.5499 42.2507 24.5499Z" fill="#EC268F"></path><path d="M75.2 44.65C72.9 44.65 71 42.75 71 40.45C71 38.15 72.85 36.25 75.2 36.25" fill="#EC268F"></path><path d="M64.0516 55.9999C61.7516 55.9999 59.8516 54.1499 59.8516 51.7999C59.8516 49.4999 61.7016 47.6 64.0516 47.6" fill="#EC268F"></path><path d="M53.2507 32.9C50.9507 32.9 49.0508 31.05 49.0508 28.7C49.0508 26.4 50.9507 24.5 53.2507 24.5" fill="#EC268F"></path></svg>