<svg width="80" height="80" viewBox="0 0 80 80" fill="none" xmlns="http://www.w3.org/2000/svg"><path d="M44.3942 30.2C44.3942 32.5 42.4942 34.4 40.1942 34.4C37.8942 34.4 35.9941 32.55 35.9941 30.2C35.9941 27.9 37.8942 26 40.1942 26C42.5442 26 44.3942 27.9 44.3942 30.2Z" fill="#EC268F"></path><path d="M64.693 30.2C64.693 32.5 62.793 34.4 60.493 34.4C58.193 34.4 56.293 32.55 56.293 30.2C56.293 27.9 58.193 26 60.493 26C62.793 26 64.693 27.9 64.693 30.2Z" fill="#EC268F"></path><path d="M24.0934 30.2C24.0934 32.5 22.1934 34.4 19.8934 34.4C17.5934 34.4 15.6934 32.55 15.6934 30.2C15.6934 27.9 17.5934 26 19.8934 26C22.2434 26 24.0934 27.9 24.0934 30.2Z" fill="#EC268F"></path><path d="M62.8442 49.95C59.1942 46.25 57.4941 42 59.0441 40.45C60.5941 38.9 64.8441 40.6 68.5441 44.25C72.1941 47.95 73.8942 52.2 72.3442 53.75C70.7442 55.35 66.4942 53.65 62.8442 49.95Z" fill="#EC268F"></path><path d="M11.8946 44.25C15.5946 40.6 19.8446 38.9 21.3946 40.45C22.9446 42 21.2446 46.25 17.5946 49.95C13.8946 53.6 9.64459 55.3 8.09459 53.75C6.49459 52.15 8.24458 47.9 11.8946 44.25Z" fill="#EC268F"></path><path d="M21.9945 49.95C18.3445 46.25 16.6445 42 18.1945 40.45C19.7445 38.9 23.9945 40.6 27.6945 44.25C31.3445 47.95 33.0445 52.2 31.4945 53.75C29.8945 55.35 25.6945 53.65 21.9945 49.95Z" fill="#EC268F"></path><path d="M42.5942 49.95C38.9442 46.25 37.2441 42 38.7941 40.45C40.3441 38.9 44.5941 40.6 48.2941 44.25C51.9441 47.95 53.6442 52.2 52.0942 53.75C50.4942 55.35 46.2442 53.65 42.5942 49.95Z" fill="#EC268F"></path><path d="M52.7944 44.25C56.4944 40.6 60.7444 38.9 62.2944 40.45C63.8444 42 62.1444 46.25 58.4944 49.95C54.7944 53.6 50.5444 55.3 48.9944 53.75C47.3944 52.15 49.0944 47.9 52.7944 44.25Z" fill="#EC268F"></path><path d="M32.2436 44.25C35.9436 40.6 40.1936 38.9 41.7436 40.45C43.2936 42 41.5936 46.25 37.9436 49.95C34.2436 53.6 29.9936 55.3 28.4436 53.75C26.8436 52.15 28.5436 47.9 32.2436 44.25Z" fill="#EC268F"></path></svg>