<svg width="80" height="80" viewBox="0 0 80 80" fill="none" xmlns="http://www.w3.org/2000/svg"><path d="M39.8195 51.8352C44.4195 51.8352 48.1695 55.5852 48.1695 60.1352C48.1695 64.7352 44.4195 68.4352 39.8195 68.4352C35.2195 68.4352 31.5195 64.6852 31.5195 60.1352C31.5195 55.5352 35.2195 51.8352 39.8195 51.8352Z" fill="#EE4023"></path><path d="M52.1205 30.5352C49.8205 26.5352 51.1705 21.4352 55.1705 19.1352C59.1705 16.8352 64.2705 18.1852 66.5205 22.1852C68.8205 26.1852 67.4705 31.2352 63.4705 33.5352C59.5205 35.8852 54.4205 34.4852 52.1205 30.5352Z" fill="#EE4023"></path><path d="M27.5205 30.5352C25.2205 34.5352 20.1205 35.8852 16.1705 33.5852C12.1705 31.2852 10.8205 26.1852 13.1205 22.1852C15.4205 18.1852 20.5205 16.8352 24.4705 19.1352C28.4705 21.4352 29.8205 26.5352 27.5205 30.5352Z" fill="#EE4023"></path><path d="M52.2701 56.1352C50.7701 54.3852 51.0201 51.7352 52.7701 50.2852C54.5201 48.7852 57.1701 49.0352 58.6201 50.7852C60.1201 52.5352 59.8701 55.1852 58.1201 56.6352C56.3701 58.1352 53.7701 57.8852 52.2701 56.1352Z" fill="#EE4023"></path><path d="M60.67 47.1352C58.42 46.7352 56.87 44.5852 57.27 42.3352C57.67 40.0852 59.82 38.5352 62.12 38.9352C64.37 39.3352 65.87 41.4852 65.47 43.7352C65.12 46.0352 62.97 47.5352 60.67 47.1352Z" fill="#EE4023"></path><path d="M49.6203 17.5852C48.8203 19.7352 46.4203 20.8852 44.2703 20.0852C42.1203 19.2852 41.0203 16.8852 41.7703 14.7352C42.5703 12.5852 44.9703 11.4852 47.1203 12.2352C49.3203 13.0352 50.4203 15.4352 49.6203 17.5852Z" fill="#EE4023"></path><path d="M37.6207 14.7852C38.4207 16.9352 37.2707 19.3352 35.1207 20.1352C32.9707 20.9352 30.5707 19.7852 29.7707 17.6352C28.9707 15.4852 30.1207 13.0852 32.2707 12.2852C34.4707 11.5352 36.8707 12.6352 37.6207 14.7852Z" fill="#EE4023"></path><path d="M26.4697 56.1352C27.9697 54.3852 27.7197 51.7352 25.9697 50.2852C24.2197 48.7852 21.5697 49.0352 20.1197 50.7852C18.6197 52.5352 18.8697 55.1852 20.6197 56.6352C22.3697 58.0852 25.0197 57.8852 26.4697 56.1352Z" fill="#EE4023"></path><path d="M18.0696 47.1352C20.3196 46.7352 21.8696 44.5852 21.4696 42.3352C21.0696 40.0852 18.9196 38.5352 16.6196 38.9352C14.3696 39.3352 12.8696 41.4852 13.2696 43.7352C13.6196 45.9852 15.8196 47.5352 18.0696 47.1352Z" fill="#EE4023"></path></svg>