<svg width="80" height="80" viewBox="0 0 80 80" fill="none" xmlns="http://www.w3.org/2000/svg"><path d="M23.65 19C15.3 19 8.5 20.8 8.5 23.05C8.5 25.3 15.25 27.1 23.65 27.1C32 27.1 38.8 25.3 38.8 23.05C38.8 20.8 32 19 23.65 19Z" fill="#EE4023"></path><path d="M17.9493 29.9C23.1493 29.9 27.3493 31.7 27.3493 33.95C27.3493 36.15 23.1493 38 17.9493 38C12.7493 38 8.54926 36.2 8.54926 33.95C8.49926 31.7 12.7493 29.9 17.9493 29.9Z" fill="#EE4023"></path><path d="M8.5 45.4C8.5 43.1 10.35 41.25 12.65 41.25C14.95 41.25 16.8 43.1 16.8 45.4C16.8 47.7 14.95 49.55 12.65 49.55C10.4 49.6 8.5 47.7 8.5 45.4Z" fill="#EE4023"></path><path d="M55.8492 29.85C64.1992 29.85 70.9992 31.65 70.9992 33.9C70.9992 36.15 64.2492 37.95 55.8492 37.95C47.4992 37.95 40.6992 36.15 40.6992 33.9C40.6992 31.65 47.4992 29.85 55.8492 29.85Z" fill="#EE4023"></path><path d="M61.5504 41.2C56.3504 41.2 52.1504 43 52.1504 45.25C52.1504 47.45 56.3504 49.3 61.5504 49.3C66.7504 49.3 70.9504 47.5 70.9504 45.25C70.9504 43 66.7504 41.2 61.5504 41.2Z" fill="#EE4023"></path><path d="M70.9504 56.65C70.9504 54.35 69.1004 52.5 66.8004 52.5C64.5004 52.5 62.6504 54.35 62.6504 56.65C62.6504 58.95 64.5004 60.8 66.8004 60.8C69.1004 60.85 70.9504 59 70.9504 56.65Z" fill="#EE4023"></path></svg>