<svg width="80" height="80" viewBox="0 0 80 80" fill="none" xmlns="http://www.w3.org/2000/svg"><path d="M13.9288 41.15C13.9288 41.15 14.2788 41.4 14.8288 41.85C14.9788 41.95 15.1288 42.1 15.2788 42.2C15.4288 42.3 15.5788 42.4 15.7288 42.5C15.8788 42.6 16.0788 42.7 16.2288 42.85C16.4288 42.95 16.6789 43.1 16.8789 43.2C17.3289 43.45 17.8289 43.7 18.3789 43.9L18.5788 44H18.6289C18.5789 44 18.7788 44.05 18.4788 43.95H18.5288L18.6788 44C18.8788 44.05 19.0288 44.1 19.2288 44.2C19.4288 44.25 19.5788 44.3 19.7788 44.4C19.9788 44.45 20.1788 44.55 20.2788 44.55C20.5788 44.6 20.8289 44.65 21.1289 44.75C21.3789 44.85 21.7789 44.85 22.0789 44.9C22.7289 45.05 23.4289 45 24.0789 45.05L25.1788 45C25.3788 45 25.6288 45 25.7788 44.95L26.2288 44.85C26.5288 44.8 26.7789 44.8 27.1289 44.7C27.4289 44.65 27.7789 44.55 28.0789 44.5C28.3789 44.45 28.6788 44.3 28.9788 44.2C29.1288 44.15 29.2788 44.1 29.4288 44.05L29.5288 44H29.5789C29.3289 44.1 29.5288 44.05 29.4288 44.05L29.4788 44L29.7288 43.9C30.0788 43.75 30.3788 43.6 30.6788 43.45L30.9288 43.35L31.0789 43.25C31.1789 43.2 31.2789 43.15 31.3789 43.05C31.5789 42.95 31.7788 42.85 31.9788 42.75C32.1788 42.6 32.3788 42.5 32.5288 42.4C32.8788 42.15 33.1788 41.95 33.4288 41.75C33.9288 41.35 34.1788 41.15 34.1788 41.15L34.4788 40.95C35.7288 40.05 37.4289 40.35 38.3289 41.6C39.0789 42.7 38.9789 44.1 38.1289 45.05C38.1289 45.05 37.7788 45.4 37.1788 46C36.8788 46.3 36.4788 46.65 36.0288 47.05C35.7788 47.25 35.5288 47.45 35.2788 47.65C34.9788 47.85 34.6789 48.05 34.3289 48.3C34.1789 48.4 33.9789 48.5 33.8289 48.65L33.5789 48.8L33.3789 48.9C33.0789 49.05 32.7788 49.2 32.4288 49.4L32.1788 49.55L32.1289 49.6L31.9288 49.7L31.7788 49.75C31.5788 49.85 31.3788 49.9 31.1788 50C30.7788 50.15 30.3289 50.35 29.8789 50.45C29.4289 50.55 28.9788 50.7 28.5288 50.85C28.0788 51 27.5288 51.05 27.0288 51.15L26.2288 51.25C25.9288 51.3 25.7789 51.3 25.5789 51.3L24.1788 51.4C23.1788 51.35 22.1788 51.35 21.2288 51.15C20.7288 51.05 20.2788 51.05 19.7788 50.9C19.2788 50.75 18.7788 50.6 18.3288 50.5C18.0788 50.45 17.8788 50.35 17.7288 50.3C17.5288 50.25 17.3788 50.15 17.1788 50.1C16.9788 50.05 16.8288 49.95 16.6788 49.9L16.5288 49.85H16.4788L16.3288 49.8L16.2788 49.75L15.9788 49.6C15.2288 49.2 14.5289 48.85 13.8789 48.4C13.5789 48.2 13.2788 48 12.9788 47.8C12.6788 47.55 12.4288 47.35 12.1788 47.15C11.9288 46.95 11.7288 46.75 11.4788 46.55C11.2788 46.35 11.1788 46.25 11.0288 46.1C10.5288 45.55 10.2288 45.25 10.2288 45.25C9.17883 44.1 9.27884 42.35 10.4288 41.35C11.3788 40.4 12.8788 40.35 13.9288 41.15Z" fill="#EC268F"></path><path d="M14.4277 34.5C14.4277 32.2 16.2777 30.35 18.5777 30.35C20.8777 30.35 22.7277 32.2 22.7277 34.5C22.7277 36.8 20.8777 38.65 18.5777 38.65C16.2777 38.65 14.4277 36.8 14.4277 34.5Z" fill="#EC268F"></path><path d="M25.5781 34.5C25.5781 32.2 27.4281 30.35 29.7281 30.35C32.0281 30.35 33.8781 32.2 33.8781 34.5C33.8781 36.8 32.0281 38.65 29.7281 38.65C27.4281 38.65 25.5781 36.8 25.5781 34.5Z" fill="#EC268F"></path><path d="M45.7285 46.1C45.7285 43.8 47.5785 41.95 49.8785 41.95C52.1785 41.95 54.0285 43.8 54.0285 46.1C54.0285 48.4 52.1785 50.25 49.8785 50.25C47.5785 50.25 45.7285 48.4 45.7285 46.1Z" fill="#EC268F"></path><path d="M56.9277 46.1C56.9277 43.8 58.7778 41.95 61.0778 41.95C63.3778 41.95 65.2277 43.8 65.2277 46.1C65.2277 48.4 63.3778 50.25 61.0778 50.25C58.7778 50.25 56.9277 48.4 56.9277 46.1Z" fill="#EC268F"></path><path d="M66.2275 39.2C66.2275 39.2 65.8776 38.95 65.3276 38.5C65.1776 38.4 65.0275 38.25 64.8775 38.15C64.7275 38.05 64.5775 37.95 64.4275 37.85C64.2775 37.75 64.0775 37.65 63.9275 37.5C63.7275 37.4 63.4775 37.25 63.2775 37.15C62.8275 36.9 62.3275 36.65 61.7775 36.45L61.5776 36.35H61.5275C61.5775 36.35 61.3775 36.3 61.6775 36.4H61.6275L61.4775 36.35C61.2775 36.3 61.1275 36.25 60.9275 36.2C60.7275 36.15 60.5775 36.1 60.3775 36C60.1775 35.95 59.9775 35.85 59.8775 35.85C59.5775 35.8 59.3275 35.75 59.0275 35.65C58.7775 35.55 58.3776 35.55 58.0776 35.5C57.4276 35.35 56.7276 35.4 56.0776 35.35L54.9775 35.4C54.7775 35.4 54.5275 35.4 54.3775 35.45L53.9275 35.55C53.6275 35.6 53.3775 35.6 53.0275 35.7C52.7275 35.75 52.3776 35.85 52.0776 35.9C51.7776 35.95 51.4775 36.1 51.1775 36.2C51.0275 36.25 50.8775 36.3 50.7275 36.35L50.6275 36.4H50.5776C50.8276 36.3 50.6275 36.35 50.7275 36.35L50.6775 36.4L50.4275 36.5C50.0775 36.65 49.7775 36.8 49.4775 36.95L49.2275 37.05L49.0776 37.15C48.9776 37.2 48.8775 37.25 48.7775 37.35C48.5775 37.45 48.3775 37.55 48.1775 37.65C47.9775 37.8 47.7775 37.9 47.6275 38C47.2775 38.25 46.9775 38.45 46.7275 38.65C46.2275 39.05 45.9775 39.25 45.9775 39.25L45.6775 39.45C44.4275 40.35 42.7276 40.05 41.8275 38.8C41.0775 37.7 41.1775 36.3 42.0275 35.35C42.0275 35.35 42.3775 35 42.9775 34.4C43.2775 34.1 43.6775 33.75 44.1275 33.35C44.3775 33.15 44.6275 32.95 44.8775 32.75C45.1775 32.55 45.4776 32.35 45.8276 32.1C45.9776 32 46.1776 31.9 46.3276 31.75L46.5776 31.6L46.7775 31.5C47.0775 31.35 47.3775 31.2 47.7275 31L47.9775 30.85L48.0275 30.8L48.2275 30.7L48.3775 30.65C48.5775 30.55 48.7775 30.5 48.9775 30.4C49.3775 30.25 49.8275 30.05 50.2775 29.95C50.7275 29.85 51.1775 29.7 51.6275 29.55C52.0775 29.4 52.6275 29.35 53.1275 29.25L53.9275 29.15C54.2275 29.1 54.3776 29.1 54.5776 29.1L55.9775 29C56.9775 29.05 57.9775 29.05 58.9275 29.25C59.4275 29.35 59.8775 29.35 60.3775 29.5C60.8775 29.65 61.3776 29.8 61.8276 29.9C62.0776 29.95 62.2775 30.05 62.4275 30.1C62.6275 30.15 62.7775 30.25 62.9775 30.3C63.1275 30.35 63.3275 30.45 63.4775 30.5L63.6275 30.55H63.6775L63.8276 30.6L63.8775 30.65L64.1775 30.8C64.9275 31.2 65.6275 31.55 66.2775 32C66.5775 32.2 66.8775 32.4 67.1775 32.6C67.4775 32.85 67.7275 33.05 67.9775 33.25C68.2275 33.45 68.4275 33.65 68.6775 33.85C68.8775 34.05 68.9775 34.15 69.1275 34.3C69.6275 34.85 69.9275 35.15 69.9275 35.15C70.9775 36.3 70.8775 38.05 69.7275 39.05C68.7775 39.95 67.2775 40 66.2275 39.2Z" fill="#EC268F"></path></svg>