<svg width="80" height="80" viewBox="0 0 80 80" fill="none" xmlns="http://www.w3.org/2000/svg"><path d="M31.6484 46.95C31.6484 42.35 35.3985 38.6 39.9485 38.6C44.5485 38.6 48.2485 42.35 48.2485 46.95C48.2485 51.55 44.4985 55.25 39.9485 55.25C35.3485 55.3 31.6484 51.55 31.6484 46.95Z" fill="#EE4023"></path><path d="M35.8984 25.9C35.8984 20.7 37.6484 16.5 39.8984 16.5C42.0984 16.5 43.9485 20.7 43.9485 25.9C43.9485 31.1 42.1985 35.3 39.9485 35.3C37.7485 35.3 35.8984 31.1 35.8984 25.9Z" fill="#EE4023"></path><path d="M22.2 34.95C18.5 31.3 16.8 27.05 18.35 25.45C19.9 23.85 24.15 25.55 27.85 29.2C31.55 32.85 33.25 37.1 31.7 38.7C30.15 40.3 25.9 38.6 22.2 34.95Z" fill="#EE4023"></path><path d="M18.9 51C13.7 51 9.5 49.25 9.5 47C9.5 44.8 13.7 42.95 18.9 42.95C24.1 42.95 28.3 44.7 28.3 46.95C28.3 49.2 24.1 51 18.9 51Z" fill="#EE4023"></path><path d="M51.9987 29.2C55.6487 25.5 59.8987 23.8 61.4987 25.35C63.0987 26.9 61.3987 31.15 57.7487 34.85C54.0987 38.55 49.8487 40.25 48.2487 38.7C46.6487 37.15 48.2987 32.85 51.9987 29.2Z" fill="#EE4023"></path><path d="M60.9996 42.9C66.1996 42.9 70.3996 44.65 70.3996 46.9C70.3996 49.1 66.1996 50.95 60.9996 50.95C55.7996 50.95 51.5996 49.2 51.5996 46.95C51.6496 44.7 55.8496 42.9 60.9996 42.9Z" fill="#EE4023"></path><path d="M44.15 59.05C44.15 61.35 42.3 63.25 39.95 63.25C37.6 63.25 35.75 61.4 35.75 59.05" fill="#EE4023"></path></svg>