<svg width="80" height="80" viewBox="0 0 80 80" fill="none" xmlns="http://www.w3.org/2000/svg"><path d="M19.1504 34.1C19.1504 28.9 20.9504 24.7 23.2004 24.7C25.4004 24.7 27.2504 28.9 27.2504 34.1C27.2504 39.3 25.4504 43.5 23.2004 43.5C20.9504 43.5 19.1504 39.3 19.1504 34.1Z" fill="#EE4023"></path><path d="M41.3496 28.9C41.3496 26.6 43.1996 24.75 45.4996 24.75C47.7996 24.75 49.6496 26.6 49.6496 28.9C49.6496 31.2 47.7996 33.05 45.4996 33.05C43.1996 33.05 41.3496 31.2 41.3496 28.9Z" fill="#EE4023"></path><path d="M52.5508 28.9C52.5508 26.6 54.4008 24.75 56.7008 24.75C59.0008 24.75 60.8508 26.6 60.8508 28.9C60.8508 31.2 59.0008 33.05 56.7008 33.05C54.4008 33.05 52.5508 31.2 52.5508 28.9Z" fill="#EE4023"></path><path d="M52.5508 40.1C52.5508 37.8 54.4008 35.95 56.7008 35.95C59.0008 35.95 60.8508 37.8 60.8508 40.1C60.8508 42.4 59.0008 44.25 56.7008 44.25C54.4008 44.25 52.5508 42.4 52.5508 40.1Z" fill="#EE4023"></path><path d="M52.5508 51.4C52.5508 49.1 54.4008 47.25 56.7008 47.25C59.0008 47.25 60.8508 49.1 60.8508 51.4C60.8508 53.7 59.0008 55.55 56.7008 55.55C54.4008 55.55 52.5508 53.7 52.5508 51.4Z" fill="#EE4023"></path><path d="M41.3496 40.1C41.3496 37.8 43.1996 35.95 45.4996 35.95C47.7996 35.95 49.6496 37.8 49.6496 40.1C49.6496 42.4 47.7996 44.25 45.4996 44.25C43.2496 44.25 41.3496 42.4 41.3496 40.1Z" fill="#EE4023"></path><path d="M41.3496 51.4C41.3496 49.1 43.1996 47.25 45.4996 47.25C47.7996 47.25 49.6496 49.1 49.6496 51.4C49.6496 53.7 47.7996 55.55 45.4996 55.55C43.2496 55.55 41.3496 53.7 41.3496 51.4Z" fill="#EE4023"></path><path d="M19 51.4C19 49.1 20.85 47.25 23.15 47.25C25.45 47.25 27.3 49.1 27.3 51.4C27.3 53.7 25.45 55.55 23.15 55.55C20.85 55.55 19 53.7 19 51.4Z" fill="#EE4023"></path><path d="M30.3008 39.65C30.3008 31.3 32.1008 24.5 34.3508 24.5C36.6008 24.5 38.4008 31.25 38.4008 39.65C38.4008 48 36.6008 54.8 34.3508 54.8C32.1008 54.8 30.3008 48 30.3008 39.65Z" fill="#EE4023"></path></svg>