<svg width="24" height="24" viewBox="0 0 24 24" fill="none" xmlns="http://www.w3.org/2000/svg">
<path d="M21.0891 6.98002C20.2391 6.04002 18.8191 5.57002 16.7591 5.57002H16.5191V5.53002C16.5191 3.85002 16.5191 1.77002 12.7591 1.77002H11.2391C7.47906 1.77002 7.47906 3.86002 7.47906 5.53002V5.58002H7.23906C5.16906 5.58002 3.75906 6.05002 2.90906 6.99002C1.91906 8.09002 1.94906 9.57002 2.04906 10.58L2.05906 10.65L2.13652 11.4633C2.15078 11.6131 2.23144 11.7484 2.35734 11.8307C2.59714 11.9877 2.99849 12.2464 3.23906 12.38C3.37906 12.47 3.52906 12.55 3.67906 12.63C5.38906 13.57 7.26906 14.2 9.17906 14.51C9.26906 15.45 9.67906 16.55 11.8691 16.55C14.0591 16.55 14.4891 15.46 14.5591 14.49C16.5991 14.16 18.5691 13.45 20.3491 12.41C20.4091 12.38 20.4491 12.35 20.4991 12.32C20.8958 12.0958 21.3074 11.8195 21.6825 11.5489C21.7955 11.4673 21.8678 11.3413 21.8832 11.2028L21.8991 11.06L21.9491 10.59C21.9591 10.53 21.9591 10.48 21.9691 10.41C22.0491 9.40002 22.0291 8.02002 21.0891 6.98002ZM13.0891 13.83C13.0891 14.89 13.0891 15.05 11.8591 15.05C10.6291 15.05 10.6291 14.86 10.6291 13.84V12.58H13.0891V13.83ZM8.90906 5.57002V5.53002C8.90906 3.83002 8.90906 3.20002 11.2391 3.20002H12.7591C15.0891 3.20002 15.0891 3.84002 15.0891 5.53002V5.58002H8.90906V5.57002Z" fill="#101426"/>
<path d="M20.8736 13.7341C21.2272 13.5659 21.6344 13.8462 21.599 14.2361L21.2401 18.19C21.0301 20.19 20.2101 22.23 15.8101 22.23H8.19009C3.79009 22.23 2.97009 20.19 2.76009 18.2L2.41938 14.4521C2.38433 14.0667 2.78229 13.7867 3.13493 13.9463C4.27434 14.4618 6.37748 15.3764 7.67666 15.7166C7.84097 15.7597 7.97386 15.8773 8.0458 16.0311C8.65277 17.3292 9.9692 18.02 11.8701 18.02C13.7522 18.02 15.0852 17.3026 15.6942 16.0013C15.7663 15.8474 15.8993 15.7298 16.0637 15.6865C17.4433 15.3235 19.6819 14.3012 20.8736 13.7341Z" fill="#101426"/>
</svg>
