<svg width="32" height="32" viewBox="0 0 32 32" fill="none" xmlns="http://www.w3.org/2000/svg"><path d="M19.0062 7.29175H11.0913C10.9147 7.29175 10.7713 7.43479 10.7713 7.61175C10.7713 7.78871 10.9147 7.93175 11.0913 7.93175H19.0062C19.1828 7.93175 19.3262 7.78871 19.3262 7.61175C19.3262 7.43479 19.1828 7.29175 19.0062 7.29175Z" fill="#EC268F" stroke="#EC268F" stroke-width="0.5"></path><path d="M19.0062 9.80151H11.0913C10.9147 9.80151 10.7713 9.94455 10.7713 10.1215C10.7713 10.2985 10.9147 10.4415 11.0913 10.4415H19.0062C19.1828 10.4415 19.3262 10.2985 19.3262 10.1215C19.3262 9.94455 19.1828 9.80151 19.0062 9.80151Z" fill="#EC268F" stroke="#EC268F" stroke-width="0.5"></path><path d="M3.52026 28.7998H21.8748C22.0515 28.7998 22.1948 28.6568 22.1948 28.4798V3.51983C22.1948 3.34287 22.0515 3.19983 21.8748 3.19983H3.52026C3.34362 3.19983 3.20026 3.34287 3.20026 3.51983V28.4798C3.20026 28.6568 3.34362 28.7998 3.52026 28.7998ZM3.84026 3.83983H21.5548V28.1598H3.84026V3.83983Z" fill="#EC268F" stroke="#EC268F" stroke-width="0.5"></path><path d="M8.89793 7.29175H6.38818C6.21154 7.29175 6.06818 7.43479 6.06818 7.61175V10.1215C6.06818 10.2985 6.21154 10.4415 6.38818 10.4415H8.89793C9.07457 10.4415 9.21793 10.2985 9.21793 10.1215V7.61175C9.21793 7.43479 9.07457 7.29175 8.89793 7.29175ZM8.57793 9.80151H6.70818V7.93175H8.57793V9.80151Z" fill="#EC268F" stroke="#EC268F" stroke-width="0.5"></path><path d="M19.0062 12.047H11.0913C10.9147 12.047 10.7713 12.19 10.7713 12.367C10.7713 12.544 10.9147 12.687 11.0913 12.687H19.0062C19.1828 12.687 19.3262 12.544 19.3262 12.367C19.3262 12.19 19.1828 12.047 19.0062 12.047Z" fill="#EC268F" stroke="#EC268F" stroke-width="0.5"></path><path d="M19.0062 14.5571H11.0913C10.9147 14.5571 10.7713 14.7002 10.7713 14.8771C10.7713 15.0541 10.9147 15.1971 11.0913 15.1971H19.0062C19.1828 15.1971 19.3262 15.0541 19.3262 14.8771C19.3262 14.7002 19.1828 14.5571 19.0062 14.5571Z" fill="#EC268F" stroke="#EC268F" stroke-width="0.5"></path><path d="M8.89793 12.047H6.38818C6.21154 12.047 6.06818 12.19 6.06818 12.367V14.8771C6.06818 15.054 6.21154 15.1971 6.38818 15.1971H8.89793C9.07457 15.1971 9.21793 15.054 9.21793 14.8771V12.367C9.21793 12.1904 9.07457 12.047 8.89793 12.047ZM8.57793 14.5571H6.70818V12.687H8.57793V14.5571Z" fill="#EC268F" stroke="#EC268F" stroke-width="0.5"></path><path d="M19.0062 16.8027H11.0913C10.9147 16.8027 10.7713 16.9458 10.7713 17.1227C10.7713 17.2997 10.9147 17.4427 11.0913 17.4427H19.0062C19.1828 17.4427 19.3262 17.2997 19.3262 17.1227C19.3262 16.9458 19.1828 16.8027 19.0062 16.8027Z" fill="#EC268F" stroke="#EC268F" stroke-width="0.5"></path><path d="M19.0062 19.313H11.0913C10.9147 19.313 10.7713 19.456 10.7713 19.633C10.7713 19.81 10.9147 19.953 11.0913 19.953H19.0062C19.1828 19.953 19.3262 19.81 19.3262 19.633C19.3262 19.456 19.1828 19.313 19.0062 19.313Z" fill="#EC268F" stroke="#EC268F" stroke-width="0.5"></path><path d="M8.89793 16.8027H6.38818C6.21154 16.8027 6.06818 16.9458 6.06818 17.1227V19.6328C6.06818 19.8098 6.21154 19.9528 6.38818 19.9528H8.89793C9.07457 19.9528 9.21793 19.8098 9.21793 19.6328V17.1227C9.21793 16.9458 9.07457 16.8027 8.89793 16.8027ZM8.57793 19.3128H6.70818V17.4427H8.57793V19.3128Z" fill="#EC268F" stroke="#EC268F" stroke-width="0.5"></path><path d="M19.0062 21.5583H11.0913C10.9147 21.5583 10.7713 21.7014 10.7713 21.8784C10.7713 22.0553 10.9147 22.1984 11.0913 22.1984H19.0062C19.1828 22.1984 19.3262 22.0553 19.3262 21.8784C19.3262 21.7014 19.1828 21.5583 19.0062 21.5583Z" fill="#EC268F" stroke="#EC268F" stroke-width="0.5"></path><path d="M19.0062 24.0681H11.0913C10.9147 24.0681 10.7713 24.2112 10.7713 24.3881C10.7713 24.5651 10.9147 24.7081 11.0913 24.7081H19.0062C19.1828 24.7081 19.3262 24.5651 19.3262 24.3881C19.3262 24.2112 19.1828 24.0681 19.0062 24.0681Z" fill="#EC268F" stroke="#EC268F" stroke-width="0.5"></path><path d="M8.89793 21.5583H6.38818C6.21154 21.5583 6.06818 21.7014 6.06818 21.8784V24.3881C6.06818 24.5651 6.21154 24.7081 6.38818 24.7081H8.89793C9.07457 24.7081 9.21793 24.5651 9.21793 24.3881V21.8784C9.21793 21.7014 9.07457 21.5583 8.89793 21.5583ZM8.57793 24.0681H6.70818V22.1984H8.57793V24.0681Z" fill="#EC268F" stroke="#EC268F" stroke-width="0.5"></path><path d="M26.8242 3.58383C26.8136 3.55887 26.8002 3.53551 26.7839 3.51375C26.6332 3.31407 26.4028 3.19983 26.1525 3.19983C25.9023 3.19983 25.6722 3.31407 25.5208 3.51375C25.5045 3.53519 25.4911 3.55887 25.4805 3.58383L23.5289 8.27055C23.5125 8.30959 23.5042 8.35151 23.5042 8.39375V27.0437C23.5042 28.012 24.292 28.7998 25.2604 28.7998H27.0444C28.0127 28.7998 28.8005 28.012 28.8005 27.0437V8.39343C28.8005 8.35119 28.7922 8.30927 28.7759 8.27023L26.8242 3.58383ZM25.0527 6.27599C25.0594 6.27631 25.0655 6.27983 25.0722 6.27983H27.2322C27.2392 6.27983 27.245 6.27631 27.2517 6.27599L28.0584 8.21327H24.246L25.0527 6.27599ZM28.1605 8.85327V23.3064H24.1442V8.85327H28.1605ZM24.1442 23.9464H28.1605V25.3598H24.1442V23.9464ZM26.0514 3.87791C26.0876 3.84527 26.1285 3.83983 26.1525 3.83983C26.1762 3.83983 26.2175 3.84527 26.2533 3.87791L26.9871 5.63983H25.3176L26.0514 3.87791ZM27.0444 28.1598H25.2604C24.645 28.1598 24.1442 27.6593 24.1442 27.0437V25.9998H28.1605V27.0437C28.1605 27.6593 27.66 28.1598 27.0444 28.1598Z" fill="#EC268F" stroke="#EC268F" stroke-width="0.5"></path><path d="M26.1516 19.6953C26.9925 19.6953 27.3756 18.0575 27.3756 16.5356C27.3756 15.0137 26.9925 13.3756 26.1516 13.3756C25.3106 13.3756 24.9276 15.0137 24.9276 16.5356C24.9276 18.0575 25.3106 19.6953 26.1516 19.6953ZM26.1464 14.015C26.3087 14.0604 26.7356 14.9039 26.7356 16.5356C26.7356 18.1673 26.3087 19.0105 26.1564 19.0559C25.9941 19.0105 25.5672 18.1673 25.5672 16.5356C25.5672 14.9036 25.9941 14.0601 26.1464 14.015Z" fill="#EC268F" stroke="#EC268F" stroke-width="0.5"></path></svg>