<svg width="32" height="32" viewBox="0 0 32 32" fill="none" xmlns="http://www.w3.org/2000/svg"><path d="M17.5141 15.8392C17.5141 15.8205 17.5117 15.8023 17.5113 15.7837C17.5115 15.7788 17.5141 15.7747 17.5141 15.7698V4.6292C17.5141 4.45233 17.3709 4.3092 17.1941 4.3092C17.1817 4.3092 17.1713 4.31487 17.1593 4.31622C17.1102 4.30864 17.0597 4.30881 17.0094 4.32608L8.43156 7.21827C8.28875 7.26622 8.20851 7.40548 8.22119 7.54923C8.21966 7.56188 8.21375 7.57301 8.21375 7.58608V16.1084C7.79314 15.6645 7.20164 15.3861 6.54562 15.3861C5.27281 15.3861 4.23718 16.4289 4.23718 17.7105C4.23718 18.992 5.27281 20.0348 6.54562 20.0348C7.81843 20.0348 8.85375 18.992 8.85375 17.7105C8.85375 17.6727 8.8499 17.6358 8.84812 17.5984C8.849 17.5887 8.85375 17.5804 8.85375 17.5705V10.8236L16.8741 8.11936V14.2354C16.4547 13.7926 15.8655 13.5151 15.2122 13.5151C13.9431 13.5151 12.9106 14.5576 12.9106 15.8392C12.9106 17.1208 13.9431 18.1636 15.2122 18.1636C16.4816 18.1636 17.5141 17.1208 17.5141 15.8392ZM6.54562 19.3948C5.62562 19.3948 4.87718 18.6392 4.87718 17.7105C4.87718 16.7817 5.62562 16.0261 6.54562 16.0261C7.46531 16.0261 8.21375 16.7817 8.21375 17.7105C8.21375 18.6392 7.46531 19.3948 6.54562 19.3948ZM8.85375 10.1484V7.75108L16.8741 5.04686V7.44421L8.85375 10.1484ZM15.2122 17.5236C14.2959 17.5236 13.5506 16.768 13.5506 15.8392C13.5506 14.9105 14.2959 14.1551 15.2122 14.1551C16.1284 14.1551 16.8741 14.9105 16.8741 15.8392C16.8741 16.768 16.1284 17.5236 15.2122 17.5236Z" fill="#EC268F" stroke="#EC268F" stroke-width="0.5"></path><path d="M20.1233 26.4756C20.1233 26.4378 20.1195 26.4009 20.1177 26.3636C20.1186 26.3539 20.1233 26.3455 20.1233 26.3356V19.589L28.1436 16.8848V23.0007C27.7243 22.5578 27.1351 22.2803 26.4818 22.2803C25.2127 22.2803 24.1802 23.3231 24.1802 24.6047C24.1802 25.8862 25.2127 26.9287 26.4818 26.9287C27.7511 26.9287 28.7836 25.8862 28.7836 24.6047C28.7836 24.5858 28.7813 24.5676 28.7808 24.5489C28.7811 24.544 28.7836 24.5399 28.7836 24.535V13.3943C28.7836 13.376 28.7762 13.3602 28.7732 13.3427C28.7704 13.3253 28.7723 13.3081 28.7665 13.2909C28.7652 13.2873 28.7622 13.2849 28.7609 13.2813C28.7524 13.2591 28.7388 13.2407 28.7258 13.2212C28.7155 13.2056 28.7075 13.1887 28.6949 13.1753C28.6815 13.1611 28.6646 13.1518 28.6487 13.1402C28.6311 13.1274 28.615 13.1132 28.5953 13.1042C28.5804 13.0974 28.5637 13.0957 28.5476 13.0913C28.5232 13.0844 28.4994 13.0771 28.4736 13.0764C28.4701 13.0762 28.4672 13.0743 28.4636 13.0743C28.4461 13.0743 28.431 13.0816 28.4143 13.0843C28.3962 13.0872 28.3782 13.0853 28.3602 13.0915L19.6999 16.0484C19.6962 16.0497 19.6939 16.0526 19.6903 16.054C19.6678 16.0626 19.6492 16.0764 19.6294 16.0896C19.6142 16.0997 19.5977 16.1074 19.5847 16.1197C19.5693 16.1342 19.559 16.1525 19.5467 16.1698C19.5352 16.1861 19.5221 16.2007 19.5138 16.2187C19.506 16.2356 19.5039 16.2545 19.4991 16.2729C19.4933 16.2953 19.4864 16.3168 19.4855 16.3402C19.4854 16.3441 19.4833 16.3473 19.4833 16.3512V24.8737C19.0627 24.4298 18.4712 24.1515 17.8152 24.1515C16.5424 24.1515 15.5071 25.194 15.5071 26.4756C15.5071 27.7572 16.5424 28.8 17.8152 28.8C19.088 28.8 20.1233 27.7572 20.1233 26.4756ZM26.4818 26.2887C25.5655 26.2887 24.8202 25.5334 24.8202 24.6047C24.8202 23.6759 25.5655 22.9203 26.4818 22.9203C27.398 22.9203 28.1436 23.6759 28.1436 24.6047C28.1436 25.5334 27.398 26.2887 26.4818 26.2887ZM20.1233 18.9139V16.5801L28.1436 13.8417V16.2097L20.1233 18.9139ZM16.1471 26.4756C16.1471 25.5468 16.8955 24.7915 17.8152 24.7915C18.7349 24.7915 19.4833 25.5468 19.4833 26.4756C19.4833 27.4043 18.7349 28.16 17.8152 28.16C16.8955 28.16 16.1471 27.4043 16.1471 26.4756Z" fill="#EC268F" stroke="#EC268F" stroke-width="0.5"></path><path d="M5.25244 7.66386L5.57994 8.24917C5.63651 8.35042 5.74338 8.41292 5.85932 8.41292C5.97526 8.41292 6.08213 8.35042 6.13869 8.24917L6.46619 7.66386C6.76307 7.13323 7.20713 6.69886 7.75057 6.40854L8.34932 6.08854C8.45338 6.03292 8.51838 5.92448 8.51838 5.80636C8.51838 5.68823 8.45338 5.57979 8.34932 5.52417L7.75057 5.20386C7.20713 4.91354 6.76307 4.47948 6.46619 3.94886L6.13869 3.36354C6.02557 3.16104 5.69307 3.16104 5.57994 3.36354L5.25244 3.94886C4.95557 4.47948 4.51151 4.91354 3.96807 5.20386L3.36932 5.52417C3.26526 5.57979 3.20026 5.68823 3.20026 5.80636C3.20026 5.92448 3.26526 6.03292 3.36932 6.08854L3.96807 6.40854C4.51151 6.69886 4.95557 7.13323 5.25244 7.66386ZM4.19901 5.80636L4.26994 5.76823C4.92119 5.42011 5.45401 4.89886 5.81119 4.26136L5.85932 4.17511L5.90744 4.26136C6.26463 4.89886 6.79744 5.42011 7.44869 5.76823L7.51963 5.80636L7.44869 5.84417C6.79744 6.19229 6.26432 6.71354 5.90744 7.35136L5.85932 7.43761L5.81119 7.35136C5.45432 6.71354 4.92119 6.19229 4.26994 5.84417L4.19901 5.80636Z" fill="#EC268F" stroke="#EC268F" stroke-width="0.5"></path><path d="M3.25421 25.5752C3.25421 25.6924 3.31827 25.7999 3.42077 25.8562L4.16546 26.2627C4.85515 26.639 5.4189 27.2018 5.79577 27.8902L6.20296 28.6337C6.25921 28.7362 6.36671 28.7999 6.48359 28.7999C6.60046 28.7999 6.70796 28.7362 6.76421 28.6337L7.17171 27.8902C7.5489 27.2018 8.11234 26.639 8.80202 26.2627L9.54671 25.8562C9.64921 25.7999 9.71327 25.6924 9.71327 25.5752C9.71327 25.458 9.64921 25.3505 9.54671 25.2943L8.80202 24.8877C8.11234 24.5115 7.5489 23.9487 7.17171 23.2602L6.76421 22.5168C6.65171 22.3118 6.31546 22.3118 6.20296 22.5168L5.79577 23.2602C5.4189 23.9487 4.85515 24.5115 4.16546 24.8877L3.42077 25.2943C3.31827 25.3505 3.25421 25.458 3.25421 25.5752ZM4.47234 25.4496C5.26952 25.0143 5.92109 24.3637 6.35702 23.5677L6.48359 23.3365L6.61046 23.5677C7.0464 24.3637 7.69796 25.0143 8.49515 25.4496L8.72546 25.5752L8.49515 25.7009C7.69796 26.1362 7.0464 26.7868 6.61046 27.5827L6.48359 27.814L6.35702 27.5827C5.92109 26.7868 5.26952 26.1362 4.47234 25.7009L4.24202 25.5752L4.47234 25.4496Z" fill="#EC268F" stroke="#EC268F" stroke-width="0.5"></path><path d="M25.6864 8.68599C24.7932 8.19849 24.0632 7.46974 23.5748 6.57818L23.0557 5.63068C22.9432 5.42568 22.607 5.42568 22.4945 5.63068L21.9754 6.57818C21.487 7.46974 20.757 8.19849 19.8638 8.68599L18.9151 9.20412C18.8123 9.26037 18.7485 9.36818 18.7485 9.48505C18.7485 9.60224 18.8126 9.70974 18.9151 9.76599L19.8638 10.2838C20.757 10.7716 21.487 11.5007 21.9754 12.3919L22.4945 13.3391C22.5507 13.4416 22.6582 13.5054 22.7751 13.5054C22.892 13.5054 22.9995 13.4416 23.0557 13.3391L23.5748 12.3919C24.0632 11.5007 24.7932 10.7716 25.6864 10.2838L26.6351 9.76599C26.7376 9.70974 26.8017 9.60224 26.8017 9.48505C26.8017 9.36818 26.7379 9.26037 26.6351 9.20412L25.6864 8.68599ZM25.3795 9.72193C24.3789 10.2688 23.5607 11.0857 23.0135 12.0844L22.7751 12.5194L22.5367 12.0844C21.9895 11.0857 21.1714 10.2688 20.1707 9.72193L19.7363 9.48505L20.1707 9.24787C21.171 8.70162 21.9895 7.88474 22.5367 6.88568L22.7751 6.45037L23.0135 6.88568C23.5607 7.88474 24.3792 8.70162 25.3795 9.24787L25.8139 9.48505L25.3795 9.72193Z" fill="#EC268F" stroke="#EC268F" stroke-width="0.5"></path><path d="M28.4031 4.98827C28.4031 4.00202 27.6012 3.19983 26.6156 3.19983C25.63 3.19983 24.8281 4.00202 24.8281 4.98827C24.8281 5.9742 25.63 6.77639 26.6156 6.77639C27.6012 6.77639 28.4031 5.9742 28.4031 4.98827ZM26.6156 6.13639C25.9828 6.13639 25.4681 5.62139 25.4681 4.98827C25.4681 4.35514 25.9828 3.83983 26.6156 3.83983C27.2484 3.83983 27.7631 4.35514 27.7631 4.98827C27.7631 5.62139 27.2484 6.13639 26.6156 6.13639Z" fill="#EC268F" stroke="#EC268F" stroke-width="0.5"></path><path d="M12.8244 19.7805C11.8388 19.7805 11.0369 20.5827 11.0369 21.569C11.0369 22.5549 11.8388 23.3571 12.8244 23.3571C13.8101 23.3571 14.6119 22.5549 14.6119 21.569C14.6119 20.5827 13.8101 19.7805 12.8244 19.7805ZM12.8244 22.7171C12.1916 22.7171 11.6769 22.2021 11.6769 21.569C11.6769 20.9358 12.1916 20.4205 12.8244 20.4205C13.4572 20.4205 13.9719 20.9358 13.9719 21.569C13.9719 22.2021 13.4572 22.7171 12.8244 22.7171Z" fill="#EC268F" stroke="#EC268F" stroke-width="0.5"></path></svg>