<svg width="32" height="32" viewBox="0 0 32 32" fill="none" xmlns="http://www.w3.org/2000/svg"><path d="M22.4693 9.0697H14.5544C14.3777 9.0697 14.2344 9.21274 14.2344 9.3897C14.2344 9.56666 14.3777 9.7097 14.5544 9.7097H22.4693C22.6459 9.7097 22.7893 9.56666 22.7893 9.3897C22.7893 9.21274 22.6459 9.0697 22.4693 9.0697Z" fill="#EC268F" stroke="#EC268F" stroke-width="0.5"></path><path d="M22.4693 11.5793H14.5544C14.3777 11.5793 14.2344 11.7224 14.2344 11.8993C14.2344 12.0763 14.3777 12.2193 14.5544 12.2193H22.4693C22.6459 12.2193 22.7893 12.0763 22.7893 11.8993C22.7893 11.7224 22.6459 11.5793 22.4693 11.5793Z" fill="#EC268F" stroke="#EC268F" stroke-width="0.5"></path><path d="M12.361 9.0697H9.85125C9.67461 9.0697 9.53125 9.21274 9.53125 9.3897V11.8995C9.53125 12.0764 9.67461 12.2195 9.85125 12.2195H12.361C12.5376 12.2195 12.681 12.0764 12.681 11.8995V9.3897C12.681 9.21274 12.5376 9.0697 12.361 9.0697ZM12.041 11.5795H10.1712V9.7097H12.041V11.5795Z" fill="#EC268F" stroke="#EC268F" stroke-width="0.5"></path><path d="M22.4693 13.8252H14.5544C14.3777 13.8252 14.2344 13.9682 14.2344 14.1452C14.2344 14.3222 14.3777 14.4652 14.5544 14.4652H22.4693C22.6459 14.4652 22.7893 14.3222 22.7893 14.1452C22.7893 13.9682 22.6459 13.8252 22.4693 13.8252Z" fill="#EC268F" stroke="#EC268F" stroke-width="0.5"></path><path d="M22.4693 16.3348H14.5544C14.3777 16.3348 14.2344 16.4779 14.2344 16.6548C14.2344 16.8318 14.3777 16.9748 14.5544 16.9748H22.4693C22.6459 16.9748 22.7893 16.8318 22.7893 16.6548C22.7893 16.4779 22.6459 16.3348 22.4693 16.3348Z" fill="#EC268F" stroke="#EC268F" stroke-width="0.5"></path><path d="M12.361 13.8252H9.85125C9.67461 13.8252 9.53125 13.9682 9.53125 14.1452V16.655C9.53125 16.8319 9.67461 16.975 9.85125 16.975H12.361C12.5376 16.975 12.681 16.8319 12.681 16.655V14.1452C12.681 13.9682 12.5376 13.8252 12.361 13.8252ZM12.041 16.335H10.1712V14.4652H12.041V16.335Z" fill="#EC268F" stroke="#EC268F" stroke-width="0.5"></path><path d="M22.4693 18.5807H14.5544C14.3777 18.5807 14.2344 18.7237 14.2344 18.9007C14.2344 19.0777 14.3777 19.2207 14.5544 19.2207H22.4693C22.6459 19.2207 22.7893 19.0777 22.7893 18.9007C22.7893 18.7237 22.6459 18.5807 22.4693 18.5807Z" fill="#EC268F" stroke="#EC268F" stroke-width="0.5"></path><path d="M22.4693 21.0906H14.5544C14.3777 21.0906 14.2344 21.2336 14.2344 21.4106C14.2344 21.5875 14.3777 21.7306 14.5544 21.7306H22.4693C22.6459 21.7306 22.7893 21.5875 22.7893 21.4106C22.7893 21.2336 22.6459 21.0906 22.4693 21.0906Z" fill="#EC268F" stroke="#EC268F" stroke-width="0.5"></path><path d="M12.361 18.5807H9.85125C9.67461 18.5807 9.53125 18.7237 9.53125 18.9007V21.4105C9.53125 21.5874 9.67461 21.7305 9.85125 21.7305H12.361C12.5376 21.7305 12.681 21.5874 12.681 21.4105V18.9007C12.681 18.724 12.5376 18.5807 12.361 18.5807ZM12.041 21.0905H10.1712V19.2207H12.041V21.0905Z" fill="#EC268F" stroke="#EC268F" stroke-width="0.5"></path><path d="M28.5201 25.7598H28.2001V3.51983C28.2001 3.34287 28.0567 3.19983 27.8801 3.19983H4.20517C4.02853 3.19983 3.88517 3.34287 3.88517 3.51983V25.7598H3.56005C3.38341 25.7598 3.24005 25.9029 3.24005 26.0798V28.4798C3.24005 28.6568 3.38341 28.7998 3.56005 28.7998H28.5201C28.6967 28.7998 28.84 28.6568 28.84 28.4798V26.0798C28.84 25.9029 28.6967 25.7598 28.5201 25.7598ZM4.52517 3.83983H27.5601V25.7598H26.0941V5.67983C26.0941 5.50287 25.9508 5.35983 25.7741 5.35983H6.31109C6.13445 5.35983 5.99109 5.50287 5.99109 5.67983V25.7598H4.52517V3.83983ZM14.5316 25.7598C14.3268 25.7598 14.1601 25.5931 14.1601 25.3883V24.54C14.1601 24.3352 14.3268 24.1688 14.5316 24.1688H23.1889C23.3937 24.1688 23.5604 24.3355 23.5604 24.54V25.3883C23.5604 25.5934 23.3937 25.7598 23.1889 25.7598H14.5316ZM23.1885 23.5285H14.5316C13.9738 23.5285 13.5201 23.9822 13.5201 24.5397V25.388C13.5201 25.5195 13.5469 25.6443 13.593 25.7595H6.63109V5.99983H25.4541V25.7598H24.1271C24.1729 25.6446 24.2001 25.5198 24.2001 25.3883V24.54C24.2001 23.9822 23.7463 23.5285 23.1885 23.5285ZM28.2001 28.1598H3.88005V26.3998H28.2001V28.1598Z" fill="#EC268F" stroke="#EC268F" stroke-width="0.5"></path></svg>