<svg xmlns="http://www.w3.org/2000/svg" width="44" height="44" viewBox="0 0 44 44" fill="none"><g opacity="0.74"><path d="M35.1008 4.40015H8.80154C7.51014 4.40015 6.4603 5.44163 6.4603 6.72159V25.2843L4.4209 37.9101C4.35314 38.3303 4.47282 38.7575 4.74958 39.0827C5.02942 39.4114 5.43818 39.6001 5.87202 39.6001H38.1319C38.568 39.6001 38.9785 39.4101 39.2588 39.0783C39.5355 38.7505 39.653 38.3206 39.5813 37.8991L37.442 25.2821V6.72159C37.442 5.44163 36.3917 4.40015 35.1008 4.40015ZM7.3403 8.87363H36.562V24.8804H7.3403V8.87363ZM8.80154 5.28015H35.1008C35.9064 5.28015 36.562 5.92695 36.562 6.72159V7.99319H7.3403V6.72159C7.3403 5.92695 7.9959 5.28015 8.80154 5.28015ZM38.586 38.5107C38.4738 38.6436 38.3084 38.7201 38.1319 38.7201H5.87202C5.6969 38.7201 5.53234 38.6445 5.4197 38.5125C5.30882 38.3822 5.26306 38.2185 5.2899 38.0509L7.27518 25.7604H36.6302L38.7141 38.0465C38.7422 38.2146 38.6969 38.3796 38.586 38.5107Z" fill="#EC268F" stroke="#EC268F" stroke-width="0.5"></path><path d="M34.7766 27.6465H9.12197C8.89977 27.6465 8.71233 27.8119 8.68549 28.0328L7.76501 35.5128C7.74961 35.6378 7.78877 35.7636 7.87193 35.8582C7.95509 35.9524 8.07565 36.0065 8.20149 36.0065H35.771C35.8977 36.0065 36.0183 35.9515 36.1019 35.8564C36.1855 35.761 36.2238 35.6342 36.207 35.5084L35.2122 28.0284C35.1836 27.8102 34.997 27.6465 34.7766 27.6465ZM34.7718 31.3865H28.8225L28.5431 28.5265H34.3912L34.7718 31.3865ZM21.5467 32.2665V35.1265H15.4232L15.7026 32.2665H21.5467ZM15.7888 31.3865L16.0682 28.5265H21.5467V31.3865H15.7888ZM22.4267 32.2665H28.0244L28.3038 35.1265H22.4267V32.2665ZM22.4267 31.3865V28.5265H27.6592L27.9386 31.3865H22.4267ZM15.1843 28.5265L14.9049 31.3865H9.15937L9.51137 28.5265H15.1843ZM9.05113 32.2665H14.8186L14.5392 35.1265H8.69957L9.05113 32.2665ZM29.1882 35.1265L28.9088 32.2665H34.8888L35.2694 35.1265H29.1882Z" fill="#EC268F" stroke="#EC268F" stroke-width="0.5"></path><path d="M26.6725 13.2316C26.8027 13.042 26.7649 12.7837 26.5858 12.6394L25.6231 11.8646C25.5003 11.7651 25.334 11.7396 25.1879 11.7972C23.3659 12.5056 22.3917 11.3669 22.3442 11.3102C22.177 11.1029 21.8254 11.1038 21.6582 11.3119C21.649 11.3238 20.6669 12.5166 18.8167 11.7972C18.6697 11.74 18.5039 11.7656 18.3815 11.8646L17.4188 12.6394C17.2402 12.7833 17.2023 13.0411 17.3317 13.2308C17.5609 13.566 18.0854 14.5952 17.7708 15.3208C17.3924 16.1959 16.5049 18.2446 18.0687 20.2615C18.9082 21.3448 19.9198 21.5978 20.6585 21.7826C21.1843 21.9142 21.4888 21.9995 21.6257 22.227C21.7044 22.359 21.8474 22.44 22.0019 22.44C22.1563 22.44 22.2993 22.359 22.3785 22.227C22.5158 21.9995 22.8198 21.9142 23.3456 21.7826C24.0844 21.5978 25.0964 21.3448 25.9359 20.2611C27.4992 18.2441 26.6122 16.1955 26.2338 15.3208C25.9192 14.5956 26.4441 13.5665 26.6725 13.2316ZM25.2407 19.7225C24.5873 20.5656 23.8142 20.7587 23.1322 20.929C22.7336 21.0289 22.3253 21.1305 22.0019 21.365C21.6785 21.131 21.2701 21.0289 20.8715 20.929C20.1895 20.7587 19.4169 20.5651 18.7635 19.7225C17.667 18.3079 18.0546 16.8806 18.5782 15.671C18.994 14.7109 18.5553 13.632 18.2667 13.0869L18.741 12.7045C20.23 13.1903 21.3793 12.7054 22.0019 12.2007C22.6245 12.705 23.7746 13.1898 25.2631 12.7045L25.7375 13.0869C25.4488 13.6316 25.0101 14.7109 25.4259 15.671C25.95 16.8801 26.3376 18.3075 25.2407 19.7225Z" fill="#EC268F" stroke="#EC268F" stroke-width="0.5"></path></g></svg>