<svg width="32" height="32" viewBox="0 0 32 32" fill="none" xmlns="http://www.w3.org/2000/svg"><path d="M28.4803 28.1599H26.3778V8.58195H28.4803C28.6087 8.58195 28.7247 8.50523 28.775 8.38695C28.825 8.26882 28.7997 8.1321 28.7106 8.03976L24.1328 3.29773C24.0122 3.17273 23.7928 3.17273 23.6722 3.29773L19.0947 8.03976C19.0056 8.1321 18.9803 8.26882 19.0303 8.38695C19.0806 8.50523 19.1965 8.58195 19.325 8.58195H21.4275V28.1599H18.4756V14.2196H20.5781C20.7065 14.2196 20.8225 14.1429 20.8728 14.0246C20.9228 13.9065 20.8975 13.7698 20.8084 13.6774L16.2306 8.93539C16.11 8.81039 15.8906 8.81039 15.77 8.93539L11.1922 13.6774C11.1031 13.7698 11.0778 13.9065 11.1278 14.0246C11.1781 14.1429 11.294 14.2196 11.4225 14.2196H13.525V28.1599H10.5731V19.1046H12.6756C12.804 19.1046 12.92 19.0279 12.9703 18.9096C13.0203 18.7915 12.995 18.6548 12.9059 18.5624L8.3284 13.8204C8.26809 13.7579 8.18497 13.7226 8.09809 13.7226C8.01122 13.7226 7.92809 13.7579 7.86778 13.8204L3.28997 18.5624C3.20091 18.6548 3.17559 18.7915 3.22559 18.9096C3.27591 19.0279 3.39184 19.1046 3.52028 19.1046H5.62278V28.1599H3.52028C3.34341 28.1599 3.20028 28.3032 3.20028 28.4799C3.20028 28.6566 3.34341 28.7999 3.52028 28.7999H28.4803C28.6572 28.7999 28.8003 28.6566 28.8003 28.4799C28.8003 28.3032 28.6572 28.1599 28.4803 28.1599ZM21.7475 7.94195H20.0787L23.9025 3.9807L27.7265 7.94195H26.0578C25.8809 7.94195 25.7378 8.08523 25.7378 8.26195V28.1599H22.0675V8.26195C22.0675 8.08523 21.9243 7.94195 21.7475 7.94195ZM13.845 13.5796H12.1762L16.0003 9.61835L19.8243 13.5796H18.1556C17.9787 13.5796 17.8356 13.7229 17.8356 13.8996V28.1599H14.165V13.8996C14.165 13.7229 14.0218 13.5796 13.845 13.5796ZM5.94278 18.4646H4.27403L8.09809 14.5034L11.9218 18.4646H10.2531C10.0762 18.4646 9.93309 18.6079 9.93309 18.7846V28.1599H6.26278V18.7846C6.26278 18.6079 6.11966 18.4646 5.94278 18.4646Z" fill="#EC268F" stroke="#EC268F" stroke-width="0.5"></path></svg>