<svg width="32" height="32" viewBox="0 0 32 32" fill="none" xmlns="http://www.w3.org/2000/svg"><path d="M20.9557 7.65562H19.7013C19.0526 4.89806 16.5568 2.90906 13.7089 2.90906H9.06949C5.67254 2.90906 2.90912 5.67247 2.90912 9.06943C2.90912 11.9242 4.89764 14.4139 7.65934 15.0618C7.65837 15.1112 7.65568 15.1597 7.65568 15.2091C7.65568 19.3741 11.0441 22.7625 15.2091 22.7625H16.3915L17.7721 28.2669C17.8077 28.4092 17.9357 28.5091 18.0824 28.5091C18.2294 28.5091 18.3573 28.4092 18.3927 28.2669L19.7731 22.7625H20.9557C25.1207 22.7625 28.5091 19.3741 28.5091 15.2091C28.5091 11.044 25.1207 7.65562 20.9557 7.65562ZM3.54901 9.06943C3.54901 6.02526 6.02532 3.54895 9.06949 3.54895H13.7089C16.2101 3.54895 18.4069 5.26134 19.0409 7.65562H15.2091C11.3131 7.65562 8.09709 10.6207 7.69792 14.4124C5.27971 13.793 3.54901 11.5907 3.54901 9.06943ZM20.9557 22.1224H19.5233C19.3766 22.1224 19.2487 22.2222 19.213 22.3645L18.0824 26.8733L16.9515 22.3645C16.9159 22.2222 16.7882 22.1224 16.6412 22.1224H15.2091C11.3969 22.1224 8.29557 19.0213 8.29557 15.2091C8.29557 11.3968 11.3969 8.29551 15.2091 8.29551H20.9557C24.7677 8.29551 27.869 11.3968 27.869 15.2091C27.869 19.0213 24.7677 22.1224 20.9557 22.1224Z" fill="#EC268F" stroke="#EC268F" stroke-width="0.5"></path><path d="M13.1711 23.6418C12.1125 23.6418 11.2512 24.5029 11.2512 25.5618C11.2512 26.6206 12.1125 27.4817 13.1711 27.4817C14.2299 27.4817 15.0912 26.6206 15.0912 25.5618C15.0912 24.5029 14.2299 23.6418 13.1711 23.6418ZM13.1711 26.8418C12.4653 26.8418 11.891 26.2676 11.891 25.5618C11.891 24.8557 12.4653 24.2817 13.1711 24.2817C13.8771 24.2817 14.4511 24.8557 14.4511 25.5618C14.4511 26.2676 13.8771 26.8418 13.1711 26.8418Z" fill="#EC268F" stroke="#EC268F" stroke-width="0.5"></path><path d="M24.6573 7.42711C25.7162 7.42711 26.5773 6.56603 26.5773 5.50719C26.5773 4.44836 25.7162 3.58728 24.6573 3.58728C23.5985 3.58728 22.7374 4.44836 22.7374 5.50719C22.7374 6.56603 23.5985 7.42711 24.6573 7.42711ZM24.6573 4.22717C25.3634 4.22717 25.9374 4.80114 25.9374 5.50719C25.9374 6.213 25.3634 6.78722 24.6573 6.78722C23.9515 6.78722 23.3773 6.213 23.3773 5.50719C23.3773 4.80114 23.9515 4.22717 24.6573 4.22717Z" fill="#EC268F" stroke="#EC268F" stroke-width="0.5"></path><path d="M9.53624 24.2068L7.53942 23.9178L6.6466 22.1158C6.53845 21.8983 6.18103 21.8983 6.07287 22.1158L5.18006 23.9178L3.18324 24.2068C3.06239 24.2239 2.96229 24.3086 2.92469 24.4246C2.8871 24.5408 2.91883 24.668 3.00624 24.753L4.45032 26.1553L4.10975 28.1346C4.089 28.2547 4.13807 28.3758 4.23646 28.4478C4.29261 28.4883 4.35853 28.5091 4.42493 28.5091C4.47596 28.5091 4.52698 28.4969 4.57337 28.4724L6.35974 27.5371L8.14635 28.4724C8.25377 28.5286 8.38414 28.5193 8.48302 28.4478C8.58165 28.3758 8.63073 28.2547 8.60997 28.1346L8.26915 26.1548L9.713 24.753C9.80064 24.668 9.83214 24.5408 9.79478 24.4246C9.75719 24.3086 9.65684 24.2239 9.53624 24.2068ZM7.70226 25.8133C7.62633 25.887 7.59167 25.9935 7.60973 26.0975L7.86925 27.6053L6.50818 26.8924C6.46154 26.868 6.41052 26.8558 6.35974 26.8558C6.30871 26.8558 6.25769 26.868 6.2113 26.8924L4.85022 27.6053L5.10974 26.0975C5.12757 25.9935 5.09314 25.887 5.01721 25.8133L3.91883 24.7469L5.43811 24.5269C5.54211 24.5118 5.6322 24.4466 5.67908 24.3523L6.35974 22.9786L7.0404 24.3523C7.08727 24.4466 7.17712 24.5118 7.28112 24.5269L8.80065 24.7469L7.70226 25.8133Z" fill="#EC268F" stroke="#EC268F" stroke-width="0.5"></path><path d="M5.62872 17.1256C5.45196 17.1256 5.30865 17.2687 5.30865 17.4457V18.149H4.59625C4.41949 18.149 4.27618 18.2921 4.27618 18.4691C4.27618 18.6459 4.41949 18.7889 4.59625 18.7889H5.30865V19.4925C5.30865 19.6693 5.45196 19.8124 5.62872 19.8124C5.80572 19.8124 5.94878 19.6693 5.94878 19.4925V18.7889H6.66118C6.83819 18.7889 6.98125 18.6459 6.98125 18.4691C6.98125 18.2921 6.83819 18.149 6.66118 18.149H5.94878V17.4457C5.94878 17.2687 5.80572 17.1256 5.62872 17.1256Z" fill="#EC268F" stroke="#EC268F" stroke-width="0.5"></path><path d="M24.9952 24.9033H24.2828V24.2002C24.2828 24.0232 24.1397 23.8801 23.9627 23.8801C23.7859 23.8801 23.6426 24.0232 23.6426 24.2002V24.9033H22.9302C22.7535 24.9033 22.6102 25.0464 22.6102 25.2234C22.6102 25.4001 22.7535 25.5432 22.9302 25.5432H23.6426V26.2468C23.6426 26.4236 23.7859 26.5666 23.9627 26.5666C24.1397 26.5666 24.2828 26.4236 24.2828 26.2468V25.5432H24.9952C25.1722 25.5432 25.3152 25.4001 25.3152 25.2234C25.3152 25.0464 25.1722 24.9033 24.9952 24.9033Z" fill="#EC268F" stroke="#EC268F" stroke-width="0.5"></path></svg>