<svg xmlns="http://www.w3.org/2000/svg" width="44" height="44" viewBox="0 0 44 44" fill="none"><path d="M30.1467 13.1612C28.3132 13.1612 26.822 14.6484 26.822 16.4766C26.822 18.3044 28.3136 19.7916 30.1467 19.7916C31.9797 19.7916 33.4713 18.3044 33.4713 16.4766C33.4713 14.6484 31.9797 13.1612 30.1467 13.1612ZM30.1467 18.912C28.7989 18.912 27.702 17.8199 27.702 16.4771C27.702 15.1342 28.7989 14.0417 30.1467 14.0417C31.4944 14.0417 32.5913 15.1342 32.5913 16.4771C32.5913 17.8199 31.4944 18.912 30.1467 18.912Z" fill="#EC268F"></path><path d="M24.5116 13.4692H19.3486C19.1057 13.4692 18.9086 13.6658 18.9086 13.9092V19.0721C18.9086 19.3154 19.1057 19.5121 19.3486 19.5121H24.5116C24.7545 19.5121 24.9516 19.3154 24.9516 19.0721V13.9092C24.9516 13.6658 24.7545 13.4692 24.5116 13.4692ZM24.0716 18.6321H19.7886V14.3492H24.0716V18.6321Z" fill="#EC268F"></path><path d="M15.514 13.4683C15.4352 13.3319 15.29 13.2483 15.133 13.2483H11.8968C11.7397 13.2483 11.594 13.3319 11.5157 13.4683L9.89784 16.2707C9.81952 16.4071 9.81952 16.5743 9.89784 16.7107L11.5157 19.5135C11.5945 19.6499 11.7397 19.7335 11.8968 19.7335H15.133C15.29 19.7335 15.4357 19.6499 15.514 19.5135L17.1323 16.7107C17.2107 16.5743 17.2107 16.4071 17.1323 16.2707L15.514 13.4683ZM14.8791 18.8535H12.1506L10.7866 16.4907L12.1506 14.1283H14.8791L16.2431 16.4907L14.8791 18.8535Z" fill="#EC268F"></path><path d="M34.6989 4H8.40008C7.10868 4 6.0584 5.04148 6.0584 6.32144V24.8842L4.01855 37.5104C3.95079 37.9306 4.07047 38.3578 4.34724 38.6826C4.62752 39.0112 5.03628 39.2 5.47012 39.2H37.7301C38.1657 39.2 38.5762 39.0099 38.8565 38.6786C39.1332 38.3508 39.2512 37.9205 39.1794 37.4985L37.0402 24.8828V6.32144C37.0402 5.04148 35.9899 4 34.6989 4ZM6.9384 8.47348H36.1606V24.4798H6.9384V8.47348ZM8.40008 4.88H34.6989C35.505 4.88 36.1606 5.5268 36.1606 6.32144V7.59348H6.9384V6.32144C6.9384 5.5268 7.594 4.88 8.40008 4.88ZM38.1842 38.1106C38.072 38.2434 37.9065 38.32 37.7301 38.32H5.47012C5.295 38.32 5.13 38.2443 5.0178 38.1123C4.90692 37.9821 4.86072 37.818 4.888 37.6503L6.87328 25.3594H36.2288L38.3122 37.6455C38.3404 37.8144 38.295 37.9794 38.1842 38.1106Z" fill="#EC268F"></path><path d="M34.3764 27.2465H8.72172C8.49952 27.2465 8.31208 27.4124 8.2848 27.6328L7.36432 35.1128C7.34892 35.2378 7.38808 35.3636 7.47168 35.4578C7.55528 35.5524 7.67496 35.6065 7.80124 35.6065H35.3708C35.4975 35.6065 35.6181 35.5519 35.7017 35.4564C35.7853 35.361 35.8236 35.2342 35.8069 35.1084L34.812 27.6284C34.7834 27.4097 34.5973 27.2465 34.3764 27.2465ZM34.3716 30.9865H28.4223L28.1429 28.1265H33.9914L34.3716 30.9865ZM21.1465 31.8665V34.7265H15.023L15.3024 31.8665H21.1465ZM15.3886 30.9865L15.668 28.1265H21.1465V30.9865H15.3886ZM22.0265 31.8665H27.6242L27.9036 34.7265H22.0265V31.8665ZM22.0265 30.9865V28.1265H27.2585L27.5379 30.9865H22.0265ZM14.7836 28.1265L14.5042 30.9865H8.75912L9.11112 28.1265H14.7836ZM8.65088 31.8665H14.4184L14.139 34.7265H8.29888L8.65088 31.8665ZM28.788 34.7265L28.5086 31.8665H34.4886L34.8692 34.7265H28.788Z" fill="#EC268F"></path><path d="M30.1467 13.1612C28.3132 13.1612 26.822 14.6484 26.822 16.4766C26.822 18.3044 28.3136 19.7916 30.1467 19.7916C31.9797 19.7916 33.4713 18.3044 33.4713 16.4766C33.4713 14.6484 31.9797 13.1612 30.1467 13.1612ZM30.1467 18.912C28.7989 18.912 27.702 17.8199 27.702 16.4771C27.702 15.1342 28.7989 14.0417 30.1467 14.0417C31.4944 14.0417 32.5913 15.1342 32.5913 16.4771C32.5913 17.8199 31.4944 18.912 30.1467 18.912Z" stroke="#EC268F" stroke-width="0.5"></path><path d="M24.5116 13.4692H19.3486C19.1057 13.4692 18.9086 13.6658 18.9086 13.9092V19.0721C18.9086 19.3154 19.1057 19.5121 19.3486 19.5121H24.5116C24.7545 19.5121 24.9516 19.3154 24.9516 19.0721V13.9092C24.9516 13.6658 24.7545 13.4692 24.5116 13.4692ZM24.0716 18.6321H19.7886V14.3492H24.0716V18.6321Z" stroke="#EC268F" stroke-width="0.5"></path><path d="M15.514 13.4683C15.4352 13.3319 15.29 13.2483 15.133 13.2483H11.8968C11.7397 13.2483 11.594 13.3319 11.5157 13.4683L9.89784 16.2707C9.81952 16.4071 9.81952 16.5743 9.89784 16.7107L11.5157 19.5135C11.5945 19.6499 11.7397 19.7335 11.8968 19.7335H15.133C15.29 19.7335 15.4357 19.6499 15.514 19.5135L17.1323 16.7107C17.2107 16.5743 17.2107 16.4071 17.1323 16.2707L15.514 13.4683ZM14.8791 18.8535H12.1506L10.7866 16.4907L12.1506 14.1283H14.8791L16.2431 16.4907L14.8791 18.8535Z" stroke="#EC268F" stroke-width="0.5"></path><path d="M34.6989 4H8.40008C7.10868 4 6.0584 5.04148 6.0584 6.32144V24.8842L4.01855 37.5104C3.95079 37.9306 4.07047 38.3578 4.34724 38.6826C4.62752 39.0112 5.03628 39.2 5.47012 39.2H37.7301C38.1657 39.2 38.5762 39.0099 38.8565 38.6786C39.1332 38.3508 39.2512 37.9205 39.1794 37.4985L37.0402 24.8828V6.32144C37.0402 5.04148 35.9899 4 34.6989 4ZM6.9384 8.47348H36.1606V24.4798H6.9384V8.47348ZM8.40008 4.88H34.6989C35.505 4.88 36.1606 5.5268 36.1606 6.32144V7.59348H6.9384V6.32144C6.9384 5.5268 7.594 4.88 8.40008 4.88ZM38.1842 38.1106C38.072 38.2434 37.9065 38.32 37.7301 38.32H5.47012C5.295 38.32 5.13 38.2443 5.0178 38.1123C4.90692 37.9821 4.86072 37.818 4.888 37.6503L6.87328 25.3594H36.2288L38.3122 37.6455C38.3404 37.8144 38.295 37.9794 38.1842 38.1106Z" stroke="#EC268F" stroke-width="0.5"></path><path d="M34.3764 27.2465H8.72172C8.49952 27.2465 8.31208 27.4124 8.2848 27.6328L7.36432 35.1128C7.34892 35.2378 7.38808 35.3636 7.47168 35.4578C7.55528 35.5524 7.67496 35.6065 7.80124 35.6065H35.3708C35.4975 35.6065 35.6181 35.5519 35.7017 35.4564C35.7853 35.361 35.8236 35.2342 35.8069 35.1084L34.812 27.6284C34.7834 27.4097 34.5973 27.2465 34.3764 27.2465ZM34.3716 30.9865H28.4223L28.1429 28.1265H33.9914L34.3716 30.9865ZM21.1465 31.8665V34.7265H15.023L15.3024 31.8665H21.1465ZM15.3886 30.9865L15.668 28.1265H21.1465V30.9865H15.3886ZM22.0265 31.8665H27.6242L27.9036 34.7265H22.0265V31.8665ZM22.0265 30.9865V28.1265H27.2585L27.5379 30.9865H22.0265ZM14.7836 28.1265L14.5042 30.9865H8.75912L9.11112 28.1265H14.7836ZM8.65088 31.8665H14.4184L14.139 34.7265H8.29888L8.65088 31.8665ZM28.788 34.7265L28.5086 31.8665H34.4886L34.8692 34.7265H28.788Z" stroke="#EC268F" stroke-width="0.5"></path></svg>