  <svg class="w-[37px] h-[40px] flex-shrink-0" viewBox="0 0 37 40" fill="none"
                                xmlns="http://www.w3.org/2000/svg">
                                <path
                                    d="M18.0773 40C10.1776 40 1.24556 24.8986 0.250784 23.1766L0 22.7335L1.22466 5.08673L18.0773 0L34.93 5.08673L36.1546 22.7335L35.8997 23.1766C34.9133 24.8986 25.977 40 18.0773 40ZM3.40648 21.9436C6.87565 27.8161 13.6844 36.6562 18.0773 36.6562C22.4744 36.6562 29.2832 27.8119 32.7482 21.9436L31.7576 7.61964L18.0773 3.49007L4.40125 7.61964L3.40648 21.9436Z"
                                    fill="white" />
                                <path
                                    d="M17.6569 24.574C20.5369 24.574 22.2649 22.9 22.2649 19.804V11.65H19.3669V19.984C19.3669 21.226 18.8089 22.072 17.6569 22.072C16.5229 22.072 15.9829 21.208 15.9829 19.912H13.0669C13.0669 22.612 14.6149 24.574 17.6569 24.574Z"
                                    fill="#161616" />
                            </svg>