<svg class="courses-icon" width="37" height="40" viewBox="0 0 37 40" fill="none" xmlns="http://www.w3.org/2000/svg"><path d="M18.0773 40C10.1776 40 1.24556 24.8986 0.250784 23.1766L0 22.7335L1.22466 5.08673L18.0773 0L34.93 5.08673L36.1546 22.7335L35.8997 23.1766C34.9133 24.8986 25.977 40 18.0773 40ZM3.40648 21.9436C6.87565 27.8161 13.6844 36.6562 18.0773 36.6562C22.4744 36.6562 29.2832 27.8119 32.7482 21.9436L31.7576 7.61964L18.0773 3.49007L4.40125 7.61964L3.40648 21.9436Z" fill=" #FFD549 "></path><path d="M16.545 24.25H19.443V14.242H22.917V11.65H13.089V14.242H16.545V24.25Z" fill="#161616"></path></svg>