<svg xmlns:xlink="http://www.w3.org/1999/xlink" width="36" height="36" viewBox="0 0 36 36" fill="none" xmlns="http://www.w3.org/2000/svg" class="features__icon features__icon--building"><path d="M35.6001 29.7078C35.6001 28.3126 34.4654 27.1778 33.0701 27.1778C31.6749 27.1778 30.5401 28.3126 30.5401 29.7078C30.5401 30.9526 31.4443 31.9879 32.6301 32.1969V34.7198H29.7477V7.21984C29.7477 6.97652 29.551 6.77984 29.3077 6.77984H18.2976V4.6806H22.6703C22.9136 4.6806 23.1103 4.48392 23.1103 4.2406V0.839841C23.1103 0.596521 22.9136 0.399841 22.6703 0.399841H17.8576C17.6143 0.399841 17.4176 0.596521 17.4176 0.839841V6.77984H6.69259C6.44927 6.77984 6.25259 6.97652 6.25259 7.21984V34.7198H3.42515V32.1969C4.61095 31.9879 5.51515 30.9526 5.51515 29.7078C5.51515 28.3126 4.38039 27.1778 2.98515 27.1778C1.58991 27.1778 0.455146 28.3126 0.455146 29.7078C0.455146 30.9526 1.35935 31.9879 2.54515 32.1969V34.7198H0.840146C0.596826 34.7198 0.400146 34.9165 0.400146 35.1598C0.400146 35.4032 0.596826 35.5998 0.840146 35.5998H35.1601C35.4035 35.5998 35.6001 35.4032 35.6001 35.1598C35.6001 34.9165 35.4035 34.7198 35.1601 34.7198H33.5101V32.1969C34.6959 31.9879 35.6001 30.953 35.6001 29.7078ZM22.2299 3.8006H18.2971V1.27984H22.2299V3.8006ZM1.33515 29.7078C1.33515 28.7983 2.07567 28.0578 2.98515 28.0578C3.89463 28.0578 4.63515 28.7983 4.63515 29.7078C4.63515 30.6173 3.89463 31.3578 2.98515 31.3578C2.07567 31.3578 1.33515 30.6177 1.33515 29.7078ZM28.8677 16.0427H25.4089V11.5745H28.8677V16.0427ZM24.5289 16.0427H20.8346V11.5745H24.5289V16.0427ZM19.9542 16.0427H16.2599V11.5745H19.9542V16.0427ZM15.3799 16.0427H11.6853V11.5745H15.3799V16.0427ZM10.8048 16.0427H7.13215V11.5745H10.8048V16.0427ZM7.13259 16.9227H10.8053V21.3254H7.13259V16.9227ZM11.6848 16.9227H15.3795V21.3254H11.6848V16.9227ZM16.2599 16.9227H19.9542V21.3254H16.2599V16.9227ZM20.8342 16.9227H24.5284V21.3254H20.8342V16.9227ZM25.4089 16.9227H28.8677V21.3254H25.4089V16.9227ZM28.8677 7.65984V10.6945H7.13259V7.65984H28.8677ZM7.13259 22.2054H28.8677V34.7198H22.2092V25.8354C22.2092 25.592 22.0125 25.3954 21.7692 25.3954H14.2311C13.9878 25.3954 13.7911 25.592 13.7911 25.8354V34.7198H7.13259V22.2054ZM18.4819 26.2754H21.3296V34.7198H18.4819V26.2754ZM17.6019 34.7198H14.6711V26.2754H17.6019V34.7198ZM31.4201 29.7078C31.4201 28.7983 32.1607 28.0578 33.0701 28.0578C33.9796 28.0578 34.7201 28.7983 34.7201 29.7078C34.7201 30.6173 33.9796 31.3578 33.0701 31.3578C32.1607 31.3578 31.4201 30.6177 31.4201 29.7078Z" fill="#EC268F" stroke="#EC268F" stroke-width="0.5px"></path></svg>