<svg xmlns:xlink="http://www.w3.org/1999/xlink" width="44" height="45" viewBox="0 0 44 45" fill="none" xmlns="http://www.w3.org/2000/svg"><path d="M20.4391 12.327C19.475 11.943 15.3427 10.6937 10.8024 15.2274C10.6919 15.3373 10.6485 15.4971 10.6876 15.6478C10.7267 15.7982 10.8428 15.9167 10.9927 15.9593L17.356 17.7698L18.2095 18.6219L16.2014 20.6267C16.0295 20.7979 16.0295 21.0756 16.2014 21.2468L22.9277 27.9622C23.0102 28.0447 23.1219 28.091 23.2388 28.091C23.3557 28.091 23.4674 28.0447 23.5499 27.9622L25.5573 25.9581L26.3791 26.7786L28.1927 33.132C28.2356 33.2816 28.3542 33.3975 28.5055 33.4365C28.542 33.4462 28.579 33.4507 28.6159 33.4507C28.7311 33.4507 28.8437 33.4054 28.927 33.3219C33.4026 28.8538 32.2512 24.7816 31.8487 23.744C40.9276 16.0274 39.5174 5.2001 39.4995 5.07513C39.4715 4.88229 39.3199 4.73059 39.1261 4.70295C39.0018 4.68527 28.1676 3.27831 20.4391 12.327ZM19.8527 13.0476C18.9707 14.1667 18.1362 15.4305 17.3703 16.8614L11.9745 15.3261C15.5858 12.0806 18.7558 12.6882 19.8527 13.0476ZM23.2388 27.0312L17.1342 20.9368L18.8311 19.2426L24.9356 25.3374L23.2388 27.0312ZM28.8278 32.1511L27.302 26.806C28.7339 26.0436 29.9985 25.2125 31.1191 24.3343C31.4676 25.4721 32.0005 28.6243 28.8278 32.1511ZM38.6633 5.53774C38.7467 6.51223 38.8777 9.47834 37.8533 13.0048C36.7194 16.9068 33.8955 22.3115 26.8843 26.0415L18.1264 17.2972C24.6864 5.00249 36.5153 5.36225 38.6633 5.53774Z" fill="#EC268F"></path><path d="M32.2535 15.4311C33.1889 15.4311 34.0676 15.0675 34.7289 14.4076C34.7285 14.4076 34.7289 14.4073 34.7289 14.4076C36.0927 13.0452 36.0932 10.8286 34.7289 9.46611C34.0676 8.80616 33.1889 8.44255 32.2535 8.44255C31.3185 8.44255 30.4398 8.80616 29.7781 9.46632C28.4142 10.8286 28.4142 13.045 29.7785 14.4076C30.4398 15.0675 31.3185 15.4311 32.2535 15.4311ZM30.4007 10.0866C30.8957 9.59231 31.554 9.32019 32.2535 9.32019C32.9535 9.32019 33.6117 9.59231 34.1063 10.0864C35.1281 11.1068 35.1281 12.7669 34.1067 13.787C33.6117 14.2813 32.9535 14.5535 32.2535 14.5535C31.554 14.5535 30.8957 14.2813 30.4011 13.7872C29.3793 12.7669 29.3793 11.1068 30.4007 10.0866Z" fill="#EC268F"></path><path d="M15.989 33.7853L10.8022 38.9583C10.6304 39.1298 10.6304 39.4074 10.8022 39.5789C10.8882 39.6646 11.0008 39.7074 11.1133 39.7074C11.2259 39.7074 11.3385 39.6646 11.4244 39.5789L16.6112 34.4058C16.7831 34.2344 16.7831 33.9567 16.6112 33.7853C16.4393 33.6139 16.1609 33.6139 15.989 33.7853Z" fill="#EC268F"></path><path d="M4.8399 39.7074C4.95248 39.7074 5.06506 39.6645 5.151 39.5788L17.1603 27.6016C17.3322 27.4302 17.3322 27.1525 17.1603 26.9811C16.9885 26.8097 16.71 26.8097 16.5381 26.9811L4.52881 38.9583C4.35693 39.1297 4.35693 39.4074 4.52881 39.5788C4.61475 39.6645 4.72732 39.7074 4.8399 39.7074Z" fill="#EC268F"></path><path d="M4.52909 33.3216C4.61503 33.4073 4.72761 33.4502 4.84019 33.4502C4.95277 33.4502 5.06534 33.4073 5.15128 33.3216L10.3376 28.1489C10.5095 27.9775 10.5095 27.6998 10.3376 27.5284C10.1657 27.357 9.8873 27.357 9.71542 27.5284L4.52909 32.7011C4.35722 32.8725 4.35722 33.1502 4.52909 33.3216Z" fill="#EC268F"></path><path d="M18.3681 36.7634C18.4343 36.9169 18.5821 37.0195 18.7492 37.0283L21.4808 37.1723L22.9129 39.4981C22.9937 39.6288 23.1359 39.7073 23.288 39.7073C23.3014 39.7073 23.3151 39.7066 23.3289 39.7053C23.4956 39.6899 23.6391 39.5815 23.6988 39.4255L24.6764 36.8798L27.334 36.2428C27.4968 36.2038 27.6236 36.0758 27.6605 35.913C27.6975 35.7499 27.6382 35.5802 27.508 35.475L25.3806 33.7572L25.5912 31.038C25.6041 30.8715 25.5211 30.7121 25.3772 30.6268C25.2332 30.5413 25.0541 30.5449 24.9127 30.636L22.6212 32.1205L20.0929 31.077C19.9378 31.0129 19.7603 31.0423 19.634 31.1526C19.5081 31.263 19.4561 31.435 19.4995 31.5964L20.2102 34.2314L18.4377 36.3053C18.329 36.4326 18.3019 36.61 18.3681 36.7634ZM21.03 34.625C21.1241 34.5149 21.1576 34.3658 21.1203 34.2263L20.5814 32.2284L22.4983 33.0195C22.6315 33.0748 22.7844 33.0607 22.9065 32.9822L24.6454 31.8558L24.4856 33.9195C24.4744 34.0634 24.535 34.2036 24.6476 34.2944L26.2611 35.5974L24.2458 36.0806C24.1049 36.1142 23.9893 36.2151 23.9377 36.3501L23.1961 38.2809L22.1098 36.5166C22.0338 36.3936 21.9023 36.3156 21.7579 36.3081L19.6851 36.1988L21.03 34.625Z" fill="#EC268F"></path><path d="M4.43601 10.7999C4.50218 10.9533 4.64999 11.056 4.81714 11.0648L7.54824 11.2088L8.98124 13.5346C9.0616 13.6653 9.20382 13.7438 9.35593 13.7438C9.36925 13.7438 9.383 13.7431 9.39675 13.7418C9.56347 13.7264 9.70699 13.6178 9.76671 13.4618L10.7443 10.9163L13.4014 10.2793C13.5643 10.2403 13.691 10.1123 13.728 9.9495C13.765 9.78644 13.7057 9.61674 13.5755 9.51154L11.4485 7.79375L11.6586 5.07425C11.6715 4.90777 11.5886 4.74856 11.4446 4.66329C11.3007 4.57822 11.1215 4.58122 10.9802 4.6725L8.68863 6.15695L6.16078 5.11346C6.00566 5.0494 5.8282 5.07875 5.70187 5.1891C5.57597 5.29945 5.52398 5.47129 5.56738 5.63285L6.27765 8.26771L4.50562 10.342C4.39691 10.4691 4.36984 10.6465 4.43601 10.7999ZM7.09749 8.66132C7.1916 8.5514 7.22511 8.40227 7.18773 8.26278L6.6489 6.26494L8.56574 7.05602C8.69894 7.11109 8.85191 7.09695 8.97394 7.01874L10.7129 5.89233L10.5535 7.95616C10.5423 8.09994 10.6029 8.24007 10.7155 8.33092L12.3285 9.63388L10.3133 10.1171C10.1723 10.1507 10.0568 10.2516 10.0052 10.3868L9.26398 12.3174L8.17687 10.5531C8.10124 10.4301 7.96976 10.3521 7.82539 10.3446L5.753 10.2353L7.09749 8.66132Z" fill="#EC268F"></path><path d="M36.3622 31.1871C34.5769 31.1871 33.1245 32.6336 33.1245 34.4118C33.1245 36.19 34.5769 37.6367 36.3622 37.6367C38.1476 37.6367 39.5999 36.19 39.5999 34.4118C39.5999 32.6336 38.1476 31.1871 36.3622 31.1871ZM36.3622 36.7591C35.062 36.7591 34.0045 35.7062 34.0045 34.4118C34.0045 33.1176 35.062 32.0647 36.3622 32.0647C37.6624 32.0647 38.7199 33.1176 38.7199 34.4118C38.7199 35.7062 37.6624 36.7591 36.3622 36.7591Z" fill="#EC268F"></path><path d="M12.7039 21.4818C12.7039 19.7035 11.2511 18.2568 9.46574 18.2568C7.68039 18.2568 6.22805 19.7035 6.22805 21.4818C6.22805 23.26 7.68039 24.7065 9.46574 24.7065C11.2511 24.7065 12.7039 23.26 12.7039 21.4818ZM9.46574 23.8288C8.16551 23.8288 7.10805 22.7759 7.10805 21.4818C7.10805 20.1874 8.16551 19.1345 9.46574 19.1345C10.766 19.1345 11.8239 20.1874 11.8239 21.4818C11.8239 22.7759 10.766 23.8288 9.46574 23.8288Z" fill="#EC268F"></path><path d="M34.7289 14.4076C34.0676 15.0675 33.1889 15.4311 32.2535 15.4311C31.3185 15.4311 30.4398 15.0675 29.7785 14.4076C28.4142 13.045 28.4142 10.8286 29.7781 9.46632C30.4398 8.80616 31.3185 8.44255 32.2535 8.44255C33.1889 8.44255 34.0676 8.80616 34.7289 9.46611C36.0932 10.8286 36.0927 13.0452 34.7289 14.4076ZM34.7289 14.4076C34.7289 14.4073 34.7285 14.4076 34.7289 14.4076ZM20.4391 12.327C19.475 11.943 15.3427 10.6937 10.8024 15.2274C10.6919 15.3373 10.6485 15.4971 10.6876 15.6478C10.7267 15.7982 10.8428 15.9167 10.9927 15.9593L17.356 17.7698L18.2095 18.6219L16.2014 20.6267C16.0295 20.7979 16.0295 21.0756 16.2014 21.2468L22.9277 27.9622C23.0102 28.0447 23.1219 28.091 23.2388 28.091C23.3557 28.091 23.4674 28.0447 23.5499 27.9622L25.5573 25.9581L26.3791 26.7786L28.1927 33.132C28.2356 33.2816 28.3542 33.3975 28.5055 33.4365C28.542 33.4462 28.579 33.4507 28.6159 33.4507C28.7311 33.4507 28.8437 33.4054 28.927 33.3219C33.4026 28.8538 32.2512 24.7816 31.8487 23.744C40.9276 16.0274 39.5174 5.2001 39.4995 5.07513C39.4715 4.88229 39.3199 4.73059 39.1261 4.70295C39.0018 4.68527 28.1676 3.27831 20.4391 12.327ZM19.8527 13.0476C18.9707 14.1667 18.1362 15.4305 17.3703 16.8614L11.9745 15.3261C15.5858 12.0806 18.7558 12.6882 19.8527 13.0476ZM23.2388 27.0312L17.1342 20.9368L18.8311 19.2426L24.9356 25.3374L23.2388 27.0312ZM28.8278 32.1511L27.302 26.806C28.7339 26.0436 29.9985 25.2125 31.1191 24.3343C31.4676 25.4721 32.0005 28.6243 28.8278 32.1511ZM38.6633 5.53774C38.7467 6.51223 38.8777 9.47834 37.8533 13.0048C36.7194 16.9068 33.8955 22.3115 26.8843 26.0415L18.1264 17.2972C24.6864 5.00249 36.5153 5.36225 38.6633 5.53774ZM30.4007 10.0866C30.8957 9.59231 31.554 9.32019 32.2535 9.32019C32.9535 9.32019 33.6117 9.59231 34.1063 10.0864C35.1281 11.1068 35.1281 12.7669 34.1067 13.787C33.6117 14.2813 32.9535 14.5535 32.2535 14.5535C31.554 14.5535 30.8957 14.2813 30.4011 13.7872C29.3793 12.7669 29.3793 11.1068 30.4007 10.0866ZM15.989 33.7853L10.8022 38.9583C10.6304 39.1298 10.6304 39.4074 10.8022 39.5789C10.8882 39.6646 11.0008 39.7074 11.1133 39.7074C11.2259 39.7074 11.3385 39.6646 11.4244 39.5789L16.6112 34.4058C16.7831 34.2344 16.7831 33.9567 16.6112 33.7853C16.4393 33.6139 16.1609 33.6139 15.989 33.7853ZM4.8399 39.7074C4.95248 39.7074 5.06506 39.6645 5.151 39.5788L17.1603 27.6016C17.3322 27.4302 17.3322 27.1525 17.1603 26.9811C16.9885 26.8097 16.71 26.8097 16.5381 26.9811L4.52881 38.9583C4.35693 39.1297 4.35693 39.4074 4.52881 39.5788C4.61475 39.6645 4.72732 39.7074 4.8399 39.7074ZM4.52909 33.3216C4.61503 33.4073 4.72761 33.4502 4.84019 33.4502C4.95277 33.4502 5.06534 33.4073 5.15128 33.3216L10.3376 28.1489C10.5095 27.9775 10.5095 27.6998 10.3376 27.5284C10.1657 27.357 9.8873 27.357 9.71542 27.5284L4.52909 32.7011C4.35722 32.8725 4.35722 33.1502 4.52909 33.3216ZM18.3681 36.7634C18.4343 36.9169 18.5821 37.0195 18.7492 37.0283L21.4808 37.1723L22.9129 39.4981C22.9937 39.6288 23.1359 39.7073 23.288 39.7073C23.3014 39.7073 23.3151 39.7066 23.3289 39.7053C23.4956 39.6899 23.6391 39.5815 23.6988 39.4255L24.6764 36.8798L27.334 36.2428C27.4968 36.2038 27.6236 36.0758 27.6605 35.913C27.6975 35.7499 27.6382 35.5802 27.508 35.475L25.3806 33.7572L25.5912 31.038C25.6041 30.8715 25.5211 30.7121 25.3772 30.6268C25.2332 30.5413 25.0541 30.5449 24.9127 30.636L22.6212 32.1205L20.0929 31.077C19.9378 31.0129 19.7603 31.0423 19.634 31.1526C19.5081 31.263 19.4561 31.435 19.4995 31.5964L20.2102 34.2314L18.4377 36.3053C18.329 36.4326 18.3019 36.61 18.3681 36.7634ZM21.03 34.625C21.1241 34.5149 21.1577 34.3658 21.1203 34.2263L20.5814 32.2284L22.4983 33.0195C22.6315 33.0748 22.7844 33.0607 22.9065 32.9822L24.6454 31.8558L24.4856 33.9195C24.4744 34.0634 24.535 34.2036 24.6476 34.2944L26.2611 35.5974L24.2458 36.0806C24.1049 36.1142 23.9893 36.2151 23.9377 36.3501L23.1961 38.2809L22.1098 36.5166C22.0338 36.3936 21.9023 36.3156 21.7579 36.3081L19.6851 36.1988L21.03 34.625ZM4.43601 10.7999C4.50218 10.9533 4.64999 11.056 4.81714 11.0648L7.54824 11.2088L8.98124 13.5346C9.0616 13.6653 9.20382 13.7438 9.35593 13.7438C9.36925 13.7438 9.383 13.7431 9.39675 13.7418C9.56347 13.7264 9.70699 13.6178 9.76671 13.4618L10.7443 10.9163L13.4014 10.2793C13.5643 10.2403 13.691 10.1123 13.728 9.9495C13.765 9.78644 13.7057 9.61674 13.5755 9.51154L11.4485 7.79375L11.6586 5.07425C11.6715 4.90777 11.5886 4.74856 11.4446 4.66329C11.3007 4.57822 11.1215 4.58122 10.9802 4.6725L8.68863 6.15695L6.16078 5.11346C6.00566 5.0494 5.8282 5.07875 5.70187 5.1891C5.57597 5.29945 5.52398 5.47129 5.56738 5.63285L6.27765 8.26771L4.50562 10.342C4.39691 10.4691 4.36984 10.6465 4.43601 10.7999ZM7.09749 8.66132C7.1916 8.5514 7.22511 8.40227 7.18773 8.26278L6.6489 6.26494L8.56574 7.05602C8.69894 7.11109 8.85191 7.09695 8.97394 7.01874L10.7129 5.89233L10.5535 7.95616C10.5423 8.09994 10.6029 8.24007 10.7155 8.33092L12.3285 9.63388L10.3133 10.1171C10.1723 10.1507 10.0568 10.2516 10.0052 10.3868L9.26398 12.3174L8.17687 10.5531C8.10124 10.4301 7.96976 10.3521 7.82539 10.3446L5.753 10.2353L7.09749 8.66132ZM36.3622 31.1871C34.5769 31.1871 33.1245 32.6336 33.1245 34.4118C33.1245 36.19 34.5769 37.6367 36.3622 37.6367C38.1476 37.6367 39.5999 36.19 39.5999 34.4118C39.5999 32.6336 38.1476 31.1871 36.3622 31.1871ZM36.3622 36.7591C35.062 36.7591 34.0045 35.7062 34.0045 34.4118C34.0045 33.1176 35.062 32.0647 36.3622 32.0647C37.6624 32.0647 38.7199 33.1176 38.7199 34.4118C38.7199 35.7062 37.6624 36.7591 36.3622 36.7591ZM12.7039 21.4818C12.7039 19.7035 11.2511 18.2568 9.46574 18.2568C7.68039 18.2568 6.22805 19.7035 6.22805 21.4818C6.22805 23.26 7.68039 24.7065 9.46574 24.7065C11.2511 24.7065 12.7039 23.26 12.7039 21.4818ZM9.46574 23.8288C8.16551 23.8288 7.10805 22.7759 7.10805 21.4818C7.10805 20.1874 8.16551 19.1345 9.46574 19.1345C10.766 19.1345 11.8239 20.1874 11.8239 21.4818C11.8239 22.7759 10.766 23.8288 9.46574 23.8288Z" stroke="#EC268F" stroke-width="0.5px" fill="none"></path></svg>