<svg xmlns:xlink="http://www.w3.org/1999/xlink" width="44" height="45" viewBox="0 0 44 45" fill="none" xmlns="http://www.w3.org/2000/svg"><path d="M28.814 10.7118H27.0892C26.1973 6.93031 22.7655 4.20276 18.8497 4.20276H12.4705C7.7997 4.20276 4 7.99228 4 12.6506C4 16.5653 6.73421 19.9795 10.5316 20.8681C10.5302 20.9357 10.5265 21.0023 10.5265 21.0699C10.5265 26.7815 15.1856 31.4281 20.9125 31.4281H22.5383L24.4366 38.9763C24.4856 39.1715 24.6615 39.3084 24.8633 39.3084C25.0653 39.3084 25.2412 39.1715 25.2899 38.9763L27.1879 31.4281H28.814C34.5409 31.4281 39.2 26.7815 39.2 21.0699C39.2 15.3584 34.5409 10.7118 28.814 10.7118ZM4.87985 12.6506C4.87985 8.47605 8.28477 5.08025 12.4705 5.08025H18.8497C22.2888 5.08025 25.3094 7.42849 26.1812 10.7118H20.9125C15.5555 10.7118 11.1335 14.7779 10.5846 19.9775C7.25957 19.1281 4.87985 16.108 4.87985 12.6506ZM28.814 30.5503H26.8445C26.6428 30.5503 26.4669 30.6872 26.4178 30.8824L24.8633 37.0653L23.3083 30.8824C23.2593 30.6872 23.0838 30.5503 22.8817 30.5503H20.9125C15.6707 30.5503 11.4064 26.2977 11.4064 21.0699C11.4064 15.8422 15.6707 11.5893 20.9125 11.5893H28.814C34.0555 11.5893 38.3198 15.8422 38.3198 21.0699C38.3198 26.2977 34.0555 30.5503 28.814 30.5503Z" fill="#EC268F" stroke="#EC268F" stroke-width="0.5px"></path><path d="M18.1101 32.634C16.6545 32.634 15.4702 33.8148 15.4702 35.2668C15.4702 36.7188 16.6545 37.8997 18.1101 37.8997C19.566 37.8997 20.7503 36.7188 20.7503 35.2668C20.7503 33.8148 19.566 32.634 18.1101 32.634ZM18.1101 37.0222C17.1396 37.0222 16.3501 36.2347 16.3501 35.2668C16.3501 34.2986 17.1396 33.5115 18.1101 33.5115C19.0809 33.5115 19.8701 34.2986 19.8701 35.2668C19.8701 36.2347 19.0809 37.0222 18.1101 37.0222Z" fill="#EC268F" stroke="#EC268F" stroke-width="0.5px"></path><path d="M33.904 10.3984C35.3599 10.3984 36.5439 9.21762 36.5439 7.76562C36.5439 6.31363 35.3599 5.13281 33.904 5.13281C32.4481 5.13281 31.2642 6.31363 31.2642 7.76562C31.2642 9.21762 32.4481 10.3984 33.904 10.3984ZM33.904 6.0103C34.8749 6.0103 35.6641 6.7974 35.6641 7.76562C35.6641 8.73351 34.8749 9.52094 33.904 9.52094C32.9336 9.52094 32.144 8.73351 32.144 7.76562C32.144 6.7974 32.9336 6.0103 33.904 6.0103Z" fill="#EC268F" stroke="#EC268F" stroke-width="0.5px"></path><path d="M13.1123 33.4087L10.3667 33.0123L9.13904 30.5412C8.99033 30.2429 8.49888 30.2429 8.35016 30.5412L7.12254 33.0123L4.37691 33.4087C4.21075 33.4322 4.07311 33.5483 4.02142 33.7074C3.96972 33.8667 4.01336 34.0412 4.13354 34.1577L6.11915 36.0807L5.65086 38.7949C5.62233 38.9596 5.6898 39.1256 5.82509 39.2244C5.9023 39.28 5.99293 39.3084 6.08424 39.3084C6.1544 39.3084 6.22456 39.2917 6.28834 39.2582L8.7446 37.9756L11.2012 39.2582C11.3489 39.3352 11.5282 39.3225 11.6641 39.2244C11.7997 39.1256 11.8672 38.9596 11.8387 38.7949L11.37 36.08L13.3553 34.1577C13.4758 34.0412 13.5191 33.8667 13.4678 33.7074C13.4161 33.5483 13.2781 33.4322 13.1123 33.4087ZM10.5906 35.6117C10.4862 35.7128 10.4385 35.8587 10.4633 36.0014L10.8202 38.069L8.9487 37.0914C8.88459 37.058 8.81443 37.0412 8.7446 37.0412C8.67444 37.0412 8.60428 37.058 8.5405 37.0914L6.66902 38.069L7.02586 36.0014C7.05036 35.8587 7.00303 35.7128 6.89863 35.6117L5.38835 34.1493L7.47736 33.8476C7.62037 33.8269 7.74424 33.7375 7.80869 33.6083L8.7446 31.7244L9.68051 33.6083C9.74496 33.7375 9.8685 33.8269 10.0115 33.8476L12.1009 34.1493L10.5906 35.6117Z" fill="#EC268F" stroke="#EC268F" stroke-width="0.5px"></path><path d="M7.73962 23.6981C7.49658 23.6981 7.29952 23.8943 7.29952 24.137V25.1016H6.31998C6.07693 25.1016 5.87988 25.2978 5.87988 25.5405C5.87988 25.7829 6.07693 25.9791 6.31998 25.9791H7.29952V26.9439C7.29952 27.1863 7.49658 27.3825 7.73962 27.3825C7.98299 27.3825 8.17971 27.1863 8.17971 26.9439V25.9791H9.15926C9.40263 25.9791 9.59935 25.7829 9.59935 25.5405C9.59935 25.2978 9.40263 25.1016 9.15926 25.1016H8.17971V24.137C8.17971 23.8943 7.98299 23.6981 7.73962 23.6981Z" fill="#EC268F" stroke="#EC268F" stroke-width="0.5px"></path><path d="M34.3682 34.3639H33.3887V33.3997C33.3887 33.157 33.192 32.9608 32.9486 32.9608C32.7056 32.9608 32.5085 33.157 32.5085 33.3997V34.3639H31.529C31.2859 34.3639 31.0889 34.5601 31.0889 34.8028C31.0889 35.0452 31.2859 35.2414 31.529 35.2414H32.5085V36.2063C32.5085 36.4487 32.7056 36.6449 32.9486 36.6449C33.192 36.6449 33.3887 36.4487 33.3887 36.2063V35.2414H34.3682C34.6116 35.2414 34.8083 35.0452 34.8083 34.8028C34.8083 34.5601 34.6116 34.3639 34.3682 34.3639Z" fill="#EC268F" stroke="#EC268F" stroke-width="0.5px"></path></svg>