<svg xmlns:xlink="http://www.w3.org/1999/xlink" width="34" height="34" viewBox="0 0 34 34" fill="none" xmlns="http://www.w3.org/2000/svg" class="features__icon features__icon--puzzle"><path d="M29.8316 12.9116C30.101 13.0198 30.3885 13.0768 30.6793 13.0768C31.959 13.0768 33 12.0358 33 10.7561C33 9.47641 31.959 8.43539 30.6793 8.43539C30.3885 8.43539 30.101 8.49243 29.8316 8.60063V4.56821C29.8316 4.34711 29.6525 4.16821 29.4316 4.16821H25.3977C25.5061 3.89868 25.5629 3.61157 25.5629 3.32055C25.5629 2.04086 24.5219 0.999847 23.2424 0.999847C21.9627 0.999847 20.9217 2.04086 20.9217 3.32055C20.9217 3.61118 20.9785 3.89868 21.0869 4.16821H17.0019C17.0012 4.16821 17.0007 4.16782 17 4.16782C16.9993 4.16782 16.9988 4.16821 16.9981 4.16821H12.9391C13.0475 3.89868 13.1043 3.61157 13.1043 3.32055C13.1043 2.04086 12.0633 0.999847 10.7838 0.999847C9.5041 0.999847 8.46309 2.04086 8.46309 3.32055C8.46309 3.61118 8.51992 3.89868 8.62832 4.16821H4.56836C4.34746 4.16821 4.16836 4.34711 4.16836 4.56821V8.60063C3.89883 8.49243 3.61152 8.43539 3.3207 8.43539C2.04102 8.43539 1 9.47641 1 10.7561C1 12.0358 2.04102 13.0768 3.3207 13.0768C3.61152 13.0768 3.89883 13.0198 4.16836 12.9116V16.9979C4.16836 16.9986 4.16797 16.9992 4.16797 16.9998C4.16797 17.0005 4.16836 17.0011 4.16836 17.0018V21.0604C3.89902 20.9522 3.61152 20.8952 3.3207 20.8952C2.04102 20.8952 1 21.9362 1 23.2155C1 24.4952 2.04102 25.5362 3.3207 25.5362C3.61133 25.5362 3.89883 25.4791 4.16836 25.3709V29.4315C4.16836 29.6526 4.34746 29.8315 4.56836 29.8315H8.62832C8.51992 30.101 8.46309 30.3885 8.46309 30.6791C8.46309 31.9588 9.5041 32.9998 10.7838 32.9998C12.0633 32.9998 13.1043 31.9588 13.1043 30.6791C13.1043 30.3881 13.0475 30.101 12.9391 29.8315H21.0869C20.9785 30.101 20.9217 30.3885 20.9217 30.6791C20.9217 31.9588 21.9627 32.9998 23.2424 32.9998C24.5219 32.9998 25.5629 31.9588 25.5629 30.6791C25.5629 30.3881 25.5061 30.101 25.3977 29.8315H29.4316C29.6525 29.8315 29.8316 29.6526 29.8316 29.4315V25.3709C30.101 25.4791 30.3885 25.5362 30.6793 25.5362C31.959 25.5362 33 24.4952 33 23.2155C33 21.9362 31.959 20.8952 30.6793 20.8952C30.3885 20.8952 30.101 20.9522 29.8316 21.0604V12.9116ZM21.7932 4.96821C21.9496 4.96821 22.0916 4.87719 22.1568 4.735C22.2219 4.59282 22.1982 4.42563 22.0961 4.30727C21.9254 4.10883 21.7217 3.7768 21.7217 3.32055C21.7217 2.48188 22.4039 1.79985 23.2424 1.79985C24.0809 1.79985 24.7629 2.48188 24.7629 3.32055C24.7629 3.7768 24.5594 4.10883 24.3887 4.30727C24.2865 4.42563 24.2629 4.59282 24.3279 4.735C24.3932 4.87719 24.5352 4.96821 24.6916 4.96821H29.0316V9.30688C29.0316 9.46313 29.1229 9.60532 29.265 9.67055C29.4068 9.735 29.5744 9.71196 29.6928 9.61C29.891 9.43891 30.223 9.23539 30.6793 9.23539C31.5178 9.23539 32.2 9.91743 32.2 10.7561C32.2 11.5948 31.5178 12.2768 30.6793 12.2768C30.223 12.2768 29.891 12.0733 29.6928 11.9022C29.574 11.8002 29.4066 11.7768 29.265 11.8416C29.1229 11.9069 29.0316 12.0491 29.0316 12.2053V16.5998H25.3072C25.4508 16.2963 25.5264 15.9627 25.5264 15.6159C25.5264 14.3416 24.4898 13.3053 23.2158 13.3053C21.9418 13.3053 20.9053 14.3416 20.9053 15.6159C20.9053 15.9627 20.9809 16.2963 21.1244 16.5998H17.4V12.0983C17.4 11.9346 17.3004 11.7873 17.1482 11.7268C16.9971 11.6666 16.8232 11.7041 16.71 11.8229C16.4211 12.1268 16.0326 12.2944 15.616 12.2944C14.783 12.2944 14.1055 11.6166 14.1055 10.7838C14.1055 9.95102 14.783 9.27328 15.616 9.27328C16.0326 9.27328 16.4211 9.44086 16.71 9.74477C16.8229 9.86391 16.9965 9.90063 17.1482 9.84086C17.3004 9.78032 17.4 9.63305 17.4 9.46938V4.96821H21.7932ZM3.3207 12.2768C2.48223 12.2768 1.8 11.5948 1.8 10.7561C1.8 9.91743 2.48223 9.23539 3.3207 9.23539C3.77676 9.23539 4.10898 9.43891 4.30723 9.61C4.42559 9.71196 4.59277 9.735 4.73516 9.67055C4.87715 9.60532 4.96836 9.46313 4.96836 9.30688V4.96821H9.33457C9.49102 4.96821 9.63301 4.87719 9.69824 4.735C9.76328 4.59282 9.73965 4.42563 9.6375 4.30727C9.4668 4.10883 9.26309 3.7768 9.26309 3.32055C9.26309 2.48188 9.94531 1.79985 10.7838 1.79985C11.6223 1.79985 12.3043 2.48188 12.3043 3.32055C12.3043 3.7768 12.1008 4.10883 11.9301 4.30727C11.8279 4.42563 11.8043 4.59282 11.8693 4.735C11.9346 4.87719 12.0766 4.96821 12.233 4.96821H16.6V8.69243C16.2965 8.54868 15.9627 8.47329 15.616 8.47329C14.342 8.47329 13.3055 9.50961 13.3055 10.7838C13.3055 12.0581 14.342 13.0944 15.616 13.0944C15.9627 13.0944 16.2965 13.019 16.6 12.8752V16.5998H12.0984C11.9348 16.5998 11.7877 16.6995 11.727 16.8514C11.6662 17.0034 11.7043 17.1772 11.823 17.2897C12.1271 17.5788 12.2945 17.9674 12.2945 18.3838C12.2945 19.2166 11.617 19.8944 10.784 19.8944C9.95098 19.8944 9.27344 19.2166 9.27344 18.3838C9.27344 17.967 9.44082 17.5788 9.74473 17.2897C9.86348 17.1772 9.90156 17.0034 9.84082 16.8514C9.78008 16.6995 9.63301 16.5998 9.46934 16.5998H4.96836V12.2053C4.96836 12.0491 4.87715 11.9069 4.73516 11.8416C4.59277 11.7768 4.42617 11.7998 4.30723 11.9022C4.10898 12.0733 3.77676 12.2768 3.3207 12.2768ZM12.233 29.0315C12.0766 29.0315 11.9346 29.1225 11.8693 29.2647C11.8043 29.4069 11.8279 29.5741 11.9301 29.6924C12.1008 29.8909 12.3043 30.2229 12.3043 30.6791C12.3043 31.5178 11.6223 32.1998 10.7838 32.1998C9.94531 32.1998 9.26309 31.5178 9.26309 30.6791C9.26309 30.2229 9.4668 29.8909 9.6375 29.6924C9.73965 29.5741 9.76328 29.4069 9.69824 29.2647C9.63301 29.1225 9.49102 29.0315 9.33457 29.0315H4.96836V24.6651C4.96836 24.5088 4.87734 24.3666 4.73516 24.3014C4.59336 24.2366 4.42578 24.2596 4.30762 24.362C4.10898 24.5327 3.77656 24.7362 3.3207 24.7362C2.48223 24.7362 1.8 24.0541 1.8 23.2155C1.8 22.3772 2.48223 21.6952 3.3207 21.6952C3.68203 21.6952 4.02305 21.8245 4.30723 22.0694C4.42559 22.1709 4.59277 22.1944 4.73516 22.1299C4.87715 22.0647 4.96836 21.9225 4.96836 21.7663V17.3998H8.69238C8.54902 17.7034 8.47344 18.037 8.47344 18.3838C8.47344 19.6581 9.50996 20.6944 10.784 20.6944C12.058 20.6944 13.0945 19.6581 13.0945 18.3838C13.0945 18.037 13.0189 17.7034 12.8754 17.3998H16.6V22.0241C16.6 22.194 16.7074 22.3452 16.8678 22.4014C17.0273 22.4573 17.2062 22.4065 17.3125 22.2737C17.6014 21.9123 18.0314 21.7049 18.492 21.7049C19.325 21.7049 20.0025 22.3827 20.0025 23.2155C20.0025 24.0483 19.325 24.726 18.492 24.726C18.0311 24.726 17.6012 24.519 17.3125 24.1577C17.2059 24.0245 17.0268 23.9733 16.8678 24.0299C16.7074 24.0862 16.6 24.2373 16.6 24.4073V29.0315H12.233ZM30.6793 21.6952C31.5178 21.6952 32.2 22.3772 32.2 23.2155C32.2 24.0541 31.5178 24.7362 30.6793 24.7362C30.223 24.7362 29.891 24.5327 29.6928 24.3616C29.574 24.2596 29.4066 24.2362 29.265 24.301C29.1229 24.3663 29.0316 24.5084 29.0316 24.6647V29.0315H24.6916C24.5352 29.0315 24.3932 29.1225 24.3279 29.2647C24.2629 29.4069 24.2865 29.5741 24.3887 29.6924C24.5594 29.8909 24.7629 30.2229 24.7629 30.6791C24.7629 31.5178 24.0809 32.1998 23.2424 32.1998C22.4039 32.1998 21.7217 31.5178 21.7217 30.6791C21.7217 30.2229 21.9254 29.8909 22.0961 29.6924C22.1982 29.5741 22.2219 29.4069 22.1568 29.2647C22.0916 29.1225 21.9496 29.0315 21.7932 29.0315H17.4V25.2522C17.7309 25.4303 18.1043 25.526 18.492 25.526C19.766 25.526 20.8025 24.4897 20.8025 23.2155C20.8025 21.9413 19.766 20.9049 18.492 20.9049C18.1043 20.9049 17.7311 21.0006 17.4 21.1788V17.3998H21.9012C22.0648 17.3998 22.2119 17.3002 22.2727 17.1483C22.3334 16.9963 22.2953 16.8225 22.1768 16.71C21.8727 16.4209 21.7053 16.0323 21.7053 15.6159C21.7053 14.7831 22.3828 14.1053 23.2158 14.1053C24.0488 14.1053 24.7264 14.7831 24.7264 15.6159C24.7264 16.0323 24.559 16.4209 24.2549 16.71C24.1363 16.8225 24.0982 16.9963 24.159 17.1483C24.2197 17.3002 24.3668 17.3998 24.5305 17.3998H29.0316V21.7663C29.0316 21.9225 29.1229 22.0647 29.265 22.1299C29.4068 22.1948 29.5744 22.1709 29.6928 22.0694C29.9768 21.8245 30.318 21.6952 30.6793 21.6952Z" fill="#EC268F" stroke="#EC268F" stroke-width="0.5px"></path></svg>