<svg xmlns:xlink="http://www.w3.org/1999/xlink" width="80" height="64" viewBox="0 0 80 64" fill="none" xmlns="http://www.w3.org/2000/svg"><path fill-rule="evenodd" clip-rule="evenodd" d="M37.9086 14.5893C38.5971 12.4702 41.595 12.4703 42.2835 14.5893L45.6945 25.0874C45.7347 25.2111 45.8499 25.2947 45.9798 25.2947H57.0183C59.2464 25.2947 60.1727 28.1459 58.3702 29.4555L49.4399 35.9437C49.3348 36.0201 49.2908 36.1555 49.3309 36.2791L52.742 46.7773C53.4305 48.8963 51.0052 50.6584 49.2027 49.3488L40.2724 42.8605C40.1672 42.7842 40.0248 42.7842 39.9197 42.8605L30.9894 49.3488C29.1869 50.6584 26.7616 48.8963 27.4501 46.7773L30.8611 36.2791C30.9013 36.1555 30.8573 36.0201 30.7522 35.9437L21.8219 29.4555C20.0193 28.1459 20.9457 25.2947 23.1738 25.2947H34.2122C34.3422 25.2947 34.4574 25.2111 34.4975 25.0874L37.9086 14.5893ZM39.9187 15.0509C39.881 15.0765 39.8392 15.1196 39.8107 15.2073L36.3996 25.7055C36.0917 26.6531 35.2086 27.2947 34.2122 27.2947H23.1738C23.0816 27.2947 23.0277 27.3212 22.9917 27.3491C22.9495 27.3817 22.9106 27.434 22.8885 27.502C22.8664 27.57 22.8671 27.6353 22.8821 27.6864C22.8948 27.7302 22.9229 27.7833 22.9974 27.8374L31.9277 34.3257C32.7338 34.9114 33.0712 35.9495 32.7633 36.8972L29.3522 47.3953C29.3237 47.483 29.3322 47.5424 29.3476 47.5853C29.3656 47.6355 29.4033 47.6887 29.4612 47.7308C29.519 47.7728 29.5813 47.7922 29.6346 47.7938C29.6801 47.7952 29.7393 47.7849 29.8138 47.7308L38.7441 41.2425C39.5502 40.6568 40.6418 40.6568 41.4479 41.2425L50.3782 47.7307C50.4528 47.7849 50.512 47.7952 50.5575 47.7938C50.6107 47.7922 50.673 47.7728 50.7309 47.7307C50.7888 47.6887 50.8265 47.6355 50.8445 47.5853C50.8598 47.5424 50.8684 47.483 50.8399 47.3953L47.4288 36.8972C47.1209 35.9495 47.4582 34.9114 48.2643 34.3257L57.1946 27.8374C57.2692 27.7833 57.2972 27.7302 57.31 27.6864C57.3249 27.6353 57.3257 27.57 57.3036 27.502C57.2815 27.434 57.2425 27.3817 57.2004 27.3491C57.1644 27.3212 57.1105 27.2947 57.0183 27.2947H45.9798C44.9834 27.2947 44.1003 26.6531 43.7924 25.7055L40.3813 15.2073C40.3529 15.1196 40.311 15.0765 40.2734 15.0509C40.2294 15.0209 40.1675 15 40.096 15C40.0245 15 39.9627 15.0209 39.9187 15.0509ZM13.5635 32.9666C14.1704 31.0986 16.8131 31.0986 17.4201 32.9666L18.9027 37.5296C18.9381 37.6386 19.0396 37.7124 19.1542 37.7124H23.9521C25.9162 37.7124 26.7329 40.2257 25.1439 41.3802L21.2623 44.2004C21.1696 44.2677 21.1308 44.3871 21.1662 44.496L22.6488 49.0591C23.2558 50.9271 21.1178 52.4804 19.5288 51.326L15.6472 48.5058C15.5545 48.4385 15.429 48.4385 15.3363 48.5058L11.4547 51.326C9.86574 52.4804 7.72773 50.9271 8.33468 49.0591L9.81731 44.496C9.85271 44.3871 9.81393 44.2677 9.72124 44.2004L5.83967 41.3802C4.25066 40.2257 5.0673 37.7124 7.03143 37.7124H11.8293C11.9439 37.7124 12.0454 37.6386 12.0808 37.5296L13.5635 32.9666ZM15.3354 33.3735C15.3022 33.3961 15.2654 33.4341 15.2402 33.5114L13.7576 38.0745C13.4862 38.9099 12.7077 39.4755 11.8293 39.4755H7.03143C6.95017 39.4755 6.90265 39.4988 6.87089 39.5234C6.83376 39.5521 6.79939 39.5982 6.77991 39.6582C6.76043 39.7182 6.7611 39.7757 6.77426 39.8208C6.78552 39.8593 6.81024 39.9061 6.87598 39.9539L10.7576 42.774C11.4682 43.2903 11.7655 44.2055 11.4941 45.0409L10.0115 49.6039C9.98636 49.6812 9.99387 49.7336 10.0074 49.7714C10.0233 49.8156 10.0565 49.8625 10.1075 49.8996C10.1585 49.9367 10.2135 49.9538 10.2604 49.9552C10.3005 49.9564 10.3527 49.9474 10.4184 49.8996L14.3 47.0795C15.0106 46.5632 15.9729 46.5632 16.6835 47.0795L20.5651 49.8996C20.6308 49.9474 20.683 49.9564 20.7231 49.9552C20.7701 49.9538 20.825 49.9367 20.876 49.8996C20.927 49.8625 20.9603 49.8156 20.9761 49.7714C20.9897 49.7336 20.9972 49.6812 20.9721 49.6039L19.4894 45.0409C19.218 44.2055 19.5154 43.2903 20.226 42.774L24.1075 39.9539C24.1733 39.9061 24.198 39.8593 24.2093 39.8208C24.2224 39.7757 24.2231 39.7182 24.2036 39.6582C24.1841 39.5982 24.1498 39.5521 24.1126 39.5234C24.0809 39.4988 24.0334 39.4755 23.9521 39.4755H19.1542C18.2758 39.4755 17.4973 38.9099 17.2259 38.0745L15.7433 33.5114C15.7182 33.4341 15.6813 33.3961 15.6481 33.3735C15.6093 33.3471 15.5548 33.3287 15.4918 33.3287C15.4287 33.3287 15.3742 33.3471 15.3354 33.3735ZM66.6286 32.9666C66.0217 31.0986 63.3789 31.0986 62.772 32.9666L61.2894 37.5296C61.254 37.6386 61.1524 37.7124 61.0378 37.7124H56.24C54.2758 37.7124 53.4592 40.2257 55.0482 41.3802L58.9298 44.2004C59.0225 44.2677 59.0612 44.3871 59.0258 44.496L57.5432 49.0591C56.9363 50.9271 59.0743 52.4804 60.6633 51.326L64.5448 48.5058C64.6375 48.4385 64.7631 48.4385 64.8557 48.5058L68.7373 51.326C70.3263 52.4804 72.4643 50.9271 71.8574 49.0591L70.3748 44.496C70.3393 44.3871 70.3781 44.2677 70.4708 44.2004L74.3524 41.3802C75.9414 40.2257 75.1248 37.7124 73.1606 37.7124H68.3627C68.2482 37.7124 68.1466 37.6386 68.1112 37.5296L66.6286 32.9666ZM64.4488 33.5114C64.4739 33.4341 64.5108 33.3961 64.5439 33.3735C64.5827 33.3471 64.6373 33.3287 64.7003 33.3287C64.7633 33.3287 64.8179 33.3471 64.8566 33.3735C64.8898 33.3961 64.9267 33.4341 64.9518 33.5114L66.4344 38.0745C66.7059 38.9099 67.4844 39.4755 68.3627 39.4755H73.1606C73.2419 39.4755 73.2894 39.4988 73.3212 39.5234C73.3583 39.5521 73.3927 39.5982 73.4122 39.6582C73.4316 39.7182 73.431 39.7757 73.4178 39.8208C73.4065 39.8593 73.3818 39.9061 73.3161 39.9539L69.4345 42.774C68.7239 43.2903 68.4265 44.2055 68.698 45.0409L70.1806 49.6039C70.2057 49.6812 70.1982 49.7336 70.1846 49.7714C70.1688 49.8156 70.1355 49.8625 70.0845 49.8996C70.0335 49.9367 69.9786 49.9538 69.9317 49.9552C69.8915 49.9564 69.8394 49.9474 69.7736 49.8996L65.8921 47.0795C65.1814 46.5632 64.2192 46.5632 63.5085 47.0795L59.627 49.8996C59.5612 49.9474 59.5091 49.9564 59.4689 49.9552C59.422 49.9538 59.3671 49.9367 59.3161 49.8996C59.2651 49.8625 59.2318 49.8156 59.216 49.7714C59.2024 49.7336 59.1949 49.6812 59.22 49.6039L60.7026 45.0409C60.9741 44.2055 60.6767 43.2903 59.9661 42.774L56.0845 39.9539C56.0188 39.9061 55.994 39.8593 55.9828 39.8208C55.9696 39.7757 55.969 39.7182 55.9884 39.6582C56.0079 39.5982 56.0423 39.5521 56.0794 39.5234C56.1112 39.4988 56.1587 39.4755 56.24 39.4755H61.0378C61.9162 39.4755 62.6947 38.9099 62.9661 38.0745L64.4488 33.5114Z" fill="#EC268F"></path></svg>