<svg xmlns:xlink="http://www.w3.org/1999/xlink" width="44" height="45" viewBox="0 0 44 45" fill="none" xmlns="http://www.w3.org/2000/svg"><path d="M30.1835 29.0745C29.9721 28.953 29.704 29.0248 29.5824 29.2346C28.0213 31.9247 25.1175 33.596 22.0044 33.596C18.8917 33.596 15.9883 31.9253 14.4268 29.2361C14.3052 29.0265 14.0358 28.9552 13.8257 29.0762C13.6152 29.1975 13.5434 29.466 13.6654 29.6757C15.3838 32.6352 18.5789 34.4736 22.0044 34.4736C25.4307 34.4736 28.6259 32.6346 30.3438 29.6742C30.4658 29.4645 30.3936 29.196 30.1835 29.0745Z" fill="#EC268F" stroke="#EC268F" stroke-width="0.5px"></path><path d="M15.6147 20.432C16.7642 20.432 17.6996 21.3647 17.6996 22.511C17.6996 22.7534 17.8964 22.9498 18.1396 22.9498C18.3828 22.9498 18.5796 22.7534 18.5796 22.511C18.5796 20.8806 17.2497 19.5543 15.6147 19.5543C13.9798 19.5543 12.6499 20.8806 12.6499 22.511C12.6499 22.7534 12.8467 22.9498 13.0899 22.9498C13.3331 22.9498 13.5299 22.7534 13.5299 22.511C13.5299 21.3647 14.4653 20.432 15.6147 20.432Z" fill="#EC268F" stroke="#EC268F" stroke-width="0.5px"></path><path d="M28.3853 19.5543C26.7503 19.5543 25.4204 20.8806 25.4204 22.511C25.4204 22.7534 25.6172 22.9498 25.8604 22.9498C26.1036 22.9498 26.3004 22.7534 26.3004 22.511C26.3004 21.3647 27.2358 20.432 28.3853 20.432C29.5347 20.432 30.4701 21.3647 30.4701 22.511C30.4701 22.7534 30.6669 22.9498 30.9101 22.9498C31.1533 22.9498 31.3501 22.7534 31.3501 22.511C31.3501 20.8806 30.0202 19.5543 28.3853 19.5543Z" fill="#EC268F" stroke="#EC268F" stroke-width="0.5px"></path><path d="M7.81562 18.3529C7.03238 20.1927 6.59863 22.215 6.59863 24.3365C6.59863 32.8061 13.5076 39.6965 21.9999 39.6965C30.4923 39.6965 37.4012 32.8061 37.4012 24.3365C37.4012 21.1632 36.4312 18.2116 34.7715 15.761C34.7608 15.7458 34.7524 15.7296 34.74 15.7161C34.5028 15.3685 34.2501 15.0325 33.9859 14.7061C35.1079 13.5943 35.7284 12.1864 35.7284 10.7011C35.7284 7.33195 32.5505 4.59082 28.6442 4.59082C27.2015 4.59082 25.827 4.96258 24.6473 5.66026C23.9226 4.99273 23.0045 4.59082 22.0051 4.59082C21.0351 4.59082 20.1064 4.97179 19.3572 5.66296C18.1761 4.96357 16.8006 4.59082 15.3557 4.59082C11.4494 4.59082 8.27141 7.33195 8.27141 10.7011C8.27141 12.1869 8.8919 13.5945 10.0139 14.7062C9.13218 15.7955 8.39518 17.0056 7.83533 18.3094C7.82794 18.324 7.82125 18.3378 7.81562 18.3529ZM21.9999 9.85389C26.7846 9.85389 31.0347 12.1747 33.6818 15.7457C32.0104 16.1372 27.0165 17.0432 20.5489 15.7985C14.9814 14.7274 11.2805 16.0959 9.39378 17.1617C11.8989 12.8007 16.6093 9.85389 21.9999 9.85389ZM21.9999 38.8189C13.9927 38.8189 7.47863 32.322 7.47863 24.3365C7.47863 22.3622 7.87805 20.4795 8.59848 18.7629C8.85122 18.5486 9.81608 17.7896 11.4829 17.1711C13.2833 16.5035 16.2902 15.8731 20.3821 16.6603C27.5642 18.0427 32.8632 16.8778 34.2157 16.5211C35.6721 18.7776 36.5212 21.4592 36.5212 24.3365C36.5212 32.322 30.0071 38.8189 21.9999 38.8189ZM34.8484 10.7011C34.8484 11.928 34.3387 13.0983 33.4151 14.0365C31.5102 11.9386 29.0322 10.3702 26.2316 9.5706C26.2325 9.52935 26.2362 9.48891 26.2362 9.44742C26.2362 8.26022 25.862 7.17238 25.2434 6.32773C26.2539 5.76603 27.4203 5.46846 28.6442 5.46846C32.0654 5.46846 34.8484 7.81577 34.8484 10.7011ZM25.3519 9.34701C24.272 9.10692 23.1513 8.97625 21.9999 8.97625C20.8522 8.97625 19.7349 9.10604 18.6582 9.34465C18.6823 8.24843 19.0861 7.20655 19.7802 6.47381C20.3946 5.82543 21.1848 5.46846 22.0051 5.46846C23.8242 5.46846 25.3064 7.19959 25.3519 9.34701ZM9.15141 10.7011C9.15141 7.81577 11.9345 5.46846 15.3557 5.46846C16.5829 5.46846 17.7517 5.7671 18.7639 6.3317C18.1316 7.20045 17.7735 8.30382 17.7735 9.44742C17.7735 9.488 17.7766 9.52758 17.7775 9.56795C14.9731 10.3668 12.4917 11.9363 10.5847 14.0366C9.66115 13.0985 9.15141 11.9283 9.15141 10.7011Z" fill="#EC268F" stroke="#EC268F" stroke-width="0.5px"></path></svg>