<svg xmlns:xlink="http://www.w3.org/1999/xlink" width="49" height="49" viewBox="0 0 49 49" fill="none" xmlns="http://www.w3.org/2000/svg"><path d="M43.6104 43.1199H40.3909V13.1411H43.6104C43.8071 13.1411 43.9846 13.0237 44.0616 12.8425C44.1382 12.6617 44.0994 12.4523 43.9631 12.3109L36.9533 5.04968C36.7686 4.85828 36.4327 4.85828 36.248 5.04968L29.2387 12.3109C29.1023 12.4523 29.0635 12.6617 29.1401 12.8425C29.2171 13.0237 29.3947 13.1411 29.5913 13.1411H32.8108V43.1199H28.2907V21.7738H31.5102C31.7068 21.7738 31.8844 21.6563 31.9614 21.4752C32.038 21.2943 31.9992 21.085 31.8628 20.9436L24.8531 13.6823C24.6684 13.4909 24.3324 13.4909 24.1477 13.6823L17.138 20.9436C17.0016 21.085 16.9628 21.2943 17.0394 21.4752C17.1164 21.6563 17.294 21.7738 17.4906 21.7738H20.7101V43.1199H16.19V29.254H19.4095C19.6061 29.254 19.7837 29.1365 19.8607 28.9554C19.9373 28.7745 19.8985 28.5651 19.7621 28.4237L12.7528 21.1625C12.6605 21.0668 12.5332 21.0127 12.4002 21.0127C12.2671 21.0127 12.1399 21.0668 12.0475 21.1625L5.03773 28.4237C4.90135 28.5651 4.86259 28.7745 4.93916 28.9554C5.0162 29.1365 5.19373 29.254 5.3904 29.254H8.60985V43.1199H5.3904C5.11956 43.1199 4.9004 43.3393 4.9004 43.6099C4.9004 43.8805 5.11956 44.0999 5.3904 44.0999H43.6104C43.8812 44.0999 44.1004 43.8805 44.1004 43.6099C44.1004 43.3393 43.8812 43.1199 43.6104 43.1199ZM33.3008 12.1611H30.7455L36.6006 6.09548L42.4562 12.1611H39.9009C39.6301 12.1611 39.4109 12.3805 39.4109 12.6511V43.1199H33.7908V12.6511C33.7908 12.3805 33.5716 12.1611 33.3008 12.1611ZM21.2001 20.7938H18.6448L24.5004 14.7281L30.356 20.7938H27.8007C27.5299 20.7938 27.3107 21.0132 27.3107 21.2838V43.1199H21.6901V21.2838C21.6901 21.0132 21.4709 20.7938 21.2001 20.7938ZM9.09985 28.274H6.54458L12.4002 22.2083L18.2553 28.274H15.7C15.4292 28.274 15.21 28.4934 15.21 28.764V43.1199H9.58985V28.764C9.58985 28.4934 9.37069 28.274 9.09985 28.274Z" fill="#E10A7B" stroke="#E10A7B" stroke-width="0.6125px"></path></svg>