<svg xmlns:xlink="http://www.w3.org/1999/xlink" width="44" height="45" viewBox="0 0 44 45" fill="none" xmlns="http://www.w3.org/2000/svg"><path d="M35.1104 28.2314C34.7877 28.5875 34.3292 28.7915 33.8524 28.7915C33.3757 28.7915 32.9172 28.5875 32.5945 28.2314C32.4319 28.0523 32.1535 28.0373 31.973 28.2001C31.7927 28.3629 31.7788 28.6402 31.9418 28.8202C32.431 29.3597 33.1274 29.6691 33.8524 29.6691C34.5775 29.6691 35.2738 29.3597 35.763 28.8202C35.9261 28.6402 35.9121 28.3629 35.7319 28.2001C35.5514 28.0373 35.273 28.0523 35.1104 28.2314Z" fill="#EC268F" stroke="#EC268F" stroke-width="0.5px"></path><path d="M20.9193 28.2001C20.7391 28.0373 20.4604 28.0523 20.2978 28.2314C19.9751 28.5875 19.5166 28.7915 19.0399 28.7915C18.5629 28.7915 18.1044 28.5875 17.7819 28.2314C17.6191 28.0523 17.3409 28.0373 17.1606 28.2001C16.9804 28.3625 16.9662 28.6402 17.1293 28.8202C17.618 29.3597 18.3145 29.6691 19.0399 29.6691C19.765 29.6691 20.4613 29.3597 20.9505 28.8202C21.1135 28.6402 21.0996 28.3629 20.9193 28.2001Z" fill="#EC268F" stroke="#EC268F" stroke-width="0.5px"></path><path fill-rule="evenodd" clip-rule="evenodd" d="M17.5888 21.1231C17.2498 19.4739 16.1412 18.0659 14.6382 17.3284C16.7303 16.1236 18.077 13.862 18.077 11.4135C18.077 7.64799 15.0055 4.58459 11.2299 4.58459C7.45422 4.58459 4.38281 7.64799 4.38281 11.4135C4.38281 13.8611 5.72816 16.1221 7.81945 17.3271C5.97695 18.2249 4.76137 20.1057 4.76137 22.2094V39.2857C4.76137 39.5281 4.95816 39.7246 5.20137 39.7246H14.0076C14.0188 39.7254 14.03 39.7258 14.0414 39.7258H38.8188C39.0618 39.7258 39.2589 39.5296 39.2589 39.287V35.7734C39.2589 34.0306 38.2772 32.4677 36.7774 31.6831C38.4839 30.6469 39.5755 28.7695 39.5755 26.7403C39.5755 23.5503 36.9732 20.9547 33.7746 20.9547C30.576 20.9547 27.9736 23.5503 27.9736 26.7403C27.9736 28.7695 29.0652 30.6469 30.7717 31.6831C29.2719 32.4677 28.2903 34.0306 28.2903 35.7734V38.8482H24.57V35.7734C24.57 34.0306 23.5884 32.4677 22.0886 31.6831C23.7951 30.6469 24.8867 28.7695 24.8867 26.7403C24.8867 23.5503 22.2843 20.9547 19.0857 20.9547C18.5712 20.9547 18.0721 21.0218 17.5967 21.1478L17.5888 21.1231ZM16.7563 21.4418L16.7496 21.4184C16.4433 19.6873 15.1276 18.2517 13.4045 17.8015C13.2198 17.7533 13.0874 17.5913 13.0771 17.401C13.0664 17.2106 13.1807 17.0353 13.359 16.9671C15.6548 16.091 17.197 13.8592 17.197 11.4135C17.197 8.13202 14.52 5.46224 11.2299 5.46224C7.93977 5.46224 5.26281 8.13202 5.26281 11.4135C5.26281 13.8592 6.80496 16.091 9.10078 16.9671C9.2791 17.0353 9.3934 17.2106 9.38266 17.401C9.37234 17.5913 9.24 17.7533 9.05523 17.8015C7.04516 18.3267 5.64137 20.1394 5.64137 22.2094V38.8469H13.6014V35.7734C13.6014 34.0306 14.583 32.4677 16.0828 31.6831C14.3763 30.6469 13.2847 28.7695 13.2847 26.7403C13.2847 24.3761 14.7141 22.3384 16.7563 21.4418ZM14.4814 35.7734V38.8482H23.69V35.7734C23.69 34.0743 22.5374 32.586 20.8872 32.1545C20.7022 32.106 20.5696 31.9441 20.5593 31.7538C20.549 31.5635 20.6629 31.3882 20.8414 31.3201C22.7346 30.5976 24.0067 28.757 24.0067 26.7403C24.0067 24.0341 21.7992 21.8323 19.0857 21.8323C16.3722 21.8323 14.1647 24.0341 14.1647 26.7403C14.1647 28.757 15.4366 30.5976 17.3298 31.3201C17.5083 31.3882 17.6222 31.5635 17.6119 31.7538C17.6013 31.9441 17.469 32.106 17.284 32.1545C15.6338 32.586 14.4814 34.0743 14.4814 35.7734ZM35.2484 31.7538C35.2381 31.5635 35.3519 31.3882 35.5305 31.3201C37.4237 30.5976 38.6955 28.757 38.6955 26.7403C38.6955 24.0341 36.488 21.8323 33.7746 21.8323C31.0611 21.8323 28.8536 24.0341 28.8536 26.7403C28.8536 28.757 30.1257 30.5976 32.0189 31.3201C32.1974 31.3882 32.3113 31.5635 32.301 31.7538C32.2906 31.9441 32.1581 32.106 31.9731 32.1545C30.3229 32.586 29.1703 34.0743 29.1703 35.7734V38.8482H38.3788V35.7734C38.3788 34.0743 37.2264 32.586 35.5762 32.1545C35.3912 32.106 35.2589 31.9441 35.2484 31.7538Z" fill="#EC268F"></path><path d="M14.6382 17.3284L14.5134 17.1118L14.1066 17.346L14.528 17.5528L14.6382 17.3284ZM17.5888 21.1231L17.3439 21.1734L17.3466 21.1865L17.3507 21.1992L17.5888 21.1231ZM7.81945 17.3271L7.92896 17.5519L8.35226 17.3456L7.94427 17.1105L7.81945 17.3271ZM14.0076 39.7246L14.0265 39.4753L14.0171 39.4746H14.0076V39.7246ZM36.7774 31.6831L36.6477 31.4694L36.2691 31.6993L36.6615 31.9046L36.7774 31.6831ZM30.7717 31.6831L30.8876 31.9046L31.2801 31.6993L30.9015 31.4694L30.7717 31.6831ZM28.2903 38.8482V39.0982H28.5403V38.8482H28.2903ZM24.57 38.8482H24.32V39.0982H24.57V38.8482ZM22.0886 31.6831L21.9588 31.4694L21.5802 31.6993L21.9727 31.9046L22.0886 31.6831ZM17.5967 21.1478L17.3586 21.224L17.431 21.4504L17.6608 21.3895L17.5967 21.1478ZM16.7563 21.4418L16.8568 21.6707L17.0566 21.583L16.9967 21.3732L16.7563 21.4418ZM16.7496 21.4184L16.5035 21.4619L16.5057 21.4746L16.5092 21.487L16.7496 21.4184ZM13.4045 17.8015L13.4677 17.5596L13.4676 17.5596L13.4045 17.8015ZM13.0771 17.401L13.3267 17.3875L13.3267 17.387L13.0771 17.401ZM13.359 16.9671L13.2698 16.7336L13.2697 16.7336L13.359 16.9671ZM9.10078 16.9671L9.19002 16.7336L9.18992 16.7336L9.10078 16.9671ZM9.38266 17.401L9.13305 17.387L9.13302 17.3875L9.38266 17.401ZM9.05523 17.8015L8.99212 17.5596L8.99204 17.5596L9.05523 17.8015ZM5.64137 38.8469H5.39137V39.0969H5.64137V38.8469ZM13.6014 38.8469V39.0969H13.8514V38.8469H13.6014ZM16.0828 31.6831L16.1987 31.9046L16.5912 31.6993L16.2126 31.4694L16.0828 31.6831ZM14.4814 38.8482H14.2314V39.0982H14.4814V38.8482ZM23.69 38.8482V39.0982H23.94V38.8482H23.69ZM20.8872 32.1545L20.8238 32.3963L20.8239 32.3963L20.8872 32.1545ZM20.5593 31.7538L20.3097 31.7673L20.5593 31.7538ZM20.8414 31.3201L20.7523 31.0865L20.7523 31.0865L20.8414 31.3201ZM17.3298 31.3201L17.4189 31.0865L17.4189 31.0865L17.3298 31.3201ZM17.6119 31.7538L17.8615 31.7676L17.8615 31.7673L17.6119 31.7538ZM17.284 32.1545L17.3473 32.3963L17.3473 32.3963L17.284 32.1545ZM35.5305 31.3201L35.4413 31.0865L35.4413 31.0865L35.5305 31.3201ZM35.2484 31.7538L34.9988 31.7673L34.9988 31.7676L35.2484 31.7538ZM32.0189 31.3201L32.108 31.0865L32.108 31.0865L32.0189 31.3201ZM32.301 31.7538L32.5506 31.7673V31.7673L32.301 31.7538ZM31.9731 32.1545L32.0364 32.3963L32.0364 32.3963L31.9731 32.1545ZM29.1703 38.8482H28.9203V39.0982H29.1703V38.8482ZM38.3788 38.8482V39.0982H38.6288V38.8482H38.3788ZM35.5762 32.1545L35.5129 32.3963L35.513 32.3963L35.5762 32.1545ZM14.528 17.5528C15.963 18.2569 17.0208 19.6014 17.3439 21.1734L17.8337 21.0728C17.4788 19.3464 16.3195 17.8749 14.7483 17.104L14.528 17.5528ZM17.827 11.4135C17.827 13.7705 16.5299 15.9505 14.5134 17.1118L14.7629 17.545C16.9308 16.2966 18.327 13.9534 18.327 11.4135H17.827ZM11.2299 4.83459C14.8681 4.83459 17.827 7.78668 17.827 11.4135H18.327C18.327 7.50929 15.143 4.33459 11.2299 4.33459V4.83459ZM4.63281 11.4135C4.63281 7.78668 7.59167 4.83459 11.2299 4.83459V4.33459C7.31677 4.33459 4.13281 7.50929 4.13281 11.4135H4.63281ZM7.94427 17.1105C5.92866 15.9491 4.63281 13.7697 4.63281 11.4135H4.13281C4.13281 13.9525 5.52766 16.2951 7.69464 17.5437L7.94427 17.1105ZM5.01137 22.2094C5.01137 20.2033 6.17069 18.4086 7.92896 17.5519L7.70995 17.1024C5.78321 18.0412 4.51137 20.0082 4.51137 22.2094H5.01137ZM5.01137 39.2857V22.2094H4.51137V39.2857H5.01137ZM5.20137 39.4746C5.09568 39.4746 5.01137 39.3895 5.01137 39.2857H4.51137C4.51137 39.6667 4.82065 39.9746 5.20137 39.9746V39.4746ZM14.0076 39.4746H5.20137V39.9746H14.0076V39.4746ZM13.9888 39.9739C14.0062 39.9752 14.0237 39.9758 14.0414 39.9758V39.4758C14.0363 39.4758 14.0313 39.4756 14.0265 39.4753L13.9888 39.9739ZM14.0414 39.9758H38.8188V39.4758H14.0414V39.9758ZM38.8188 39.9758C39.1992 39.9758 39.5089 39.6684 39.5089 39.287H39.0089C39.0089 39.3908 38.9245 39.4758 38.8188 39.4758V39.9758ZM39.5089 39.287V35.7734H39.0089V39.287H39.5089ZM39.5089 35.7734C39.5089 33.9355 38.4737 32.2884 36.8933 31.4616L36.6615 31.9046C38.0807 32.6471 39.0089 34.1257 39.0089 35.7734H39.5089ZM36.9072 31.8968C38.6864 30.8164 39.8255 28.859 39.8255 26.7403H39.3255C39.3255 28.6799 38.2814 30.4774 36.6477 31.4694L36.9072 31.8968ZM39.8255 26.7403C39.8255 23.4116 37.1106 20.7047 33.7746 20.7047V21.2047C36.8357 21.2047 39.3255 23.689 39.3255 26.7403H39.8255ZM33.7746 20.7047C30.4385 20.7047 27.7236 23.4116 27.7236 26.7403H28.2236C28.2236 23.689 30.7134 21.2047 33.7746 21.2047V20.7047ZM27.7236 26.7403C27.7236 28.859 28.8627 30.8164 30.6419 31.8968L30.9015 31.4694C29.2677 30.4774 28.2236 28.6799 28.2236 26.7403H27.7236ZM30.6558 31.4616C29.0754 32.2884 28.0403 33.9355 28.0403 35.7734H28.5403C28.5403 34.1257 29.4684 32.6471 30.8876 31.9046L30.6558 31.4616ZM28.0403 35.7734V38.8482H28.5403V35.7734H28.0403ZM28.2903 38.5982H24.57V39.0982H28.2903V38.5982ZM24.82 38.8482V35.7734H24.32V38.8482H24.82ZM24.82 35.7734C24.82 33.9355 23.7849 32.2884 22.2045 31.4616L21.9727 31.9046C23.3919 32.6471 24.32 34.1257 24.32 35.7734H24.82ZM22.2183 31.8968C23.9976 30.8164 25.1367 28.859 25.1367 26.7403H24.6367C24.6367 28.6799 23.5926 30.4774 21.9588 31.4694L22.2183 31.8968ZM25.1367 26.7403C25.1367 23.4116 22.4217 20.7047 19.0857 20.7047V21.2047C22.1468 21.2047 24.6367 23.689 24.6367 26.7403H25.1367ZM19.0857 20.7047C18.5493 20.7047 18.0287 20.7747 17.5327 20.9062L17.6608 21.3895C18.1154 21.269 18.593 21.2047 19.0857 21.2047V20.7047ZM17.3507 21.1992L17.3586 21.224L17.8349 21.0717L17.827 21.047L17.3507 21.1992ZM16.9967 21.3732L16.99 21.3497L16.5092 21.487L16.5159 21.5104L16.9967 21.3732ZM16.9958 21.3748C16.6724 19.5476 15.2853 18.0345 13.4677 17.5596L13.3413 18.0434C14.9698 18.4689 16.2141 19.827 16.5035 21.4619L16.9958 21.3748ZM13.4676 17.5596C13.3879 17.5388 13.3312 17.469 13.3267 17.3875L12.8275 17.4146C12.8437 17.7136 13.0516 17.9678 13.3414 18.0434L13.4676 17.5596ZM13.3267 17.387C13.3221 17.3059 13.3708 17.2303 13.4482 17.2007L13.2697 16.7336C12.9905 16.8403 12.8106 17.1152 12.8275 17.4151L13.3267 17.387ZM13.4481 17.2007C15.8402 16.2878 17.447 13.9635 17.447 11.4135H16.947C16.947 13.7549 15.4694 15.8942 13.2698 16.7336L13.4481 17.2007ZM17.447 11.4135C17.447 7.99332 14.6574 5.21224 11.2299 5.21224V5.71224C14.3826 5.71224 16.947 8.27071 16.947 11.4135H17.447ZM11.2299 5.21224C7.80232 5.21224 5.01281 7.99332 5.01281 11.4135H5.51281C5.51281 8.27071 8.07721 5.71224 11.2299 5.71224V5.21224ZM5.01281 11.4135C5.01281 13.9635 6.61956 16.2878 9.01164 17.2007L9.18992 16.7336C6.99037 15.8942 5.51281 13.7549 5.51281 11.4135H5.01281ZM9.01155 17.2007C9.08895 17.2303 9.13762 17.3059 9.13305 17.387L9.63226 17.4151C9.64917 17.1152 9.46925 16.8403 9.19002 16.7336L9.01155 17.2007ZM9.13302 17.3875C9.1286 17.469 9.07183 17.5388 8.99212 17.5596L9.11835 18.0434C9.40817 17.9678 9.61608 17.7136 9.63229 17.4146L9.13302 17.3875ZM8.99204 17.5596C6.87247 18.1134 5.39137 20.0251 5.39137 22.2094H5.89137C5.89137 20.2537 7.21784 18.54 9.11843 18.0434L8.99204 17.5596ZM5.39137 22.2094V38.8469H5.89137V22.2094H5.39137ZM5.64137 39.0969H13.6014V38.5969H5.64137V39.0969ZM13.3514 35.7734V38.8469H13.8514V35.7734H13.3514ZM15.9669 31.4616C14.3865 32.2884 13.3514 33.9355 13.3514 35.7734H13.8514C13.8514 34.1257 14.7795 32.6471 16.1987 31.9046L15.9669 31.4616ZM13.0347 26.7403C13.0347 28.859 14.1738 30.8164 15.9531 31.8968L16.2126 31.4694C14.5788 30.4774 13.5347 28.6799 13.5347 26.7403H13.0347ZM16.6558 21.2129C14.5266 22.1476 13.0347 24.2728 13.0347 26.7403H13.5347C13.5347 24.4794 14.9017 22.5291 16.8568 21.6707L16.6558 21.2129ZM14.7314 38.8482V35.7734H14.2314V38.8482H14.7314ZM23.69 38.5982H14.4814V39.0982H23.69V38.5982ZM23.44 35.7734V38.8482H23.94V35.7734H23.44ZM20.8239 32.3963C22.3647 32.7993 23.44 34.1886 23.44 35.7734H23.94C23.94 33.96 22.71 32.3727 20.9504 31.9126L20.8239 32.3963ZM20.3097 31.7673C20.3259 32.0666 20.5343 32.3205 20.8238 32.3963L20.9505 31.9126C20.8701 31.8916 20.8133 31.8215 20.8089 31.7403L20.3097 31.7673ZM20.7523 31.0865C20.4724 31.1933 20.2935 31.4683 20.3097 31.7673L20.8089 31.7403C20.8045 31.6587 20.8533 31.5831 20.9305 31.5537L20.7523 31.0865ZM23.7567 26.7403C23.7567 28.6527 22.5492 30.4008 20.7523 31.0865L20.9305 31.5537C22.92 30.7944 24.2567 28.8614 24.2567 26.7403H23.7567ZM19.0857 22.0823C21.6617 22.0823 23.7567 24.1728 23.7567 26.7403H24.2567C24.2567 23.8954 21.9366 21.5823 19.0857 21.5823V22.0823ZM14.4147 26.7403C14.4147 24.1728 16.5097 22.0823 19.0857 22.0823V21.5823C16.2348 21.5823 13.9147 23.8954 13.9147 26.7403H14.4147ZM17.4189 31.0865C15.622 30.4008 14.4147 28.6527 14.4147 26.7403H13.9147C13.9147 28.8614 15.2512 30.7944 17.2406 31.5537L17.4189 31.0865ZM17.8615 31.7673C17.8777 31.4683 17.6988 31.1933 17.4189 31.0865L17.2406 31.5537C17.3179 31.5831 17.3667 31.6587 17.3622 31.7403L17.8615 31.7673ZM17.3473 32.3963C17.6371 32.3204 17.8449 32.0665 17.8615 31.7676L17.3622 31.74C17.3577 31.8216 17.3009 31.8916 17.2207 31.9126L17.3473 32.3963ZM14.7314 35.7734C14.7314 34.1886 15.8065 32.7992 17.3473 32.3963L17.2208 31.9126C15.4611 32.3727 14.2314 33.96 14.2314 35.7734H14.7314ZM35.4413 31.0865C35.1614 31.1933 34.9826 31.4684 34.9988 31.7673L35.498 31.7403C35.4936 31.6587 35.5424 31.5831 35.6196 31.5537L35.4413 31.0865ZM38.4455 26.7403C38.4455 28.6527 37.2383 30.4008 35.4413 31.0865L35.6196 31.5537C37.6091 30.7944 38.9455 28.8614 38.9455 26.7403H38.4455ZM33.7746 22.0823C36.3506 22.0823 38.4455 24.1728 38.4455 26.7403H38.9455C38.9455 23.8955 36.6255 21.5823 33.7746 21.5823V22.0823ZM29.1036 26.7403C29.1036 24.1728 31.1985 22.0823 33.7746 22.0823V21.5823C30.9236 21.5823 28.6036 23.8954 28.6036 26.7403H29.1036ZM32.108 31.0865C30.311 30.4008 29.1036 28.6527 29.1036 26.7403H28.6036C28.6036 28.8614 29.9403 30.7944 31.9297 31.5537L32.108 31.0865ZM32.5506 31.7673C32.5668 31.4683 32.3879 31.1933 32.108 31.0865L31.9297 31.5537C32.0069 31.5831 32.0557 31.6587 32.0513 31.7403L32.5506 31.7673ZM32.0364 32.3963C32.326 32.3205 32.5344 32.0666 32.5506 31.7673L32.0513 31.7403C32.0469 31.8215 31.9902 31.8916 31.9098 31.9126L32.0364 32.3963ZM29.4203 35.7734C29.4203 34.1886 30.4956 32.7993 32.0364 32.3963L31.9099 31.9126C30.1502 32.3727 28.9203 33.96 28.9203 35.7734H29.4203ZM29.4203 38.8482V35.7734H28.9203V38.8482H29.4203ZM38.3788 38.5982H29.1703V39.0982H38.3788V38.5982ZM38.1288 35.7734V38.8482H38.6288V35.7734H38.1288ZM35.513 32.3963C37.0537 32.7992 38.1288 34.1886 38.1288 35.7734H38.6288C38.6288 33.96 37.3991 32.3727 35.6395 31.9126L35.513 32.3963ZM34.9988 31.7676C35.0153 32.0665 35.2231 32.3204 35.5129 32.3963L35.6395 31.9126C35.5594 31.8916 35.5025 31.8216 35.498 31.74L34.9988 31.7676Z" fill="#EC268F"></path><path d="M12.9271 13.5516C12.7471 13.3896 12.4691 13.4024 12.3054 13.5828C11.9831 13.9383 11.5246 14.1423 11.0477 14.1423C10.5711 14.1423 10.1127 13.9383 9.78954 13.5826C9.62668 13.4024 9.34868 13.3891 9.16821 13.5518C8.98817 13.7144 8.97399 13.9919 9.13727 14.1714C9.62668 14.7108 10.3228 15.0199 11.0477 15.0199C11.773 15.0199 12.4695 14.7105 12.9585 14.1714C13.1213 13.9915 13.1072 13.714 12.9271 13.5516Z" fill="#EC268F" stroke="#EC268F" stroke-width="0.5px"></path></svg>