<svg xmlns:xlink="http://www.w3.org/1999/xlink" width="80" height="64" viewBox="0 0 80 64" fill="none" xmlns="http://www.w3.org/2000/svg"><path fill-rule="evenodd" clip-rule="evenodd" d="M42.3682 9.18928C41.1879 8.43056 39.6733 8.43056 38.4931 9.18928L37.7447 9.67032C37.3472 9.92589 36.8675 10.0213 36.4024 9.93733L35.5269 9.77928C34.1462 9.52999 32.7469 10.1096 31.9468 11.2622L31.4395 11.993C31.17 12.3813 30.7634 12.653 30.3015 12.7534L29.4323 12.9424C28.0612 13.2405 26.9902 14.3114 26.6921 15.6825L26.5032 16.5518C26.4027 17.0136 26.131 17.4203 25.7428 17.6898L25.012 18.1971C23.8593 18.9971 23.2797 20.3964 23.529 21.7772L23.6871 22.6526C23.7711 23.1177 23.6757 23.5974 23.4201 23.995L22.939 24.7433C22.1803 25.9236 22.1803 27.4381 22.939 28.6184L23.4201 29.3667C23.6757 29.7643 23.7711 30.244 23.6871 30.7091L23.529 31.5845C23.2797 32.9653 23.8593 34.3646 25.012 35.1647L25.7428 35.6719C26.131 35.9414 26.4027 36.3481 26.5032 36.8099L26.6921 37.6792C26.8517 38.4129 27.2325 39.0607 27.7622 39.55L20.425 50.3401C19.2516 52.0657 20.4875 54.4008 22.5743 54.4008H25.6375L26.7764 56.4507C27.7509 58.2049 30.2614 58.2399 31.2845 56.5135L38.5694 44.2202C39.7381 44.9308 41.2132 44.9149 42.3682 44.1724L43.1165 43.6914C43.1756 43.6534 43.2366 43.6189 43.2991 43.588L43.1223 43.6927L50.7198 56.5135C51.7429 58.2399 54.2534 58.2049 55.228 56.4507L56.3668 54.4008H59.3964C61.4931 54.4008 62.7269 52.046 61.5335 50.3222L53.6396 38.9199C53.8887 38.5502 54.0709 38.131 54.1691 37.6792L54.3581 36.8099C54.4585 36.3481 54.7302 35.9414 55.1185 35.6719L55.8493 35.1647C57.0019 34.3646 57.5815 32.9653 57.3322 31.5845L57.1741 30.7091C57.0902 30.244 57.1856 29.7643 57.4411 29.3667L57.9222 28.6184C58.6809 27.4381 58.6809 25.9236 57.9222 24.7433L57.4411 23.995C57.1856 23.5974 57.0902 23.1177 57.1741 22.6526L57.3322 21.7772C57.5815 20.3964 57.0019 18.9971 55.8493 18.1971L55.1185 17.6898C54.7302 17.4203 54.4585 17.0136 54.3581 16.5518L54.1691 15.6825C53.871 14.3114 52.8001 13.2405 51.429 12.9424L50.5597 12.7534C50.0978 12.653 49.6912 12.3813 49.4217 11.993L48.9144 11.2622C48.1143 10.1096 46.7151 9.52999 45.3343 9.77928L44.4588 9.93733C43.9937 10.0213 43.5141 9.92589 43.1165 9.67032L42.3682 9.18928ZM52.3562 40.0785C52.0687 40.2321 51.7575 40.3479 51.429 40.4193L50.5597 40.6083C50.0978 40.7087 49.6912 40.9804 49.4217 41.3687L48.9144 42.0995C48.1143 43.2521 46.7151 43.8317 45.3343 43.5824L45.016 43.525L52.1949 55.6394C52.5431 56.2269 53.3974 56.215 53.7291 55.618L55.1129 53.1271L55.3579 52.6862H55.8623H59.3964C60.11 52.6862 60.5298 51.8848 60.1237 51.2981L52.3562 40.0785ZM21.8429 51.3043L29.2711 40.3804C29.3243 40.3945 29.3781 40.4075 29.4323 40.4193L30.3015 40.6083C30.7634 40.7087 31.17 40.9804 31.4395 41.3687L31.9468 42.0995C32.7469 43.2521 34.1462 43.8317 35.5269 43.5824L36.4024 43.4244C36.6182 43.3854 36.8372 43.3851 37.0497 43.4214L29.8094 55.6394C29.4612 56.2269 28.6069 56.215 28.2752 55.618L26.8914 53.1271L26.6464 52.6862H26.142H22.5743C21.8642 52.6862 21.4435 51.8915 21.8429 51.3043ZM39.4202 10.6316C40.0357 10.236 40.8255 10.236 41.441 10.6316L42.1893 11.1127C42.9517 11.6028 43.8715 11.7857 44.7635 11.6247L45.6389 11.4666C46.359 11.3366 47.0886 11.6389 47.5059 12.2399L48.0131 12.9707C48.53 13.7153 49.3097 14.2363 50.1954 14.4289L51.0647 14.6179C51.7797 14.7733 52.3381 15.3318 52.4936 16.0468L52.6826 16.9161C52.8751 17.8017 53.3962 18.5815 54.1407 19.0983L54.8715 19.6056C55.4726 20.0228 55.7748 20.7525 55.6448 21.4725L55.4868 22.348C55.3257 23.2399 55.5087 24.1597 55.9988 24.9222L56.4799 25.6705C56.8755 26.286 56.8755 27.0757 56.4799 27.6912L55.9988 28.4396C55.5087 29.202 55.3257 30.1218 55.4868 31.0137L55.6448 31.8892C55.7748 32.6092 55.4726 33.3389 54.8715 33.7561L54.1407 34.2634C53.3962 34.7802 52.8751 35.56 52.6826 36.4456L52.4936 37.3149C52.3381 38.0299 51.7797 38.5884 51.0647 38.7438L50.1954 38.9328C49.3097 39.1254 48.53 39.6464 48.0131 40.391L47.5059 41.1218C47.0886 41.7228 46.359 42.0251 45.6389 41.8951L44.7635 41.737C43.8715 41.576 42.9517 41.7589 42.1893 42.2491L41.441 42.7301C40.8255 43.1257 40.0357 43.1257 39.4202 42.7301L38.6719 42.2491C37.9095 41.7589 36.9897 41.576 36.0977 41.737L35.2223 41.8951C34.5023 42.0251 33.7726 41.7228 33.3554 41.1218L32.8481 40.391C32.3313 39.6464 31.5515 39.1254 30.6658 38.9328L29.7965 38.7438C29.0816 38.5884 28.5231 38.0299 28.3676 37.3149L28.1786 36.4456C27.9861 35.56 27.4651 34.7802 26.7205 34.2634L25.9897 33.7561C25.3886 33.3389 25.0864 32.6092 25.2164 31.8892L25.3744 31.0137C25.5355 30.1218 25.3525 29.202 24.8624 28.4396L24.3814 27.6912C23.9857 27.0757 23.9857 26.286 24.3814 25.6705L24.8624 24.9222C25.3525 24.1597 25.5355 23.2399 25.3744 22.348L25.2164 21.4725C25.0864 20.7525 25.3886 20.0228 25.9897 19.6056L26.7205 19.0983C27.4651 18.5815 27.9861 17.8017 28.1786 16.9161L28.3676 16.0468C28.5231 15.3318 29.0816 14.7733 29.7965 14.6179L30.6658 14.4289C31.5515 14.2363 32.3313 13.7153 32.8481 12.9707L33.3554 12.2399C33.7726 11.6389 34.5023 11.3366 35.2223 11.4666L36.0977 11.6247C36.9897 11.7857 37.9095 11.6028 38.6719 11.1127L39.4202 10.6316ZM32.6561 26.6809C32.6561 22.3871 36.1369 18.9064 40.4306 18.9064C44.7244 18.9064 48.2051 22.3871 48.2051 26.6809C48.2051 30.9746 44.7244 34.4553 40.4306 34.4553C36.1369 34.4553 32.6561 30.9746 32.6561 26.6809ZM40.4306 17.1917C35.1899 17.1917 30.9415 21.4402 30.9415 26.6809C30.9415 31.9216 35.1899 36.17 40.4306 36.17C45.6713 36.17 49.9198 31.9216 49.9198 26.6809C49.9198 21.4402 45.6713 17.1917 40.4306 17.1917Z" fill="#EC268F"></path></svg>