<svg width="425" height="233" viewBox="0 0 425 233" fill="none" xmlns="http://www.w3.org/2000/svg">
<path d="M225.684 76.7812C226.884 59.9813 236.184 50.1146 240.684 47.2812C237.084 51.2812 236.85 58.2812 237.184 61.2812C242.384 60.0813 248.017 62.4479 250.184 63.7812C237.384 62.5813 228.517 71.9479 225.684 76.7812Z" fill="#44A6D9"/>
<path d="M178.004 25.8384C179.702 16.8669 184.125 11.7529 186.5 10.4974C184.485 12.4348 184.037 16.3651 184 18C186.607 17.6657 190.535 18.6524 191.5 19.5C185.357 18.087 179.702 23.4064 178.004 25.8384Z" fill="#44A6D9"/>
<path d="M175.383 31.0157C176.97 19.7593 173.801 11.9611 171.503 9.5307C173.104 12.6211 172.06 17.4339 171.45 19.3762C168.509 17.9391 163.484 17.5314 162.007 18.1448C169.815 18.9358 174.354 27.4693 175.383 31.0157Z" fill="#264790"/>
<path d="M150 90C150.49 83.1661 154.286 79.1525 156.122 78C154.653 79.6271 154.558 82.4746 154.694 83.6949C156.816 83.2068 159.116 84.1695 160 84.7119C154.776 84.2237 151.156 88.0339 150 90Z" fill="#44A6D9"/>
<path d="M221.2 88.6377C226.753 68.6471 220.041 53.3528 215.991 48.2046C218.514 54.3345 217.811 61.4379 216.184 64.7813C210.646 61.2389 200.749 61.6299 197.684 62.2813C213.033 66.1809 219.91 81.8578 221.2 88.6377Z" fill="#264790"/>
<ellipse cx="210.324" cy="55.289" rx="4.5" ry="5.5" transform="rotate(-29.8441 210.324 55.289)" fill="#264790"/>
<ellipse cx="159.358" cy="80.1749" rx="2.15913" ry="2.63894" transform="rotate(60.6763 159.358 80.1749)" fill="#44A6D9"/>
<ellipse cx="243.469" cy="54.6353" rx="3.79806" ry="4.64207" transform="rotate(-113.98 243.469 54.6353)" fill="#44A6D9"/>
<ellipse cx="188.891" cy="13.8926" rx="2.94538" ry="3.59991" transform="rotate(-113.98 188.891 13.8926)" fill="#44A6D9"/>
<ellipse cx="168.66" cy="14.1978" rx="2.87587" ry="3.51495" transform="rotate(155.383 168.66 14.1978)" fill="#264790"/>
<mask id="mask0_2436_1087" style="mask-type:luminance" maskUnits="userSpaceOnUse" x="36" y="49" width="116" height="184">
<path d="M36.2441 49.3672H151.004V232.996H36.2441V49.3672Z" fill="white"/>
</mask>
<g mask="url(#mask0_2436_1087)">
<path fill-rule="evenodd" clip-rule="evenodd" d="M51.0225 128.884C42.9221 176.392 73.079 221.612 119.133 232.994C116.895 232.779 114.631 232.482 112.367 232.084C62.5883 223.623 29.0925 176.361 37.5724 126.588C46.0522 76.8095 93.2953 43.3011 143.074 51.781C145.338 52.1794 147.577 52.6473 149.771 53.1848C102.54 48.6824 59.123 81.3561 51.0225 128.884Z" fill="#44A6D9"/>
</g>
<path fill-rule="evenodd" clip-rule="evenodd" d="M189.255 199.398C113.979 242.266 39.6843 137.459 105.044 80.6172C102.951 81.825 100.883 83.1213 98.8726 84.5567C65.9143 107.929 58.1301 153.597 81.4892 186.555C104.861 219.514 150.53 227.285 183.488 203.926C185.499 202.497 187.427 200.986 189.255 199.398Z" fill="#264790"/>
<mask id="mask1_2436_1087" style="mask-type:luminance" maskUnits="userSpaceOnUse" x="0" y="0" width="158" height="115">
<path d="M0 0H157.481V114.127H0V0Z" fill="white"/>
</mask>
<g mask="url(#mask1_2436_1087)">
<path fill-rule="evenodd" clip-rule="evenodd" d="M133.812 26.8584L138.359 37.836C134.78 37.4503 131.194 37.2669 127.628 37.2669C103.206 37.2669 79.3919 45.9428 60.5668 61.6884C54.3065 66.9116 48.7418 72.8178 43.9169 79.2552L39.1616 67.7463L38.5672 66.3172L33.951 65.9947L18.9137 64.9134L8.20162 64.1482L7.77162 64.1229V96.0062C8.87824 96.6575 9.63074 97.8463 9.63074 99.2059C9.63074 100.363 9.09324 101.413 8.23956 102.077C8.10044 102.203 7.94236 102.317 7.77162 102.406V105.903L11.6669 113.687H0L3.82574 106.042V102.614C2.71912 101.982 1.96662 100.793 1.96662 99.4146C1.96662 98.1309 2.61794 96.999 3.62338 96.3287C3.69927 96.2718 3.75618 96.2149 3.82574 96.1769C3.90794 96.12 3.9775 96.0631 4.07868 96.0062V63.87L68.1108 2.9491L140.174 1.15322L156.469 0.742188L133.812 26.8584Z" fill="#264790"/>
</g>
<path d="M104.33 91.9219H130.358C137.604 91.9219 143.473 93.7936 147.962 97.5372C152.465 101.281 154.716 106.732 154.716 113.877C154.716 121.029 152.44 126.638 147.887 130.698C143.334 134.745 137.491 136.768 130.358 136.768H120.569V163.226H104.33V91.9219ZM120.569 123.818H125.172C128.796 123.818 131.774 123.084 134.101 121.617C136.441 120.15 137.617 117.741 137.617 114.383C137.617 110.994 136.441 108.565 134.101 107.098C131.774 105.631 128.796 104.898 125.172 104.898H120.569V123.818Z" fill="#264790"/>
<path d="M159.612 157.971C154.686 153.589 152.227 147.973 152.227 141.125C152.227 134.264 154.788 128.63 159.916 124.229C165.038 119.815 171.374 117.602 178.912 117.602C186.348 117.602 192.609 119.821 197.705 124.254C202.815 128.693 205.37 134.308 205.37 141.1C205.37 147.898 202.872 153.507 197.882 157.92C192.906 162.322 186.582 164.522 178.912 164.522C170.97 164.522 164.532 162.341 159.612 157.971ZM171.45 133.587C169.458 135.548 168.465 138.052 168.465 141.1C168.465 144.154 169.414 146.652 171.324 148.587C173.227 150.509 175.731 151.47 178.836 151.47C181.833 151.47 184.3 150.497 186.222 148.536C188.157 146.582 189.131 144.103 189.131 141.1C189.131 138.052 188.132 135.548 186.146 133.587C184.154 131.633 181.72 130.653 178.836 130.653C175.902 130.653 173.436 131.633 171.45 133.587Z" fill="#264790"/>
<path d="M206.064 163.214V88.875H221.367V163.214H206.064Z" fill="#264790"/>
<path d="M258.869 118.891H276.499L241.669 185.692H224.039L239.342 156.326L218.348 118.891H235.978L248.321 141.63L258.869 118.891Z" fill="#264790"/>
<path d="M271.486 174.134L284.032 167.987C286.34 171.782 290.342 173.679 296.046 173.679C298.69 173.679 301.156 172.825 303.432 171.124C305.709 169.436 306.847 166.83 306.847 163.308V160.045C304.128 163.03 299.29 164.522 292.328 164.522C285.935 164.522 280.667 162.265 276.519 157.743C272.371 153.228 270.297 147.689 270.297 141.125C270.297 134.549 272.371 128.984 276.519 124.431C280.667 119.878 285.935 117.602 292.328 117.602C298.026 117.602 302.781 119.36 306.594 122.863H306.847V118.892H322.15V164.446C322.15 171.642 319.753 177.201 314.966 181.115C310.192 185.042 303.887 187.009 296.046 187.009C283.361 187.009 275.179 182.715 271.486 174.134ZM289.52 133.587C287.528 135.548 286.536 138.052 286.536 141.1C286.536 144.154 287.484 146.652 289.394 148.587C291.297 150.509 293.801 151.47 296.906 151.47C299.904 151.47 302.37 150.497 304.292 148.536C306.227 146.582 307.201 144.103 307.201 141.1C307.201 138.052 306.202 135.548 304.216 133.587C302.224 131.633 299.79 130.653 296.906 130.653C293.972 130.653 291.506 131.633 289.52 133.587Z" fill="#264790"/>
<path d="M326.037 163.214V88.875H341.34V163.214H326.037Z" fill="#264790"/>
<path d="M349.423 157.971C344.497 153.589 342.037 147.973 342.037 141.125C342.037 134.264 344.598 128.63 349.727 124.229C354.849 119.815 361.185 117.602 368.722 117.602C376.159 117.602 382.419 119.821 387.516 124.254C392.625 128.693 395.18 134.308 395.18 141.1C395.18 147.898 392.682 153.507 387.693 157.92C382.716 162.322 376.393 164.522 368.722 164.522C360.78 164.522 354.343 162.341 349.423 157.971ZM361.261 133.587C359.269 135.548 358.276 138.052 358.276 141.1C358.276 144.154 359.224 146.652 361.134 148.587C363.038 150.509 365.542 151.47 368.647 151.47C371.644 151.47 374.11 150.497 376.032 148.536C377.967 146.582 378.941 144.103 378.941 141.1C378.941 138.052 377.942 135.548 375.957 133.587C373.965 131.633 371.53 130.653 368.647 130.653C365.712 130.653 363.246 131.633 361.261 133.587Z" fill="#264790"/>
<path d="M398.481 118.884V102.367H413.759V118.884H423.093V130.545H413.759V144.634C413.759 148.731 414.91 150.78 417.224 150.78C417.794 150.78 418.394 150.673 419.02 150.451C419.659 150.217 420.159 149.983 420.513 149.743L421.019 149.389L424.838 161.758C421.55 163.592 417.806 164.515 413.607 164.515C410.724 164.515 408.245 164.015 406.171 163.022C404.097 162.011 402.516 160.657 401.441 158.95C400.379 157.249 399.62 155.46 399.164 153.588C398.709 151.716 398.481 149.718 398.481 147.593V130.545H392.082V118.884H398.481Z" fill="#264790"/>
<path d="M111.379 170.727H114.136L112.062 175.381L114.389 180.389H111.581L109.937 175.962V180.389H107.307V170.727H109.937V174.824L111.379 170.727Z" fill="#264790"/>
<path d="M123.258 180.389H120.627V170.727H123.258V180.389Z" fill="#264790"/>
<path d="M129.973 180.389V170.727H132.097C133.071 170.727 133.9 170.923 134.576 171.308C135.265 171.7 135.79 172.257 136.144 172.978C136.499 173.705 136.676 174.546 136.676 175.507C136.676 176.405 136.574 177.151 136.372 177.758C136.17 178.353 135.898 178.821 135.563 179.175C135.24 179.529 134.886 179.795 134.5 179.959C134.108 180.13 133.716 180.25 133.311 180.313C132.919 180.364 132.578 180.389 132.274 180.389H129.973ZM132.603 173.13V178.062C132.907 178.062 133.141 177.98 133.311 177.809C133.495 177.645 133.64 177.442 133.741 177.202C133.843 176.949 133.906 176.69 133.944 176.418C133.975 176.133 133.994 175.874 133.994 175.634C133.994 175.381 133.975 175.115 133.944 174.824C133.906 174.521 133.843 174.242 133.741 173.99C133.64 173.737 133.495 173.534 133.311 173.382C133.141 173.218 132.907 173.13 132.603 173.13Z" fill="#264790"/>
<path d="M142.873 180.166V177.131C143.037 177.403 143.265 177.656 143.556 177.89C143.859 178.111 144.176 178.219 144.517 178.219C144.7 178.219 144.877 178.168 145.048 178.067C145.213 177.953 145.301 177.782 145.301 177.561C145.301 177.359 145.225 177.182 145.073 177.03C145.023 176.967 144.953 176.904 144.871 176.853C144.802 176.79 144.726 176.72 144.643 176.651C144.391 176.467 144.15 176.271 143.935 176.069C143.714 175.866 143.518 175.658 143.353 175.436C143.183 175.221 143.05 174.975 142.949 174.703C142.86 174.418 142.822 174.096 142.822 173.742C142.822 173.457 142.873 173.135 142.974 172.781C143.075 172.414 143.233 172.06 143.455 171.718C143.689 171.383 143.992 171.105 144.365 170.884C144.751 170.669 145.225 170.555 145.782 170.555C146.098 170.555 146.42 170.605 146.743 170.706C147.059 170.795 147.356 170.902 147.628 171.035V173.969C147.527 173.818 147.388 173.666 147.223 173.514C147.072 173.35 146.895 173.211 146.692 173.109C146.503 172.996 146.313 172.932 146.111 172.932C145.94 172.932 145.782 172.996 145.63 173.109C145.491 173.211 145.428 173.356 145.428 173.539C145.428 173.641 145.453 173.735 145.503 173.818C145.554 173.906 145.611 173.988 145.681 174.071C145.744 174.159 145.82 174.235 145.908 174.298C146.009 174.349 146.092 174.412 146.161 174.475C146.427 174.665 146.673 174.848 146.895 175.032C147.11 175.221 147.287 175.424 147.426 175.639C147.578 175.86 147.691 176.107 147.78 176.372C147.862 176.644 147.906 176.967 147.906 177.334C147.906 177.928 147.767 178.465 147.502 178.952C147.249 179.446 146.882 179.838 146.414 180.141C145.959 180.426 145.428 180.571 144.821 180.571C144.144 180.571 143.493 180.432 142.873 180.166Z" fill="#264790"/>
<path d="M148.002 93.7963C149.92 86.1014 147.187 80.3208 145.58 78.3923C146.612 80.7108 145.693 83.8779 145.104 85.1716C142.945 83.8714 140.069 84.1038 138.901 84.3826C144.824 85.7241 147.436 91.2173 148.002 93.7963Z" fill="#264790"/>
<ellipse cx="142.125" cy="80.3336" rx="2.15913" ry="2.63894" transform="rotate(-27.1145 142.125 80.3336)" fill="#264790"/>
</svg>
