<svg xmlns="http://www.w3.org/2000/svg" width="196.33" height="48.519" viewBox="0 0 196.33 48.519">
  <g id="LOGO" transform="translate(0 -33.45)">
    <g id="Group_94" data-name="Group 94" transform="translate(67.303 33.77)">
      <path id="Path_276" data-name="Path 276" d="M98.4,15.125a7.692,7.692,0,0,1,.4-2.492,5.846,5.846,0,0,1,1.142-2.009A5.149,5.149,0,0,1,101.787,9.3a6.313,6.313,0,0,1,2.524-.477,5.7,5.7,0,0,1,2.172.415,5.584,5.584,0,0,1,1.777,1.143,5.171,5.171,0,0,1,1.181,1.707,5.365,5.365,0,0,1,.42,2.135q0,.314-.012.735a7.368,7.368,0,0,1-.114,1.011h-8.488a3.985,3.985,0,0,0,.182,1.216,2.768,2.768,0,0,0,.552,1,2.546,2.546,0,0,0,.968.668,3.762,3.762,0,0,0,1.437.246,3.613,3.613,0,0,0,1.017-.127,2.471,2.471,0,0,0,.722-.335,1.886,1.886,0,0,0,.49-.507,3.431,3.431,0,0,0,.32-.614h2.825a4.54,4.54,0,0,1-.577,1.475,4.664,4.664,0,0,1-1.1,1.249,5.463,5.463,0,0,1-1.607.867,6.267,6.267,0,0,1-2.085.326,6.11,6.11,0,0,1-2.636-.527,5.475,5.475,0,0,1-1.865-1.406,5.923,5.923,0,0,1-1.118-2.009A7.53,7.53,0,0,1,98.4,15.125Zm2.876-1.231h5.865a2.574,2.574,0,0,0-.81-2,2.979,2.979,0,0,0-2.091-.741,3.241,3.241,0,0,0-2.1.7A2.466,2.466,0,0,0,101.272,13.894Z" transform="translate(-98.396 -3.108)"/>
      <path id="Path_277" data-name="Path 277" d="M118.278,15.125a6.519,6.519,0,0,1,.452-2.4,6.37,6.37,0,0,1,1.262-2.021,5.854,5.854,0,0,1,1.941-1.375,6.043,6.043,0,0,1,2.486-.5,4.694,4.694,0,0,1,2.1.515,3.859,3.859,0,0,1,1.607,1.419V9.135h2.8V21.114h-2.8v-1.62a3.849,3.849,0,0,1-1.607,1.419,4.694,4.694,0,0,1-2.1.515,6.051,6.051,0,0,1-2.493-.5,5.828,5.828,0,0,1-1.934-1.382,6.463,6.463,0,0,1-1.714-4.419Zm2.8,0a4.37,4.37,0,0,0,.245,1.462,3.541,3.541,0,0,0,.709,1.212,3.489,3.489,0,0,0,1.112.822,3.293,3.293,0,0,0,1.438.308,3.4,3.4,0,0,0,2.568-1.13,3.764,3.764,0,0,0,.716-1.212,4.288,4.288,0,0,0,0-2.925,3.764,3.764,0,0,0-.716-1.212,3.4,3.4,0,0,0-2.568-1.129,3.3,3.3,0,0,0-1.438.307,3.509,3.509,0,0,0-1.112.822,3.552,3.552,0,0,0-.709,1.206A4.358,4.358,0,0,0,121.078,15.125Z" transform="translate(-104.679 -3.108)"/>
      <path id="Path_278" data-name="Path 278" d="M142.254,21.183V9.2h2.8v1.941a2.874,2.874,0,0,1,.578-.792,4.542,4.542,0,0,1,.873-.672,4.6,4.6,0,0,1,1.08-.469,4.141,4.141,0,0,1,1.173-.172,2.8,2.8,0,0,1,1.106.19v2.585a5.619,5.619,0,0,0-.56-.1,4.847,4.847,0,0,0-.547-.025,3.545,3.545,0,0,0-2.75,1.04,4.767,4.767,0,0,0-.954,3.293v5.159Z" transform="translate(-112.255 -3.177)"/>
      <path id="Path_279" data-name="Path 279" d="M156.463,18.474V.468h2.8V18.474Z" transform="translate(-116.745 -0.468)"/>
      <path id="Path_280" data-name="Path 280" d="M165.733,22.628h2.725a2.494,2.494,0,0,0,.71,1.721,2.859,2.859,0,0,0,2.153.715,3.1,3.1,0,0,0,2.261-.732,3.435,3.435,0,0,0,.741-2.5V19.609a3.656,3.656,0,0,1-1.57,1.466,5.2,5.2,0,0,1-2.335.5,4.944,4.944,0,0,1-2.2-.439,3.62,3.62,0,0,1-1.406-1.181,4.131,4.131,0,0,1-.6-1.494,10.9,10.9,0,0,1-.163-2.06V9.28h2.8v6.207a7.885,7.885,0,0,0,.125,1.441,3.278,3.278,0,0,0,.428,1.152,2.23,2.23,0,0,0,.8.762,2.489,2.489,0,0,0,1.249.283,2.435,2.435,0,0,0,2.172-1.045,4.543,4.543,0,0,0,.7-2.593V9.28h2.8V21.825q0,3.063-1.6,4.4a6.935,6.935,0,0,1-4.564,1.337,5.378,5.378,0,0,1-2.109-.4,5.179,5.179,0,0,1-1.644-1.079,4.912,4.912,0,0,1-1.081-1.582A4.693,4.693,0,0,1,165.733,22.628Z" transform="translate(-119.675 -3.253)"/>
    </g>
    <g id="Group_95" data-name="Group 95" transform="translate(0 33.45)">
      <path id="Path_282" data-name="Path 282" d="M9.611,49.168c0,6.047-2.1,10.949-4.692,10.949s-4.69-4.9-4.69-10.949,2.1-10.951,4.69-10.951,4.692,4.9,4.692,10.951" transform="translate(-0.072 -12.077)" fill="#e53312"/>
      <path id="Path_283" data-name="Path 283" d="M28.646,36.509c0,9.682-2.1,17.529-4.691,17.529s-4.692-7.847-4.692-17.529,2.1-17.529,4.692-17.529,4.691,7.848,4.691,17.529" transform="translate(-6.087 -5.998)" fill="#e71a84"/>
      <path id="Path_284" data-name="Path 284" d="M47.683,17.53c0,9.681-2.1,17.53-4.691,17.53S38.3,27.211,38.3,17.53,40.4,0,42.992,0s4.691,7.848,4.691,17.53" transform="translate(-12.103 0)"/>
      <path id="Path_285" data-name="Path 285" d="M66.718,49.168c0,6.047-2.1,10.949-4.692,10.949s-4.691-4.9-4.691-10.949,2.1-10.951,4.691-10.951,4.692,4.9,4.692,10.951" transform="translate(-18.118 -12.077)" fill="#009be0"/>
      <path id="Path_286" data-name="Path 286" d="M9.694,24.085a4.847,4.847,0,1,1-4.848-4.848,4.848,4.848,0,0,1,4.848,4.848" transform="translate(0 -6.079)"/>
      <path id="Path_287" data-name="Path 287" d="M47.767,61.253a4.848,4.848,0,1,1-4.848-4.847,4.848,4.848,0,0,1,4.848,4.847" transform="translate(-12.031 -17.824)" fill="#e53312"/>
      <path id="Path_288" data-name="Path 288" d="M66.8,24.085a4.848,4.848,0,1,1-4.848-4.848A4.848,4.848,0,0,1,66.8,24.085" transform="translate(-18.046 -6.079)" fill="#e71a84"/>
      <path id="Path_289" data-name="Path 289" d="M28.729,4.847A4.847,4.847,0,1,1,23.883,0a4.847,4.847,0,0,1,4.847,4.847" transform="translate(-6.015 0)" fill="#009be0"/>
    </g>
    <path id="Path_320" data-name="Path 320" d="M-208.37-77.264a7.227,7.227,0,0,0,7.447-7.55,7.227,7.227,0,0,0-7.447-7.55,7.227,7.227,0,0,0-7.447,7.55A7.227,7.227,0,0,0-208.37-77.264Zm0-1.692c-3.486,0-5.487-2.7-5.487-5.859s2-5.859,5.487-5.859,5.487,2.7,5.467,5.859C-202.883-81.658-204.884-78.955-208.37-78.955Zm9.861,1.361h1.815V-88.9l6.5,11.3h1.98v-14.44h-1.795v11.3l-6.5-11.3h-2Zm13.594,0h8.025v-1.774h-6.147V-92.034h-1.877Zm10.541,0h1.877v-14.44h-1.877Zm5.178,0h1.815V-88.9l6.5,11.3h1.98v-14.44H-160.7v11.3l-6.5-11.3h-2Zm13.594,0h8.21v-1.692h-6.333v-4.641h6.333v-1.692h-6.333v-4.724h6.333v-1.692h-8.21Z" transform="translate(283.009 159.233)"/>
    <g id="Group_106" data-name="Group 106" transform="translate(133.917 36.206)">
      <path id="Path_319" data-name="Path 319" d="M3.2-91.175V-93.5H5.227v-3.611H8.013V-93.5h2.736v2.324H8.013v4.918a5.384,5.384,0,0,0,.112,1.226,1.539,1.539,0,0,0,.344.707,1.128,1.128,0,0,0,.55.325,2.968,2.968,0,0,0,.731.081q.337,0,.775-.031a4.115,4.115,0,0,0,.637-.081v2.449q-.337.05-.9.1t-1.174.05a9.085,9.085,0,0,1-1.174-.087,2.916,2.916,0,0,1-1.268-.5,3.092,3.092,0,0,1-1.012-1.256,5.54,5.54,0,0,1-.406-2.355v-5.547Zm9.307,3.636a6.476,6.476,0,0,1,.45-2.392,6.336,6.336,0,0,1,1.256-2.011,5.831,5.831,0,0,1,1.93-1.368,6.023,6.023,0,0,1,2.474-.5,4.671,4.671,0,0,1,2.086.512,3.837,3.837,0,0,1,1.6,1.412V-93.5h2.786V-81.58H22.305v-1.612a3.837,3.837,0,0,1-1.6,1.412,4.671,4.671,0,0,1-2.086.512,6.01,6.01,0,0,1-2.48-.5,5.805,5.805,0,0,1-1.924-1.374,6.467,6.467,0,0,1-1.256-2A6.4,6.4,0,0,1,12.511-87.54Zm2.786,0a4.358,4.358,0,0,0,.244,1.455,3.517,3.517,0,0,0,.706,1.206,3.494,3.494,0,0,0,1.106.818,3.288,3.288,0,0,0,1.43.306,3.37,3.37,0,0,0,1.443-.306,3.385,3.385,0,0,0,1.112-.818,3.742,3.742,0,0,0,.712-1.206,4.167,4.167,0,0,0,.256-1.455A4.167,4.167,0,0,0,22.049-89a3.741,3.741,0,0,0-.712-1.206,3.385,3.385,0,0,0-1.112-.818,3.37,3.37,0,0,0-1.443-.306,3.288,3.288,0,0,0-1.43.306,3.494,3.494,0,0,0-1.106.818A3.528,3.528,0,0,0,15.54-89,4.342,4.342,0,0,0,15.3-87.54Zm12.631,0a6.489,6.489,0,0,1,.449-2.392,6.339,6.339,0,0,1,1.253-2.011,5.818,5.818,0,0,1,1.926-1.368,6,6,0,0,1,2.468-.5,4.7,4.7,0,0,1,2.094.512,3.847,3.847,0,0,1,1.605,1.412V-93.5h2.786v12.506a6.932,6.932,0,0,1-.432,2.586,4.381,4.381,0,0,1-1.264,1.768A5.223,5.223,0,0,1,36.8-75.627a10.292,10.292,0,0,1-2.673.319,7.08,7.08,0,0,1-2.574-.425,5.71,5.71,0,0,1-1.832-1.112,4.833,4.833,0,0,1-1.141-1.574,5.027,5.027,0,0,1-.449-1.8h2.786a2.6,2.6,0,0,0,.9,1.7,3.329,3.329,0,0,0,2.307.725,4.155,4.155,0,0,0,2.646-.756,2.931,2.931,0,0,0,.953-2.442v-2.2a3.847,3.847,0,0,1-1.605,1.412,4.7,4.7,0,0,1-2.094.512,5.986,5.986,0,0,1-2.474-.5,5.792,5.792,0,0,1-1.92-1.374,6.471,6.471,0,0,1-1.253-2A6.41,6.41,0,0,1,27.927-87.54Zm2.786,0a4.373,4.373,0,0,0,.243,1.455,3.52,3.52,0,0,0,.7,1.206,3.5,3.5,0,0,0,1.1.818,3.254,3.254,0,0,0,1.431.306,3.392,3.392,0,0,0,1.448-.306,3.4,3.4,0,0,0,1.116-.818,3.739,3.739,0,0,0,.715-1.206,4.153,4.153,0,0,0,.257-1.455A4.153,4.153,0,0,0,37.465-89,3.739,3.739,0,0,0,36.75-90.2a3.4,3.4,0,0,0-1.116-.818,3.393,3.393,0,0,0-1.448-.306,3.265,3.265,0,0,0-1.425.306,3.481,3.481,0,0,0-1.1.818,3.532,3.532,0,0,0-.7,1.2A4.356,4.356,0,0,0,30.713-87.54Zm12.606,0a7.643,7.643,0,0,1,.394-2.48,5.822,5.822,0,0,1,1.137-2,5.125,5.125,0,0,1,1.843-1.318,6.28,6.28,0,0,1,2.511-.475,5.673,5.673,0,0,1,2.161.412,5.555,5.555,0,0,1,1.768,1.137,5.136,5.136,0,0,1,1.174,1.7,5.325,5.325,0,0,1,.419,2.124q0,.312-.012.731A7.462,7.462,0,0,1,54.6-86.7H46.155a3.978,3.978,0,0,0,.181,1.21,2.739,2.739,0,0,0,.55.991,2.542,2.542,0,0,0,.962.665,3.75,3.75,0,0,0,1.43.245,3.586,3.586,0,0,0,1.012-.126,2.431,2.431,0,0,0,.718-.334,1.861,1.861,0,0,0,.487-.5,3.414,3.414,0,0,0,.319-.611h2.811A4.528,4.528,0,0,1,54.05-83.7a4.644,4.644,0,0,1-1.1,1.243,5.434,5.434,0,0,1-1.6.862,6.228,6.228,0,0,1-2.074.325,6.093,6.093,0,0,1-2.624-.525,5.448,5.448,0,0,1-1.855-1.4,5.882,5.882,0,0,1-1.112-2A7.492,7.492,0,0,1,43.319-87.54Zm2.861-1.224h5.834a2.56,2.56,0,0,0-.806-1.986,2.962,2.962,0,0,0-2.08-.737,3.224,3.224,0,0,0-2.086.693A2.451,2.451,0,0,0,46.18-88.764Z" transform="translate(7.689 97.109)"/>
      <path id="Path_321" data-name="Path 321" d="M195.785,17.071h2.724a1.925,1.925,0,0,0,.651,1.658,2.727,2.727,0,0,0,1.653.477,2.874,2.874,0,0,0,1.39-.307,1.116,1.116,0,0,0,.564-1.072.963.963,0,0,0-.232-.671,2.195,2.195,0,0,0-.695-.476,10.7,10.7,0,0,0-1.151-.451Q200,16,199.044,15.645a9.4,9.4,0,0,1-1.146-.5,4.3,4.3,0,0,1-.919-.633,2.341,2.341,0,0,1-.6-.9,3.64,3.64,0,0,1-.207-1.3,2.99,2.99,0,0,1,.364-1.5,3.509,3.509,0,0,1,.982-1.1,4.29,4.29,0,0,1,1.427-.674,6.649,6.649,0,0,1,1.742-.22,5.118,5.118,0,0,1,1.787.308,4.555,4.555,0,0,1,1.448.847,3.986,3.986,0,0,1,.972,1.287,3.723,3.723,0,0,1,.358,1.626h-2.725a1.95,1.95,0,0,0-.444-1.347,1.887,1.887,0,0,0-1.471-.5,2.138,2.138,0,0,0-1.214.333,1.1,1.1,0,0,0-.5.984.943.943,0,0,0,.2.627,1.774,1.774,0,0,0,.614.432,10.779,10.779,0,0,0,1.026.408q.614.212,1.441.527.615.225,1.2.488a4.6,4.6,0,0,1,1.053.646,2.813,2.813,0,0,1,.735.921,3.059,3.059,0,0,1,.269,1.367,3.32,3.32,0,0,1-.377,1.618,3.273,3.273,0,0,1-1.028,1.142,4.655,4.655,0,0,1-1.523.672,7.584,7.584,0,0,1-1.85.219,5.948,5.948,0,0,1-1.85-.282,4.73,4.73,0,0,1-1.555-.841,4.015,4.015,0,0,1-1.079-1.369A4.2,4.2,0,0,1,195.785,17.071Z" transform="translate(-195.785 -5.543)"/>
    </g>
  </g>
</svg>
